%TF.GenerationSoftware,KiCad,Pcbnew,(7.0.0-0)*%
%TF.CreationDate,2024-05-26T10:43:26+02:00*%
%TF.ProjectId,SwitchFoil,53776974-6368-4466-9f69-6c2e6b696361,rev?*%
%TF.SameCoordinates,Original*%
%TF.FileFunction,AssemblyDrawing,Top*%
%FSLAX46Y46*%
G04 Gerber Fmt 4.6, Leading zero omitted, Abs format (unit mm)*
G04 Created by KiCad (PCBNEW (7.0.0-0)) date 2024-05-26 10:43:26*
%MOMM*%
%LPD*%
G01*
G04 APERTURE LIST*
%ADD10C,0.150000*%
%ADD11C,0.100000*%
%ADD12C,0.060000*%
%ADD13C,0.200000*%
%ADD14C,0.127000*%
%ADD15C,0.010000*%
%ADD16C,0.152400*%
G04 APERTURE END LIST*
D10*
%TO.C,R10*%
X122460212Y-70072717D02*
X122460212Y-70739383D01*
X122222117Y-69691764D02*
X121984022Y-70406050D01*
X121984022Y-70406050D02*
X122603069Y-70406050D01*
X122984022Y-70739383D02*
X122984022Y-69739383D01*
X123079260Y-70358431D02*
X123364974Y-70739383D01*
X123364974Y-70072717D02*
X122984022Y-70453669D01*
X123698308Y-69739383D02*
X124364974Y-69739383D01*
X124364974Y-69739383D02*
X123936403Y-70739383D01*
X122507831Y-68369383D02*
X122174498Y-67893193D01*
X121936403Y-68369383D02*
X121936403Y-67369383D01*
X121936403Y-67369383D02*
X122317355Y-67369383D01*
X122317355Y-67369383D02*
X122412593Y-67417003D01*
X122412593Y-67417003D02*
X122460212Y-67464622D01*
X122460212Y-67464622D02*
X122507831Y-67559860D01*
X122507831Y-67559860D02*
X122507831Y-67702717D01*
X122507831Y-67702717D02*
X122460212Y-67797955D01*
X122460212Y-67797955D02*
X122412593Y-67845574D01*
X122412593Y-67845574D02*
X122317355Y-67893193D01*
X122317355Y-67893193D02*
X121936403Y-67893193D01*
X123460212Y-68369383D02*
X122888784Y-68369383D01*
X123174498Y-68369383D02*
X123174498Y-67369383D01*
X123174498Y-67369383D02*
X123079260Y-67512241D01*
X123079260Y-67512241D02*
X122984022Y-67607479D01*
X122984022Y-67607479D02*
X122888784Y-67655098D01*
X124079260Y-67369383D02*
X124174498Y-67369383D01*
X124174498Y-67369383D02*
X124269736Y-67417003D01*
X124269736Y-67417003D02*
X124317355Y-67464622D01*
X124317355Y-67464622D02*
X124364974Y-67559860D01*
X124364974Y-67559860D02*
X124412593Y-67750336D01*
X124412593Y-67750336D02*
X124412593Y-67988431D01*
X124412593Y-67988431D02*
X124364974Y-68178907D01*
X124364974Y-68178907D02*
X124317355Y-68274145D01*
X124317355Y-68274145D02*
X124269736Y-68321764D01*
X124269736Y-68321764D02*
X124174498Y-68369383D01*
X124174498Y-68369383D02*
X124079260Y-68369383D01*
X124079260Y-68369383D02*
X123984022Y-68321764D01*
X123984022Y-68321764D02*
X123936403Y-68274145D01*
X123936403Y-68274145D02*
X123888784Y-68178907D01*
X123888784Y-68178907D02*
X123841165Y-67988431D01*
X123841165Y-67988431D02*
X123841165Y-67750336D01*
X123841165Y-67750336D02*
X123888784Y-67559860D01*
X123888784Y-67559860D02*
X123936403Y-67464622D01*
X123936403Y-67464622D02*
X123984022Y-67417003D01*
X123984022Y-67417003D02*
X124079260Y-67369383D01*
D11*
%TO.C,U1*%
X89904605Y-89562672D02*
X90309367Y-89562672D01*
X90309367Y-89562672D02*
X90356986Y-89538862D01*
X90356986Y-89538862D02*
X90380795Y-89515053D01*
X90380795Y-89515053D02*
X90404605Y-89467434D01*
X90404605Y-89467434D02*
X90404605Y-89372196D01*
X90404605Y-89372196D02*
X90380795Y-89324577D01*
X90380795Y-89324577D02*
X90356986Y-89300767D01*
X90356986Y-89300767D02*
X90309367Y-89276958D01*
X90309367Y-89276958D02*
X89904605Y-89276958D01*
X90404605Y-88776957D02*
X90404605Y-89062671D01*
X90404605Y-88919814D02*
X89904605Y-88919814D01*
X89904605Y-88919814D02*
X89976034Y-88967433D01*
X89976034Y-88967433D02*
X90023653Y-89015052D01*
X90023653Y-89015052D02*
X90047462Y-89062671D01*
X90934605Y-90931719D02*
X90934605Y-90646005D01*
X91434605Y-90788862D02*
X90934605Y-90788862D01*
X91434605Y-90479339D02*
X90934605Y-90479339D01*
X91434605Y-90265053D02*
X91172700Y-90265053D01*
X91172700Y-90265053D02*
X91125081Y-90288863D01*
X91125081Y-90288863D02*
X91101272Y-90336482D01*
X91101272Y-90336482D02*
X91101272Y-90407910D01*
X91101272Y-90407910D02*
X91125081Y-90455529D01*
X91125081Y-90455529D02*
X91148891Y-90479339D01*
X91434605Y-90026958D02*
X91101272Y-90026958D01*
X90934605Y-90026958D02*
X90958415Y-90050767D01*
X90958415Y-90050767D02*
X90982224Y-90026958D01*
X90982224Y-90026958D02*
X90958415Y-90003148D01*
X90958415Y-90003148D02*
X90934605Y-90026958D01*
X90934605Y-90026958D02*
X90982224Y-90026958D01*
X91101272Y-89788863D02*
X91434605Y-89788863D01*
X91148891Y-89788863D02*
X91125081Y-89765053D01*
X91125081Y-89765053D02*
X91101272Y-89717434D01*
X91101272Y-89717434D02*
X91101272Y-89646006D01*
X91101272Y-89646006D02*
X91125081Y-89598387D01*
X91125081Y-89598387D02*
X91172700Y-89574577D01*
X91172700Y-89574577D02*
X91434605Y-89574577D01*
X91101272Y-89122196D02*
X91506034Y-89122196D01*
X91506034Y-89122196D02*
X91553653Y-89146006D01*
X91553653Y-89146006D02*
X91577462Y-89169815D01*
X91577462Y-89169815D02*
X91601272Y-89217434D01*
X91601272Y-89217434D02*
X91601272Y-89288863D01*
X91601272Y-89288863D02*
X91577462Y-89336482D01*
X91410795Y-89122196D02*
X91434605Y-89169815D01*
X91434605Y-89169815D02*
X91434605Y-89265053D01*
X91434605Y-89265053D02*
X91410795Y-89312672D01*
X91410795Y-89312672D02*
X91386986Y-89336482D01*
X91386986Y-89336482D02*
X91339367Y-89360291D01*
X91339367Y-89360291D02*
X91196510Y-89360291D01*
X91196510Y-89360291D02*
X91148891Y-89336482D01*
X91148891Y-89336482D02*
X91125081Y-89312672D01*
X91125081Y-89312672D02*
X91101272Y-89265053D01*
X91101272Y-89265053D02*
X91101272Y-89169815D01*
X91101272Y-89169815D02*
X91125081Y-89122196D01*
X91434605Y-88884101D02*
X90934605Y-88884101D01*
X90934605Y-88884101D02*
X90934605Y-88693625D01*
X90934605Y-88693625D02*
X90958415Y-88646006D01*
X90958415Y-88646006D02*
X90982224Y-88622196D01*
X90982224Y-88622196D02*
X91029843Y-88598387D01*
X91029843Y-88598387D02*
X91101272Y-88598387D01*
X91101272Y-88598387D02*
X91148891Y-88622196D01*
X91148891Y-88622196D02*
X91172700Y-88646006D01*
X91172700Y-88646006D02*
X91196510Y-88693625D01*
X91196510Y-88693625D02*
X91196510Y-88884101D01*
X91434605Y-88312672D02*
X91410795Y-88360291D01*
X91410795Y-88360291D02*
X91363176Y-88384101D01*
X91363176Y-88384101D02*
X90934605Y-88384101D01*
X91101272Y-87907910D02*
X91434605Y-87907910D01*
X91101272Y-88122196D02*
X91363176Y-88122196D01*
X91363176Y-88122196D02*
X91410795Y-88098386D01*
X91410795Y-88098386D02*
X91434605Y-88050767D01*
X91434605Y-88050767D02*
X91434605Y-87979339D01*
X91434605Y-87979339D02*
X91410795Y-87931720D01*
X91410795Y-87931720D02*
X91386986Y-87907910D01*
X91410795Y-87693624D02*
X91434605Y-87646005D01*
X91434605Y-87646005D02*
X91434605Y-87550767D01*
X91434605Y-87550767D02*
X91410795Y-87503148D01*
X91410795Y-87503148D02*
X91363176Y-87479339D01*
X91363176Y-87479339D02*
X91339367Y-87479339D01*
X91339367Y-87479339D02*
X91291748Y-87503148D01*
X91291748Y-87503148D02*
X91267938Y-87550767D01*
X91267938Y-87550767D02*
X91267938Y-87622196D01*
X91267938Y-87622196D02*
X91244129Y-87669815D01*
X91244129Y-87669815D02*
X91196510Y-87693624D01*
X91196510Y-87693624D02*
X91172700Y-87693624D01*
X91172700Y-87693624D02*
X91125081Y-87669815D01*
X91125081Y-87669815D02*
X91101272Y-87622196D01*
X91101272Y-87622196D02*
X91101272Y-87550767D01*
X91101272Y-87550767D02*
X91125081Y-87503148D01*
D12*
X139503415Y-80401934D02*
X139503415Y-80101934D01*
X139703415Y-80101934D02*
X139760558Y-80101934D01*
X139760558Y-80101934D02*
X139789129Y-80116220D01*
X139789129Y-80116220D02*
X139817701Y-80144791D01*
X139817701Y-80144791D02*
X139831986Y-80201934D01*
X139831986Y-80201934D02*
X139831986Y-80301934D01*
X139831986Y-80301934D02*
X139817701Y-80359077D01*
X139817701Y-80359077D02*
X139789129Y-80387648D01*
X139789129Y-80387648D02*
X139760558Y-80401934D01*
X139760558Y-80401934D02*
X139703415Y-80401934D01*
X139703415Y-80401934D02*
X139674844Y-80387648D01*
X139674844Y-80387648D02*
X139646272Y-80359077D01*
X139646272Y-80359077D02*
X139631986Y-80301934D01*
X139631986Y-80301934D02*
X139631986Y-80201934D01*
X139631986Y-80201934D02*
X139646272Y-80144791D01*
X139646272Y-80144791D02*
X139674844Y-80116220D01*
X139674844Y-80116220D02*
X139703415Y-80101934D01*
X140089130Y-80101934D02*
X140031987Y-80101934D01*
X140031987Y-80101934D02*
X140003415Y-80116220D01*
X140003415Y-80116220D02*
X139989130Y-80130505D01*
X139989130Y-80130505D02*
X139960558Y-80173362D01*
X139960558Y-80173362D02*
X139946272Y-80230505D01*
X139946272Y-80230505D02*
X139946272Y-80344791D01*
X139946272Y-80344791D02*
X139960558Y-80373362D01*
X139960558Y-80373362D02*
X139974844Y-80387648D01*
X139974844Y-80387648D02*
X140003415Y-80401934D01*
X140003415Y-80401934D02*
X140060558Y-80401934D01*
X140060558Y-80401934D02*
X140089130Y-80387648D01*
X140089130Y-80387648D02*
X140103415Y-80373362D01*
X140103415Y-80373362D02*
X140117701Y-80344791D01*
X140117701Y-80344791D02*
X140117701Y-80273362D01*
X140117701Y-80273362D02*
X140103415Y-80244791D01*
X140103415Y-80244791D02*
X140089130Y-80230505D01*
X140089130Y-80230505D02*
X140060558Y-80216220D01*
X140060558Y-80216220D02*
X140003415Y-80216220D01*
X140003415Y-80216220D02*
X139974844Y-80230505D01*
X139974844Y-80230505D02*
X139960558Y-80244791D01*
X139960558Y-80244791D02*
X139946272Y-80273362D01*
X126820421Y-80393130D02*
X126820421Y-80093130D01*
X127020421Y-80093130D02*
X127077564Y-80093130D01*
X127077564Y-80093130D02*
X127106135Y-80107416D01*
X127106135Y-80107416D02*
X127134707Y-80135987D01*
X127134707Y-80135987D02*
X127148992Y-80193130D01*
X127148992Y-80193130D02*
X127148992Y-80293130D01*
X127148992Y-80293130D02*
X127134707Y-80350273D01*
X127134707Y-80350273D02*
X127106135Y-80378844D01*
X127106135Y-80378844D02*
X127077564Y-80393130D01*
X127077564Y-80393130D02*
X127020421Y-80393130D01*
X127020421Y-80393130D02*
X126991850Y-80378844D01*
X126991850Y-80378844D02*
X126963278Y-80350273D01*
X126963278Y-80350273D02*
X126948992Y-80293130D01*
X126948992Y-80293130D02*
X126948992Y-80193130D01*
X126948992Y-80193130D02*
X126963278Y-80135987D01*
X126963278Y-80135987D02*
X126991850Y-80107416D01*
X126991850Y-80107416D02*
X127020421Y-80093130D01*
X127434707Y-80393130D02*
X127263278Y-80393130D01*
X127348993Y-80393130D02*
X127348993Y-80093130D01*
X127348993Y-80093130D02*
X127320421Y-80135987D01*
X127320421Y-80135987D02*
X127291850Y-80164558D01*
X127291850Y-80164558D02*
X127263278Y-80178844D01*
X106619130Y-98181934D02*
X106519130Y-98039077D01*
X106447701Y-98181934D02*
X106447701Y-97881934D01*
X106447701Y-97881934D02*
X106561987Y-97881934D01*
X106561987Y-97881934D02*
X106590558Y-97896220D01*
X106590558Y-97896220D02*
X106604844Y-97910505D01*
X106604844Y-97910505D02*
X106619130Y-97939077D01*
X106619130Y-97939077D02*
X106619130Y-97981934D01*
X106619130Y-97981934D02*
X106604844Y-98010505D01*
X106604844Y-98010505D02*
X106590558Y-98024791D01*
X106590558Y-98024791D02*
X106561987Y-98039077D01*
X106561987Y-98039077D02*
X106447701Y-98039077D01*
X106733415Y-98167648D02*
X106776273Y-98181934D01*
X106776273Y-98181934D02*
X106847701Y-98181934D01*
X106847701Y-98181934D02*
X106876273Y-98167648D01*
X106876273Y-98167648D02*
X106890558Y-98153362D01*
X106890558Y-98153362D02*
X106904844Y-98124791D01*
X106904844Y-98124791D02*
X106904844Y-98096220D01*
X106904844Y-98096220D02*
X106890558Y-98067648D01*
X106890558Y-98067648D02*
X106876273Y-98053362D01*
X106876273Y-98053362D02*
X106847701Y-98039077D01*
X106847701Y-98039077D02*
X106790558Y-98024791D01*
X106790558Y-98024791D02*
X106761987Y-98010505D01*
X106761987Y-98010505D02*
X106747701Y-97996220D01*
X106747701Y-97996220D02*
X106733415Y-97967648D01*
X106733415Y-97967648D02*
X106733415Y-97939077D01*
X106733415Y-97939077D02*
X106747701Y-97910505D01*
X106747701Y-97910505D02*
X106761987Y-97896220D01*
X106761987Y-97896220D02*
X106790558Y-97881934D01*
X106790558Y-97881934D02*
X106861987Y-97881934D01*
X106861987Y-97881934D02*
X106904844Y-97896220D01*
X106990558Y-97881934D02*
X107161987Y-97881934D01*
X107076272Y-98181934D02*
X107076272Y-97881934D01*
X106406273Y-97776220D02*
X107160558Y-97776220D01*
X108951987Y-97881934D02*
X109137701Y-97881934D01*
X109137701Y-97881934D02*
X109037701Y-97996220D01*
X109037701Y-97996220D02*
X109080558Y-97996220D01*
X109080558Y-97996220D02*
X109109130Y-98010505D01*
X109109130Y-98010505D02*
X109123415Y-98024791D01*
X109123415Y-98024791D02*
X109137701Y-98053362D01*
X109137701Y-98053362D02*
X109137701Y-98124791D01*
X109137701Y-98124791D02*
X109123415Y-98153362D01*
X109123415Y-98153362D02*
X109109130Y-98167648D01*
X109109130Y-98167648D02*
X109080558Y-98181934D01*
X109080558Y-98181934D02*
X108994844Y-98181934D01*
X108994844Y-98181934D02*
X108966272Y-98167648D01*
X108966272Y-98167648D02*
X108951987Y-98153362D01*
X109223415Y-97881934D02*
X109323415Y-98181934D01*
X109323415Y-98181934D02*
X109423415Y-97881934D01*
X109494844Y-97881934D02*
X109680558Y-97881934D01*
X109680558Y-97881934D02*
X109580558Y-97996220D01*
X109580558Y-97996220D02*
X109623415Y-97996220D01*
X109623415Y-97996220D02*
X109651987Y-98010505D01*
X109651987Y-98010505D02*
X109666272Y-98024791D01*
X109666272Y-98024791D02*
X109680558Y-98053362D01*
X109680558Y-98053362D02*
X109680558Y-98124791D01*
X109680558Y-98124791D02*
X109666272Y-98153362D01*
X109666272Y-98153362D02*
X109651987Y-98167648D01*
X109651987Y-98167648D02*
X109623415Y-98181934D01*
X109623415Y-98181934D02*
X109537701Y-98181934D01*
X109537701Y-98181934D02*
X109509129Y-98167648D01*
X109509129Y-98167648D02*
X109494844Y-98153362D01*
X134423415Y-80401934D02*
X134423415Y-80101934D01*
X134623415Y-80101934D02*
X134680558Y-80101934D01*
X134680558Y-80101934D02*
X134709129Y-80116220D01*
X134709129Y-80116220D02*
X134737701Y-80144791D01*
X134737701Y-80144791D02*
X134751986Y-80201934D01*
X134751986Y-80201934D02*
X134751986Y-80301934D01*
X134751986Y-80301934D02*
X134737701Y-80359077D01*
X134737701Y-80359077D02*
X134709129Y-80387648D01*
X134709129Y-80387648D02*
X134680558Y-80401934D01*
X134680558Y-80401934D02*
X134623415Y-80401934D01*
X134623415Y-80401934D02*
X134594844Y-80387648D01*
X134594844Y-80387648D02*
X134566272Y-80359077D01*
X134566272Y-80359077D02*
X134551986Y-80301934D01*
X134551986Y-80301934D02*
X134551986Y-80201934D01*
X134551986Y-80201934D02*
X134566272Y-80144791D01*
X134566272Y-80144791D02*
X134594844Y-80116220D01*
X134594844Y-80116220D02*
X134623415Y-80101934D01*
X135009130Y-80201934D02*
X135009130Y-80401934D01*
X134937701Y-80087648D02*
X134866272Y-80301934D01*
X134866272Y-80301934D02*
X135051987Y-80301934D01*
X144504843Y-98024791D02*
X144404843Y-98024791D01*
X144404843Y-98181934D02*
X144404843Y-97881934D01*
X144404843Y-97881934D02*
X144547700Y-97881934D01*
X144833415Y-98181934D02*
X144733415Y-98039077D01*
X144661986Y-98181934D02*
X144661986Y-97881934D01*
X144661986Y-97881934D02*
X144776272Y-97881934D01*
X144776272Y-97881934D02*
X144804843Y-97896220D01*
X144804843Y-97896220D02*
X144819129Y-97910505D01*
X144819129Y-97910505D02*
X144833415Y-97939077D01*
X144833415Y-97939077D02*
X144833415Y-97981934D01*
X144833415Y-97981934D02*
X144819129Y-98010505D01*
X144819129Y-98010505D02*
X144804843Y-98024791D01*
X144804843Y-98024791D02*
X144776272Y-98039077D01*
X144776272Y-98039077D02*
X144661986Y-98039077D01*
X144961986Y-98024791D02*
X145061986Y-98024791D01*
X145104843Y-98181934D02*
X144961986Y-98181934D01*
X144961986Y-98181934D02*
X144961986Y-97881934D01*
X144961986Y-97881934D02*
X145104843Y-97881934D01*
X145233415Y-98024791D02*
X145333415Y-98024791D01*
X145376272Y-98181934D02*
X145233415Y-98181934D01*
X145233415Y-98181934D02*
X145233415Y-97881934D01*
X145233415Y-97881934D02*
X145376272Y-97881934D01*
X142114844Y-97881934D02*
X142286273Y-97881934D01*
X142200558Y-98181934D02*
X142200558Y-97881934D01*
X142357701Y-97881934D02*
X142557701Y-98181934D01*
X142557701Y-97881934D02*
X142357701Y-98181934D01*
X126889129Y-98096220D02*
X127031987Y-98096220D01*
X126860558Y-98181934D02*
X126960558Y-97881934D01*
X126960558Y-97881934D02*
X127060558Y-98181934D01*
X127289130Y-97981934D02*
X127289130Y-98181934D01*
X127217701Y-97867648D02*
X127146272Y-98081934D01*
X127146272Y-98081934D02*
X127331987Y-98081934D01*
X111627700Y-98181934D02*
X111627700Y-97881934D01*
X111627700Y-97881934D02*
X111799129Y-98181934D01*
X111799129Y-98181934D02*
X111799129Y-97881934D01*
X112113415Y-98153362D02*
X112099129Y-98167648D01*
X112099129Y-98167648D02*
X112056272Y-98181934D01*
X112056272Y-98181934D02*
X112027700Y-98181934D01*
X112027700Y-98181934D02*
X111984843Y-98167648D01*
X111984843Y-98167648D02*
X111956272Y-98139077D01*
X111956272Y-98139077D02*
X111941986Y-98110505D01*
X111941986Y-98110505D02*
X111927700Y-98053362D01*
X111927700Y-98053362D02*
X111927700Y-98010505D01*
X111927700Y-98010505D02*
X111941986Y-97953362D01*
X111941986Y-97953362D02*
X111956272Y-97924791D01*
X111956272Y-97924791D02*
X111984843Y-97896220D01*
X111984843Y-97896220D02*
X112027700Y-97881934D01*
X112027700Y-97881934D02*
X112056272Y-97881934D01*
X112056272Y-97881934D02*
X112099129Y-97896220D01*
X112099129Y-97896220D02*
X112113415Y-97910505D01*
X129343415Y-80401934D02*
X129343415Y-80101934D01*
X129543415Y-80101934D02*
X129600558Y-80101934D01*
X129600558Y-80101934D02*
X129629129Y-80116220D01*
X129629129Y-80116220D02*
X129657701Y-80144791D01*
X129657701Y-80144791D02*
X129671986Y-80201934D01*
X129671986Y-80201934D02*
X129671986Y-80301934D01*
X129671986Y-80301934D02*
X129657701Y-80359077D01*
X129657701Y-80359077D02*
X129629129Y-80387648D01*
X129629129Y-80387648D02*
X129600558Y-80401934D01*
X129600558Y-80401934D02*
X129543415Y-80401934D01*
X129543415Y-80401934D02*
X129514844Y-80387648D01*
X129514844Y-80387648D02*
X129486272Y-80359077D01*
X129486272Y-80359077D02*
X129471986Y-80301934D01*
X129471986Y-80301934D02*
X129471986Y-80201934D01*
X129471986Y-80201934D02*
X129486272Y-80144791D01*
X129486272Y-80144791D02*
X129514844Y-80116220D01*
X129514844Y-80116220D02*
X129543415Y-80101934D01*
X129786272Y-80130505D02*
X129800558Y-80116220D01*
X129800558Y-80116220D02*
X129829130Y-80101934D01*
X129829130Y-80101934D02*
X129900558Y-80101934D01*
X129900558Y-80101934D02*
X129929130Y-80116220D01*
X129929130Y-80116220D02*
X129943415Y-80130505D01*
X129943415Y-80130505D02*
X129957701Y-80159077D01*
X129957701Y-80159077D02*
X129957701Y-80187648D01*
X129957701Y-80187648D02*
X129943415Y-80230505D01*
X129943415Y-80230505D02*
X129771987Y-80401934D01*
X129771987Y-80401934D02*
X129957701Y-80401934D01*
X121809129Y-98096220D02*
X121951987Y-98096220D01*
X121780558Y-98181934D02*
X121880558Y-97881934D01*
X121880558Y-97881934D02*
X121980558Y-98181934D01*
X122066272Y-97910505D02*
X122080558Y-97896220D01*
X122080558Y-97896220D02*
X122109130Y-97881934D01*
X122109130Y-97881934D02*
X122180558Y-97881934D01*
X122180558Y-97881934D02*
X122209130Y-97896220D01*
X122209130Y-97896220D02*
X122223415Y-97910505D01*
X122223415Y-97910505D02*
X122237701Y-97939077D01*
X122237701Y-97939077D02*
X122237701Y-97967648D01*
X122237701Y-97967648D02*
X122223415Y-98010505D01*
X122223415Y-98010505D02*
X122051987Y-98181934D01*
X122051987Y-98181934D02*
X122237701Y-98181934D01*
X116729129Y-98096220D02*
X116871987Y-98096220D01*
X116700558Y-98181934D02*
X116800558Y-97881934D01*
X116800558Y-97881934D02*
X116900558Y-98181934D01*
X117057701Y-97881934D02*
X117086272Y-97881934D01*
X117086272Y-97881934D02*
X117114844Y-97896220D01*
X117114844Y-97896220D02*
X117129130Y-97910505D01*
X117129130Y-97910505D02*
X117143415Y-97939077D01*
X117143415Y-97939077D02*
X117157701Y-97996220D01*
X117157701Y-97996220D02*
X117157701Y-98067648D01*
X117157701Y-98067648D02*
X117143415Y-98124791D01*
X117143415Y-98124791D02*
X117129130Y-98153362D01*
X117129130Y-98153362D02*
X117114844Y-98167648D01*
X117114844Y-98167648D02*
X117086272Y-98181934D01*
X117086272Y-98181934D02*
X117057701Y-98181934D01*
X117057701Y-98181934D02*
X117029130Y-98167648D01*
X117029130Y-98167648D02*
X117014844Y-98153362D01*
X117014844Y-98153362D02*
X117000558Y-98124791D01*
X117000558Y-98124791D02*
X116986272Y-98067648D01*
X116986272Y-98067648D02*
X116986272Y-97996220D01*
X116986272Y-97996220D02*
X117000558Y-97939077D01*
X117000558Y-97939077D02*
X117014844Y-97910505D01*
X117014844Y-97910505D02*
X117029130Y-97896220D01*
X117029130Y-97896220D02*
X117057701Y-97881934D01*
X136806272Y-98181934D02*
X136806272Y-97881934D01*
X136806272Y-97881934D02*
X136920558Y-97881934D01*
X136920558Y-97881934D02*
X136949129Y-97896220D01*
X136949129Y-97896220D02*
X136963415Y-97910505D01*
X136963415Y-97910505D02*
X136977701Y-97939077D01*
X136977701Y-97939077D02*
X136977701Y-97981934D01*
X136977701Y-97981934D02*
X136963415Y-98010505D01*
X136963415Y-98010505D02*
X136949129Y-98024791D01*
X136949129Y-98024791D02*
X136920558Y-98039077D01*
X136920558Y-98039077D02*
X136806272Y-98039077D01*
X137163415Y-97881934D02*
X137220558Y-97881934D01*
X137220558Y-97881934D02*
X137249129Y-97896220D01*
X137249129Y-97896220D02*
X137277701Y-97924791D01*
X137277701Y-97924791D02*
X137291986Y-97981934D01*
X137291986Y-97981934D02*
X137291986Y-98081934D01*
X137291986Y-98081934D02*
X137277701Y-98139077D01*
X137277701Y-98139077D02*
X137249129Y-98167648D01*
X137249129Y-98167648D02*
X137220558Y-98181934D01*
X137220558Y-98181934D02*
X137163415Y-98181934D01*
X137163415Y-98181934D02*
X137134844Y-98167648D01*
X137134844Y-98167648D02*
X137106272Y-98139077D01*
X137106272Y-98139077D02*
X137091986Y-98081934D01*
X137091986Y-98081934D02*
X137091986Y-97981934D01*
X137091986Y-97981934D02*
X137106272Y-97924791D01*
X137106272Y-97924791D02*
X137134844Y-97896220D01*
X137134844Y-97896220D02*
X137163415Y-97881934D01*
X137591987Y-98153362D02*
X137577701Y-98167648D01*
X137577701Y-98167648D02*
X137534844Y-98181934D01*
X137534844Y-98181934D02*
X137506272Y-98181934D01*
X137506272Y-98181934D02*
X137463415Y-98167648D01*
X137463415Y-98167648D02*
X137434844Y-98139077D01*
X137434844Y-98139077D02*
X137420558Y-98110505D01*
X137420558Y-98110505D02*
X137406272Y-98053362D01*
X137406272Y-98053362D02*
X137406272Y-98010505D01*
X137406272Y-98010505D02*
X137420558Y-97953362D01*
X137420558Y-97953362D02*
X137434844Y-97924791D01*
X137434844Y-97924791D02*
X137463415Y-97896220D01*
X137463415Y-97896220D02*
X137506272Y-97881934D01*
X137506272Y-97881934D02*
X137534844Y-97881934D01*
X137534844Y-97881934D02*
X137577701Y-97896220D01*
X137577701Y-97896220D02*
X137591987Y-97910505D01*
X137720558Y-98181934D02*
X137720558Y-97881934D01*
X124263415Y-80401934D02*
X124263415Y-80101934D01*
X124463415Y-80101934D02*
X124520558Y-80101934D01*
X124520558Y-80101934D02*
X124549129Y-80116220D01*
X124549129Y-80116220D02*
X124577701Y-80144791D01*
X124577701Y-80144791D02*
X124591986Y-80201934D01*
X124591986Y-80201934D02*
X124591986Y-80301934D01*
X124591986Y-80301934D02*
X124577701Y-80359077D01*
X124577701Y-80359077D02*
X124549129Y-80387648D01*
X124549129Y-80387648D02*
X124520558Y-80401934D01*
X124520558Y-80401934D02*
X124463415Y-80401934D01*
X124463415Y-80401934D02*
X124434844Y-80387648D01*
X124434844Y-80387648D02*
X124406272Y-80359077D01*
X124406272Y-80359077D02*
X124391986Y-80301934D01*
X124391986Y-80301934D02*
X124391986Y-80201934D01*
X124391986Y-80201934D02*
X124406272Y-80144791D01*
X124406272Y-80144791D02*
X124434844Y-80116220D01*
X124434844Y-80116220D02*
X124463415Y-80101934D01*
X124777701Y-80101934D02*
X124806272Y-80101934D01*
X124806272Y-80101934D02*
X124834844Y-80116220D01*
X124834844Y-80116220D02*
X124849130Y-80130505D01*
X124849130Y-80130505D02*
X124863415Y-80159077D01*
X124863415Y-80159077D02*
X124877701Y-80216220D01*
X124877701Y-80216220D02*
X124877701Y-80287648D01*
X124877701Y-80287648D02*
X124863415Y-80344791D01*
X124863415Y-80344791D02*
X124849130Y-80373362D01*
X124849130Y-80373362D02*
X124834844Y-80387648D01*
X124834844Y-80387648D02*
X124806272Y-80401934D01*
X124806272Y-80401934D02*
X124777701Y-80401934D01*
X124777701Y-80401934D02*
X124749130Y-80387648D01*
X124749130Y-80387648D02*
X124734844Y-80373362D01*
X124734844Y-80373362D02*
X124720558Y-80344791D01*
X124720558Y-80344791D02*
X124706272Y-80287648D01*
X124706272Y-80287648D02*
X124706272Y-80216220D01*
X124706272Y-80216220D02*
X124720558Y-80159077D01*
X124720558Y-80159077D02*
X124734844Y-80130505D01*
X124734844Y-80130505D02*
X124749130Y-80116220D01*
X124749130Y-80116220D02*
X124777701Y-80101934D01*
X119261986Y-80244791D02*
X119361986Y-80244791D01*
X119404843Y-80401934D02*
X119261986Y-80401934D01*
X119261986Y-80401934D02*
X119261986Y-80101934D01*
X119261986Y-80101934D02*
X119404843Y-80101934D01*
X119533415Y-80401934D02*
X119533415Y-80101934D01*
X119533415Y-80101934D02*
X119704844Y-80401934D01*
X119704844Y-80401934D02*
X119704844Y-80101934D01*
X144519129Y-80387648D02*
X144561987Y-80401934D01*
X144561987Y-80401934D02*
X144633415Y-80401934D01*
X144633415Y-80401934D02*
X144661987Y-80387648D01*
X144661987Y-80387648D02*
X144676272Y-80373362D01*
X144676272Y-80373362D02*
X144690558Y-80344791D01*
X144690558Y-80344791D02*
X144690558Y-80316220D01*
X144690558Y-80316220D02*
X144676272Y-80287648D01*
X144676272Y-80287648D02*
X144661987Y-80273362D01*
X144661987Y-80273362D02*
X144633415Y-80259077D01*
X144633415Y-80259077D02*
X144576272Y-80244791D01*
X144576272Y-80244791D02*
X144547701Y-80230505D01*
X144547701Y-80230505D02*
X144533415Y-80216220D01*
X144533415Y-80216220D02*
X144519129Y-80187648D01*
X144519129Y-80187648D02*
X144519129Y-80159077D01*
X144519129Y-80159077D02*
X144533415Y-80130505D01*
X144533415Y-80130505D02*
X144547701Y-80116220D01*
X144547701Y-80116220D02*
X144576272Y-80101934D01*
X144576272Y-80101934D02*
X144647701Y-80101934D01*
X144647701Y-80101934D02*
X144690558Y-80116220D01*
X144819129Y-80401934D02*
X144819129Y-80101934D01*
X144819129Y-80101934D02*
X144890558Y-80101934D01*
X144890558Y-80101934D02*
X144933415Y-80116220D01*
X144933415Y-80116220D02*
X144961986Y-80144791D01*
X144961986Y-80144791D02*
X144976272Y-80173362D01*
X144976272Y-80173362D02*
X144990558Y-80230505D01*
X144990558Y-80230505D02*
X144990558Y-80273362D01*
X144990558Y-80273362D02*
X144976272Y-80330505D01*
X144976272Y-80330505D02*
X144961986Y-80359077D01*
X144961986Y-80359077D02*
X144933415Y-80387648D01*
X144933415Y-80387648D02*
X144890558Y-80401934D01*
X144890558Y-80401934D02*
X144819129Y-80401934D01*
X145104843Y-80316220D02*
X145247701Y-80316220D01*
X145076272Y-80401934D02*
X145176272Y-80101934D01*
X145176272Y-80101934D02*
X145276272Y-80401934D01*
X141986272Y-80387648D02*
X142029130Y-80401934D01*
X142029130Y-80401934D02*
X142100558Y-80401934D01*
X142100558Y-80401934D02*
X142129130Y-80387648D01*
X142129130Y-80387648D02*
X142143415Y-80373362D01*
X142143415Y-80373362D02*
X142157701Y-80344791D01*
X142157701Y-80344791D02*
X142157701Y-80316220D01*
X142157701Y-80316220D02*
X142143415Y-80287648D01*
X142143415Y-80287648D02*
X142129130Y-80273362D01*
X142129130Y-80273362D02*
X142100558Y-80259077D01*
X142100558Y-80259077D02*
X142043415Y-80244791D01*
X142043415Y-80244791D02*
X142014844Y-80230505D01*
X142014844Y-80230505D02*
X142000558Y-80216220D01*
X142000558Y-80216220D02*
X141986272Y-80187648D01*
X141986272Y-80187648D02*
X141986272Y-80159077D01*
X141986272Y-80159077D02*
X142000558Y-80130505D01*
X142000558Y-80130505D02*
X142014844Y-80116220D01*
X142014844Y-80116220D02*
X142043415Y-80101934D01*
X142043415Y-80101934D02*
X142114844Y-80101934D01*
X142114844Y-80101934D02*
X142157701Y-80116220D01*
X142457701Y-80373362D02*
X142443415Y-80387648D01*
X142443415Y-80387648D02*
X142400558Y-80401934D01*
X142400558Y-80401934D02*
X142371986Y-80401934D01*
X142371986Y-80401934D02*
X142329129Y-80387648D01*
X142329129Y-80387648D02*
X142300558Y-80359077D01*
X142300558Y-80359077D02*
X142286272Y-80330505D01*
X142286272Y-80330505D02*
X142271986Y-80273362D01*
X142271986Y-80273362D02*
X142271986Y-80230505D01*
X142271986Y-80230505D02*
X142286272Y-80173362D01*
X142286272Y-80173362D02*
X142300558Y-80144791D01*
X142300558Y-80144791D02*
X142329129Y-80116220D01*
X142329129Y-80116220D02*
X142371986Y-80101934D01*
X142371986Y-80101934D02*
X142400558Y-80101934D01*
X142400558Y-80101934D02*
X142443415Y-80116220D01*
X142443415Y-80116220D02*
X142457701Y-80130505D01*
X142729129Y-80401934D02*
X142586272Y-80401934D01*
X142586272Y-80401934D02*
X142586272Y-80101934D01*
X114174843Y-97896220D02*
X114146272Y-97881934D01*
X114146272Y-97881934D02*
X114103414Y-97881934D01*
X114103414Y-97881934D02*
X114060557Y-97896220D01*
X114060557Y-97896220D02*
X114031986Y-97924791D01*
X114031986Y-97924791D02*
X114017700Y-97953362D01*
X114017700Y-97953362D02*
X114003414Y-98010505D01*
X114003414Y-98010505D02*
X114003414Y-98053362D01*
X114003414Y-98053362D02*
X114017700Y-98110505D01*
X114017700Y-98110505D02*
X114031986Y-98139077D01*
X114031986Y-98139077D02*
X114060557Y-98167648D01*
X114060557Y-98167648D02*
X114103414Y-98181934D01*
X114103414Y-98181934D02*
X114131986Y-98181934D01*
X114131986Y-98181934D02*
X114174843Y-98167648D01*
X114174843Y-98167648D02*
X114189129Y-98153362D01*
X114189129Y-98153362D02*
X114189129Y-98053362D01*
X114189129Y-98053362D02*
X114131986Y-98053362D01*
X114317700Y-98181934D02*
X114317700Y-97881934D01*
X114317700Y-97881934D02*
X114489129Y-98181934D01*
X114489129Y-98181934D02*
X114489129Y-97881934D01*
X114631986Y-98181934D02*
X114631986Y-97881934D01*
X114631986Y-97881934D02*
X114703415Y-97881934D01*
X114703415Y-97881934D02*
X114746272Y-97896220D01*
X114746272Y-97896220D02*
X114774843Y-97924791D01*
X114774843Y-97924791D02*
X114789129Y-97953362D01*
X114789129Y-97953362D02*
X114803415Y-98010505D01*
X114803415Y-98010505D02*
X114803415Y-98053362D01*
X114803415Y-98053362D02*
X114789129Y-98110505D01*
X114789129Y-98110505D02*
X114774843Y-98139077D01*
X114774843Y-98139077D02*
X114746272Y-98167648D01*
X114746272Y-98167648D02*
X114703415Y-98181934D01*
X114703415Y-98181934D02*
X114631986Y-98181934D01*
X134266272Y-98181934D02*
X134266272Y-97881934D01*
X134266272Y-97881934D02*
X134380558Y-97881934D01*
X134380558Y-97881934D02*
X134409129Y-97896220D01*
X134409129Y-97896220D02*
X134423415Y-97910505D01*
X134423415Y-97910505D02*
X134437701Y-97939077D01*
X134437701Y-97939077D02*
X134437701Y-97981934D01*
X134437701Y-97981934D02*
X134423415Y-98010505D01*
X134423415Y-98010505D02*
X134409129Y-98024791D01*
X134409129Y-98024791D02*
X134380558Y-98039077D01*
X134380558Y-98039077D02*
X134266272Y-98039077D01*
X134566272Y-98181934D02*
X134566272Y-97881934D01*
X134880558Y-98153362D02*
X134866272Y-98167648D01*
X134866272Y-98167648D02*
X134823415Y-98181934D01*
X134823415Y-98181934D02*
X134794843Y-98181934D01*
X134794843Y-98181934D02*
X134751986Y-98167648D01*
X134751986Y-98167648D02*
X134723415Y-98139077D01*
X134723415Y-98139077D02*
X134709129Y-98110505D01*
X134709129Y-98110505D02*
X134694843Y-98053362D01*
X134694843Y-98053362D02*
X134694843Y-98010505D01*
X134694843Y-98010505D02*
X134709129Y-97953362D01*
X134709129Y-97953362D02*
X134723415Y-97924791D01*
X134723415Y-97924791D02*
X134751986Y-97896220D01*
X134751986Y-97896220D02*
X134794843Y-97881934D01*
X134794843Y-97881934D02*
X134823415Y-97881934D01*
X134823415Y-97881934D02*
X134866272Y-97896220D01*
X134866272Y-97896220D02*
X134880558Y-97910505D01*
X135066272Y-97881934D02*
X135123415Y-97881934D01*
X135123415Y-97881934D02*
X135151986Y-97896220D01*
X135151986Y-97896220D02*
X135180558Y-97924791D01*
X135180558Y-97924791D02*
X135194843Y-97981934D01*
X135194843Y-97981934D02*
X135194843Y-98081934D01*
X135194843Y-98081934D02*
X135180558Y-98139077D01*
X135180558Y-98139077D02*
X135151986Y-98167648D01*
X135151986Y-98167648D02*
X135123415Y-98181934D01*
X135123415Y-98181934D02*
X135066272Y-98181934D01*
X135066272Y-98181934D02*
X135037701Y-98167648D01*
X135037701Y-98167648D02*
X135009129Y-98139077D01*
X135009129Y-98139077D02*
X134994843Y-98081934D01*
X134994843Y-98081934D02*
X134994843Y-97981934D01*
X134994843Y-97981934D02*
X135009129Y-97924791D01*
X135009129Y-97924791D02*
X135037701Y-97896220D01*
X135037701Y-97896220D02*
X135066272Y-97881934D01*
X124349129Y-98096220D02*
X124491987Y-98096220D01*
X124320558Y-98181934D02*
X124420558Y-97881934D01*
X124420558Y-97881934D02*
X124520558Y-98181934D01*
X124591987Y-97881934D02*
X124777701Y-97881934D01*
X124777701Y-97881934D02*
X124677701Y-97996220D01*
X124677701Y-97996220D02*
X124720558Y-97996220D01*
X124720558Y-97996220D02*
X124749130Y-98010505D01*
X124749130Y-98010505D02*
X124763415Y-98024791D01*
X124763415Y-98024791D02*
X124777701Y-98053362D01*
X124777701Y-98053362D02*
X124777701Y-98124791D01*
X124777701Y-98124791D02*
X124763415Y-98153362D01*
X124763415Y-98153362D02*
X124749130Y-98167648D01*
X124749130Y-98167648D02*
X124720558Y-98181934D01*
X124720558Y-98181934D02*
X124634844Y-98181934D01*
X124634844Y-98181934D02*
X124606272Y-98167648D01*
X124606272Y-98167648D02*
X124591987Y-98153362D01*
X119269129Y-98096220D02*
X119411987Y-98096220D01*
X119240558Y-98181934D02*
X119340558Y-97881934D01*
X119340558Y-97881934D02*
X119440558Y-98181934D01*
X119697701Y-98181934D02*
X119526272Y-98181934D01*
X119611987Y-98181934D02*
X119611987Y-97881934D01*
X119611987Y-97881934D02*
X119583415Y-97924791D01*
X119583415Y-97924791D02*
X119554844Y-97953362D01*
X119554844Y-97953362D02*
X119526272Y-97967648D01*
X139753415Y-98181934D02*
X139653415Y-98039077D01*
X139581986Y-98181934D02*
X139581986Y-97881934D01*
X139581986Y-97881934D02*
X139696272Y-97881934D01*
X139696272Y-97881934D02*
X139724843Y-97896220D01*
X139724843Y-97896220D02*
X139739129Y-97910505D01*
X139739129Y-97910505D02*
X139753415Y-97939077D01*
X139753415Y-97939077D02*
X139753415Y-97981934D01*
X139753415Y-97981934D02*
X139739129Y-98010505D01*
X139739129Y-98010505D02*
X139724843Y-98024791D01*
X139724843Y-98024791D02*
X139696272Y-98039077D01*
X139696272Y-98039077D02*
X139581986Y-98039077D01*
X139853415Y-97881934D02*
X140053415Y-98181934D01*
X140053415Y-97881934D02*
X139853415Y-98181934D01*
X136963415Y-80401934D02*
X136963415Y-80101934D01*
X137163415Y-80101934D02*
X137220558Y-80101934D01*
X137220558Y-80101934D02*
X137249129Y-80116220D01*
X137249129Y-80116220D02*
X137277701Y-80144791D01*
X137277701Y-80144791D02*
X137291986Y-80201934D01*
X137291986Y-80201934D02*
X137291986Y-80301934D01*
X137291986Y-80301934D02*
X137277701Y-80359077D01*
X137277701Y-80359077D02*
X137249129Y-80387648D01*
X137249129Y-80387648D02*
X137220558Y-80401934D01*
X137220558Y-80401934D02*
X137163415Y-80401934D01*
X137163415Y-80401934D02*
X137134844Y-80387648D01*
X137134844Y-80387648D02*
X137106272Y-80359077D01*
X137106272Y-80359077D02*
X137091986Y-80301934D01*
X137091986Y-80301934D02*
X137091986Y-80201934D01*
X137091986Y-80201934D02*
X137106272Y-80144791D01*
X137106272Y-80144791D02*
X137134844Y-80116220D01*
X137134844Y-80116220D02*
X137163415Y-80101934D01*
X137563415Y-80101934D02*
X137420558Y-80101934D01*
X137420558Y-80101934D02*
X137406272Y-80244791D01*
X137406272Y-80244791D02*
X137420558Y-80230505D01*
X137420558Y-80230505D02*
X137449130Y-80216220D01*
X137449130Y-80216220D02*
X137520558Y-80216220D01*
X137520558Y-80216220D02*
X137549130Y-80230505D01*
X137549130Y-80230505D02*
X137563415Y-80244791D01*
X137563415Y-80244791D02*
X137577701Y-80273362D01*
X137577701Y-80273362D02*
X137577701Y-80344791D01*
X137577701Y-80344791D02*
X137563415Y-80373362D01*
X137563415Y-80373362D02*
X137549130Y-80387648D01*
X137549130Y-80387648D02*
X137520558Y-80401934D01*
X137520558Y-80401934D02*
X137449130Y-80401934D01*
X137449130Y-80401934D02*
X137420558Y-80387648D01*
X137420558Y-80387648D02*
X137406272Y-80373362D01*
X131883415Y-80401934D02*
X131883415Y-80101934D01*
X132083415Y-80101934D02*
X132140558Y-80101934D01*
X132140558Y-80101934D02*
X132169129Y-80116220D01*
X132169129Y-80116220D02*
X132197701Y-80144791D01*
X132197701Y-80144791D02*
X132211986Y-80201934D01*
X132211986Y-80201934D02*
X132211986Y-80301934D01*
X132211986Y-80301934D02*
X132197701Y-80359077D01*
X132197701Y-80359077D02*
X132169129Y-80387648D01*
X132169129Y-80387648D02*
X132140558Y-80401934D01*
X132140558Y-80401934D02*
X132083415Y-80401934D01*
X132083415Y-80401934D02*
X132054844Y-80387648D01*
X132054844Y-80387648D02*
X132026272Y-80359077D01*
X132026272Y-80359077D02*
X132011986Y-80301934D01*
X132011986Y-80301934D02*
X132011986Y-80201934D01*
X132011986Y-80201934D02*
X132026272Y-80144791D01*
X132026272Y-80144791D02*
X132054844Y-80116220D01*
X132054844Y-80116220D02*
X132083415Y-80101934D01*
X132311987Y-80101934D02*
X132497701Y-80101934D01*
X132497701Y-80101934D02*
X132397701Y-80216220D01*
X132397701Y-80216220D02*
X132440558Y-80216220D01*
X132440558Y-80216220D02*
X132469130Y-80230505D01*
X132469130Y-80230505D02*
X132483415Y-80244791D01*
X132483415Y-80244791D02*
X132497701Y-80273362D01*
X132497701Y-80273362D02*
X132497701Y-80344791D01*
X132497701Y-80344791D02*
X132483415Y-80373362D01*
X132483415Y-80373362D02*
X132469130Y-80387648D01*
X132469130Y-80387648D02*
X132440558Y-80401934D01*
X132440558Y-80401934D02*
X132354844Y-80401934D01*
X132354844Y-80401934D02*
X132326272Y-80387648D01*
X132326272Y-80387648D02*
X132311987Y-80373362D01*
X116336272Y-80101934D02*
X116436272Y-80401934D01*
X116436272Y-80401934D02*
X116536272Y-80101934D01*
X116736272Y-80244791D02*
X116779129Y-80259077D01*
X116779129Y-80259077D02*
X116793415Y-80273362D01*
X116793415Y-80273362D02*
X116807701Y-80301934D01*
X116807701Y-80301934D02*
X116807701Y-80344791D01*
X116807701Y-80344791D02*
X116793415Y-80373362D01*
X116793415Y-80373362D02*
X116779129Y-80387648D01*
X116779129Y-80387648D02*
X116750558Y-80401934D01*
X116750558Y-80401934D02*
X116636272Y-80401934D01*
X116636272Y-80401934D02*
X116636272Y-80101934D01*
X116636272Y-80101934D02*
X116736272Y-80101934D01*
X116736272Y-80101934D02*
X116764844Y-80116220D01*
X116764844Y-80116220D02*
X116779129Y-80130505D01*
X116779129Y-80130505D02*
X116793415Y-80159077D01*
X116793415Y-80159077D02*
X116793415Y-80187648D01*
X116793415Y-80187648D02*
X116779129Y-80216220D01*
X116779129Y-80216220D02*
X116764844Y-80230505D01*
X116764844Y-80230505D02*
X116736272Y-80244791D01*
X116736272Y-80244791D02*
X116636272Y-80244791D01*
X116921986Y-80316220D02*
X117064844Y-80316220D01*
X116893415Y-80401934D02*
X116993415Y-80101934D01*
X116993415Y-80101934D02*
X117093415Y-80401934D01*
X117150558Y-80101934D02*
X117321987Y-80101934D01*
X117236272Y-80401934D02*
X117236272Y-80101934D01*
X117379129Y-80101934D02*
X117550558Y-80101934D01*
X117464843Y-80401934D02*
X117464843Y-80101934D01*
X131797700Y-98167648D02*
X131840558Y-98181934D01*
X131840558Y-98181934D02*
X131911986Y-98181934D01*
X131911986Y-98181934D02*
X131940558Y-98167648D01*
X131940558Y-98167648D02*
X131954843Y-98153362D01*
X131954843Y-98153362D02*
X131969129Y-98124791D01*
X131969129Y-98124791D02*
X131969129Y-98096220D01*
X131969129Y-98096220D02*
X131954843Y-98067648D01*
X131954843Y-98067648D02*
X131940558Y-98053362D01*
X131940558Y-98053362D02*
X131911986Y-98039077D01*
X131911986Y-98039077D02*
X131854843Y-98024791D01*
X131854843Y-98024791D02*
X131826272Y-98010505D01*
X131826272Y-98010505D02*
X131811986Y-97996220D01*
X131811986Y-97996220D02*
X131797700Y-97967648D01*
X131797700Y-97967648D02*
X131797700Y-97939077D01*
X131797700Y-97939077D02*
X131811986Y-97910505D01*
X131811986Y-97910505D02*
X131826272Y-97896220D01*
X131826272Y-97896220D02*
X131854843Y-97881934D01*
X131854843Y-97881934D02*
X131926272Y-97881934D01*
X131926272Y-97881934D02*
X131969129Y-97896220D01*
X132269129Y-98153362D02*
X132254843Y-98167648D01*
X132254843Y-98167648D02*
X132211986Y-98181934D01*
X132211986Y-98181934D02*
X132183414Y-98181934D01*
X132183414Y-98181934D02*
X132140557Y-98167648D01*
X132140557Y-98167648D02*
X132111986Y-98139077D01*
X132111986Y-98139077D02*
X132097700Y-98110505D01*
X132097700Y-98110505D02*
X132083414Y-98053362D01*
X132083414Y-98053362D02*
X132083414Y-98010505D01*
X132083414Y-98010505D02*
X132097700Y-97953362D01*
X132097700Y-97953362D02*
X132111986Y-97924791D01*
X132111986Y-97924791D02*
X132140557Y-97896220D01*
X132140557Y-97896220D02*
X132183414Y-97881934D01*
X132183414Y-97881934D02*
X132211986Y-97881934D01*
X132211986Y-97881934D02*
X132254843Y-97896220D01*
X132254843Y-97896220D02*
X132269129Y-97910505D01*
X132397700Y-98181934D02*
X132397700Y-97881934D01*
X132569129Y-98181934D02*
X132440557Y-98010505D01*
X132569129Y-97881934D02*
X132397700Y-98053362D01*
X129429129Y-98096220D02*
X129571987Y-98096220D01*
X129400558Y-98181934D02*
X129500558Y-97881934D01*
X129500558Y-97881934D02*
X129600558Y-98181934D01*
X129843415Y-97881934D02*
X129700558Y-97881934D01*
X129700558Y-97881934D02*
X129686272Y-98024791D01*
X129686272Y-98024791D02*
X129700558Y-98010505D01*
X129700558Y-98010505D02*
X129729130Y-97996220D01*
X129729130Y-97996220D02*
X129800558Y-97996220D01*
X129800558Y-97996220D02*
X129829130Y-98010505D01*
X129829130Y-98010505D02*
X129843415Y-98024791D01*
X129843415Y-98024791D02*
X129857701Y-98053362D01*
X129857701Y-98053362D02*
X129857701Y-98124791D01*
X129857701Y-98124791D02*
X129843415Y-98153362D01*
X129843415Y-98153362D02*
X129829130Y-98167648D01*
X129829130Y-98167648D02*
X129800558Y-98181934D01*
X129800558Y-98181934D02*
X129729130Y-98181934D01*
X129729130Y-98181934D02*
X129700558Y-98167648D01*
X129700558Y-98167648D02*
X129686272Y-98153362D01*
D10*
%TO.C,R13*%
X157885714Y-102237380D02*
X158504761Y-102237380D01*
X158504761Y-102237380D02*
X158171428Y-102618333D01*
X158171428Y-102618333D02*
X158314285Y-102618333D01*
X158314285Y-102618333D02*
X158409523Y-102665952D01*
X158409523Y-102665952D02*
X158457142Y-102713571D01*
X158457142Y-102713571D02*
X158504761Y-102808809D01*
X158504761Y-102808809D02*
X158504761Y-103046904D01*
X158504761Y-103046904D02*
X158457142Y-103142142D01*
X158457142Y-103142142D02*
X158409523Y-103189761D01*
X158409523Y-103189761D02*
X158314285Y-103237380D01*
X158314285Y-103237380D02*
X158028571Y-103237380D01*
X158028571Y-103237380D02*
X157933333Y-103189761D01*
X157933333Y-103189761D02*
X157885714Y-103142142D01*
X158838095Y-102237380D02*
X159457142Y-102237380D01*
X159457142Y-102237380D02*
X159123809Y-102618333D01*
X159123809Y-102618333D02*
X159266666Y-102618333D01*
X159266666Y-102618333D02*
X159361904Y-102665952D01*
X159361904Y-102665952D02*
X159409523Y-102713571D01*
X159409523Y-102713571D02*
X159457142Y-102808809D01*
X159457142Y-102808809D02*
X159457142Y-103046904D01*
X159457142Y-103046904D02*
X159409523Y-103142142D01*
X159409523Y-103142142D02*
X159361904Y-103189761D01*
X159361904Y-103189761D02*
X159266666Y-103237380D01*
X159266666Y-103237380D02*
X158980952Y-103237380D01*
X158980952Y-103237380D02*
X158885714Y-103189761D01*
X158885714Y-103189761D02*
X158838095Y-103142142D01*
X159885714Y-103237380D02*
X159885714Y-102237380D01*
X159980952Y-102856428D02*
X160266666Y-103237380D01*
X160266666Y-102570714D02*
X159885714Y-102951666D01*
X158457142Y-100867380D02*
X158123809Y-100391190D01*
X157885714Y-100867380D02*
X157885714Y-99867380D01*
X157885714Y-99867380D02*
X158266666Y-99867380D01*
X158266666Y-99867380D02*
X158361904Y-99915000D01*
X158361904Y-99915000D02*
X158409523Y-99962619D01*
X158409523Y-99962619D02*
X158457142Y-100057857D01*
X158457142Y-100057857D02*
X158457142Y-100200714D01*
X158457142Y-100200714D02*
X158409523Y-100295952D01*
X158409523Y-100295952D02*
X158361904Y-100343571D01*
X158361904Y-100343571D02*
X158266666Y-100391190D01*
X158266666Y-100391190D02*
X157885714Y-100391190D01*
X159409523Y-100867380D02*
X158838095Y-100867380D01*
X159123809Y-100867380D02*
X159123809Y-99867380D01*
X159123809Y-99867380D02*
X159028571Y-100010238D01*
X159028571Y-100010238D02*
X158933333Y-100105476D01*
X158933333Y-100105476D02*
X158838095Y-100153095D01*
X159742857Y-99867380D02*
X160361904Y-99867380D01*
X160361904Y-99867380D02*
X160028571Y-100248333D01*
X160028571Y-100248333D02*
X160171428Y-100248333D01*
X160171428Y-100248333D02*
X160266666Y-100295952D01*
X160266666Y-100295952D02*
X160314285Y-100343571D01*
X160314285Y-100343571D02*
X160361904Y-100438809D01*
X160361904Y-100438809D02*
X160361904Y-100676904D01*
X160361904Y-100676904D02*
X160314285Y-100772142D01*
X160314285Y-100772142D02*
X160266666Y-100819761D01*
X160266666Y-100819761D02*
X160171428Y-100867380D01*
X160171428Y-100867380D02*
X159885714Y-100867380D01*
X159885714Y-100867380D02*
X159790476Y-100819761D01*
X159790476Y-100819761D02*
X159742857Y-100772142D01*
%TO.C,J5*%
X101632619Y-136566666D02*
X100918333Y-136566666D01*
X100918333Y-136566666D02*
X100775476Y-136519047D01*
X100775476Y-136519047D02*
X100680238Y-136423809D01*
X100680238Y-136423809D02*
X100632619Y-136280952D01*
X100632619Y-136280952D02*
X100632619Y-136185714D01*
X101632619Y-137519047D02*
X101632619Y-137042857D01*
X101632619Y-137042857D02*
X101156428Y-136995238D01*
X101156428Y-136995238D02*
X101204047Y-137042857D01*
X101204047Y-137042857D02*
X101251666Y-137138095D01*
X101251666Y-137138095D02*
X101251666Y-137376190D01*
X101251666Y-137376190D02*
X101204047Y-137471428D01*
X101204047Y-137471428D02*
X101156428Y-137519047D01*
X101156428Y-137519047D02*
X101061190Y-137566666D01*
X101061190Y-137566666D02*
X100823095Y-137566666D01*
X100823095Y-137566666D02*
X100727857Y-137519047D01*
X100727857Y-137519047D02*
X100680238Y-137471428D01*
X100680238Y-137471428D02*
X100632619Y-137376190D01*
X100632619Y-137376190D02*
X100632619Y-137138095D01*
X100632619Y-137138095D02*
X100680238Y-137042857D01*
X100680238Y-137042857D02*
X100727857Y-136995238D01*
%TO.C,JP1*%
X99157380Y-116390476D02*
X99871666Y-116390476D01*
X99871666Y-116390476D02*
X100014523Y-116438095D01*
X100014523Y-116438095D02*
X100109761Y-116533333D01*
X100109761Y-116533333D02*
X100157380Y-116676190D01*
X100157380Y-116676190D02*
X100157380Y-116771428D01*
X99490714Y-115485714D02*
X100157380Y-115485714D01*
X99490714Y-115914285D02*
X100014523Y-115914285D01*
X100014523Y-115914285D02*
X100109761Y-115866666D01*
X100109761Y-115866666D02*
X100157380Y-115771428D01*
X100157380Y-115771428D02*
X100157380Y-115628571D01*
X100157380Y-115628571D02*
X100109761Y-115533333D01*
X100109761Y-115533333D02*
X100062142Y-115485714D01*
X100157380Y-115009523D02*
X99490714Y-115009523D01*
X99585952Y-115009523D02*
X99538333Y-114961904D01*
X99538333Y-114961904D02*
X99490714Y-114866666D01*
X99490714Y-114866666D02*
X99490714Y-114723809D01*
X99490714Y-114723809D02*
X99538333Y-114628571D01*
X99538333Y-114628571D02*
X99633571Y-114580952D01*
X99633571Y-114580952D02*
X100157380Y-114580952D01*
X99633571Y-114580952D02*
X99538333Y-114533333D01*
X99538333Y-114533333D02*
X99490714Y-114438095D01*
X99490714Y-114438095D02*
X99490714Y-114295238D01*
X99490714Y-114295238D02*
X99538333Y-114199999D01*
X99538333Y-114199999D02*
X99633571Y-114152380D01*
X99633571Y-114152380D02*
X100157380Y-114152380D01*
X99490714Y-113676190D02*
X100490714Y-113676190D01*
X99538333Y-113676190D02*
X99490714Y-113580952D01*
X99490714Y-113580952D02*
X99490714Y-113390476D01*
X99490714Y-113390476D02*
X99538333Y-113295238D01*
X99538333Y-113295238D02*
X99585952Y-113247619D01*
X99585952Y-113247619D02*
X99681190Y-113200000D01*
X99681190Y-113200000D02*
X99966904Y-113200000D01*
X99966904Y-113200000D02*
X100062142Y-113247619D01*
X100062142Y-113247619D02*
X100109761Y-113295238D01*
X100109761Y-113295238D02*
X100157380Y-113390476D01*
X100157380Y-113390476D02*
X100157380Y-113580952D01*
X100157380Y-113580952D02*
X100109761Y-113676190D01*
X100109761Y-112390476D02*
X100157380Y-112485714D01*
X100157380Y-112485714D02*
X100157380Y-112676190D01*
X100157380Y-112676190D02*
X100109761Y-112771428D01*
X100109761Y-112771428D02*
X100014523Y-112819047D01*
X100014523Y-112819047D02*
X99633571Y-112819047D01*
X99633571Y-112819047D02*
X99538333Y-112771428D01*
X99538333Y-112771428D02*
X99490714Y-112676190D01*
X99490714Y-112676190D02*
X99490714Y-112485714D01*
X99490714Y-112485714D02*
X99538333Y-112390476D01*
X99538333Y-112390476D02*
X99633571Y-112342857D01*
X99633571Y-112342857D02*
X99728809Y-112342857D01*
X99728809Y-112342857D02*
X99824047Y-112819047D01*
X100157380Y-111914285D02*
X99490714Y-111914285D01*
X99681190Y-111914285D02*
X99585952Y-111866666D01*
X99585952Y-111866666D02*
X99538333Y-111819047D01*
X99538333Y-111819047D02*
X99490714Y-111723809D01*
X99490714Y-111723809D02*
X99490714Y-111628571D01*
X100252619Y-111533333D02*
X100252619Y-110771428D01*
X99157380Y-110628570D02*
X99157380Y-110009523D01*
X99157380Y-110009523D02*
X99538333Y-110342856D01*
X99538333Y-110342856D02*
X99538333Y-110199999D01*
X99538333Y-110199999D02*
X99585952Y-110104761D01*
X99585952Y-110104761D02*
X99633571Y-110057142D01*
X99633571Y-110057142D02*
X99728809Y-110009523D01*
X99728809Y-110009523D02*
X99966904Y-110009523D01*
X99966904Y-110009523D02*
X100062142Y-110057142D01*
X100062142Y-110057142D02*
X100109761Y-110104761D01*
X100109761Y-110104761D02*
X100157380Y-110199999D01*
X100157380Y-110199999D02*
X100157380Y-110485713D01*
X100157380Y-110485713D02*
X100109761Y-110580951D01*
X100109761Y-110580951D02*
X100062142Y-110628570D01*
X100252619Y-109819047D02*
X100252619Y-109057142D01*
X99633571Y-108485713D02*
X99681190Y-108342856D01*
X99681190Y-108342856D02*
X99728809Y-108295237D01*
X99728809Y-108295237D02*
X99824047Y-108247618D01*
X99824047Y-108247618D02*
X99966904Y-108247618D01*
X99966904Y-108247618D02*
X100062142Y-108295237D01*
X100062142Y-108295237D02*
X100109761Y-108342856D01*
X100109761Y-108342856D02*
X100157380Y-108438094D01*
X100157380Y-108438094D02*
X100157380Y-108819046D01*
X100157380Y-108819046D02*
X99157380Y-108819046D01*
X99157380Y-108819046D02*
X99157380Y-108485713D01*
X99157380Y-108485713D02*
X99205000Y-108390475D01*
X99205000Y-108390475D02*
X99252619Y-108342856D01*
X99252619Y-108342856D02*
X99347857Y-108295237D01*
X99347857Y-108295237D02*
X99443095Y-108295237D01*
X99443095Y-108295237D02*
X99538333Y-108342856D01*
X99538333Y-108342856D02*
X99585952Y-108390475D01*
X99585952Y-108390475D02*
X99633571Y-108485713D01*
X99633571Y-108485713D02*
X99633571Y-108819046D01*
X100157380Y-107819046D02*
X99490714Y-107819046D01*
X99681190Y-107819046D02*
X99585952Y-107771427D01*
X99585952Y-107771427D02*
X99538333Y-107723808D01*
X99538333Y-107723808D02*
X99490714Y-107628570D01*
X99490714Y-107628570D02*
X99490714Y-107533332D01*
X100157380Y-107199998D02*
X99490714Y-107199998D01*
X99157380Y-107199998D02*
X99205000Y-107247617D01*
X99205000Y-107247617D02*
X99252619Y-107199998D01*
X99252619Y-107199998D02*
X99205000Y-107152379D01*
X99205000Y-107152379D02*
X99157380Y-107199998D01*
X99157380Y-107199998D02*
X99252619Y-107199998D01*
X100157380Y-106295237D02*
X99157380Y-106295237D01*
X100109761Y-106295237D02*
X100157380Y-106390475D01*
X100157380Y-106390475D02*
X100157380Y-106580951D01*
X100157380Y-106580951D02*
X100109761Y-106676189D01*
X100109761Y-106676189D02*
X100062142Y-106723808D01*
X100062142Y-106723808D02*
X99966904Y-106771427D01*
X99966904Y-106771427D02*
X99681190Y-106771427D01*
X99681190Y-106771427D02*
X99585952Y-106723808D01*
X99585952Y-106723808D02*
X99538333Y-106676189D01*
X99538333Y-106676189D02*
X99490714Y-106580951D01*
X99490714Y-106580951D02*
X99490714Y-106390475D01*
X99490714Y-106390475D02*
X99538333Y-106295237D01*
X99490714Y-105390475D02*
X100300238Y-105390475D01*
X100300238Y-105390475D02*
X100395476Y-105438094D01*
X100395476Y-105438094D02*
X100443095Y-105485713D01*
X100443095Y-105485713D02*
X100490714Y-105580951D01*
X100490714Y-105580951D02*
X100490714Y-105723808D01*
X100490714Y-105723808D02*
X100443095Y-105819046D01*
X100109761Y-105390475D02*
X100157380Y-105485713D01*
X100157380Y-105485713D02*
X100157380Y-105676189D01*
X100157380Y-105676189D02*
X100109761Y-105771427D01*
X100109761Y-105771427D02*
X100062142Y-105819046D01*
X100062142Y-105819046D02*
X99966904Y-105866665D01*
X99966904Y-105866665D02*
X99681190Y-105866665D01*
X99681190Y-105866665D02*
X99585952Y-105819046D01*
X99585952Y-105819046D02*
X99538333Y-105771427D01*
X99538333Y-105771427D02*
X99490714Y-105676189D01*
X99490714Y-105676189D02*
X99490714Y-105485713D01*
X99490714Y-105485713D02*
X99538333Y-105390475D01*
X100109761Y-104533332D02*
X100157380Y-104628570D01*
X100157380Y-104628570D02*
X100157380Y-104819046D01*
X100157380Y-104819046D02*
X100109761Y-104914284D01*
X100109761Y-104914284D02*
X100014523Y-104961903D01*
X100014523Y-104961903D02*
X99633571Y-104961903D01*
X99633571Y-104961903D02*
X99538333Y-104914284D01*
X99538333Y-104914284D02*
X99490714Y-104819046D01*
X99490714Y-104819046D02*
X99490714Y-104628570D01*
X99490714Y-104628570D02*
X99538333Y-104533332D01*
X99538333Y-104533332D02*
X99633571Y-104485713D01*
X99633571Y-104485713D02*
X99728809Y-104485713D01*
X99728809Y-104485713D02*
X99824047Y-104961903D01*
X100157380Y-103628570D02*
X99157380Y-103628570D01*
X100109761Y-103628570D02*
X100157380Y-103723808D01*
X100157380Y-103723808D02*
X100157380Y-103914284D01*
X100157380Y-103914284D02*
X100109761Y-104009522D01*
X100109761Y-104009522D02*
X100062142Y-104057141D01*
X100062142Y-104057141D02*
X99966904Y-104104760D01*
X99966904Y-104104760D02*
X99681190Y-104104760D01*
X99681190Y-104104760D02*
X99585952Y-104057141D01*
X99585952Y-104057141D02*
X99538333Y-104009522D01*
X99538333Y-104009522D02*
X99490714Y-103914284D01*
X99490714Y-103914284D02*
X99490714Y-103723808D01*
X99490714Y-103723808D02*
X99538333Y-103628570D01*
X100157380Y-102628570D02*
X100157380Y-103199998D01*
X100157380Y-102914284D02*
X99157380Y-102914284D01*
X99157380Y-102914284D02*
X99300238Y-103009522D01*
X99300238Y-103009522D02*
X99395476Y-103104760D01*
X99395476Y-103104760D02*
X99443095Y-103199998D01*
X99252619Y-102247617D02*
X99205000Y-102199998D01*
X99205000Y-102199998D02*
X99157380Y-102104760D01*
X99157380Y-102104760D02*
X99157380Y-101866665D01*
X99157380Y-101866665D02*
X99205000Y-101771427D01*
X99205000Y-101771427D02*
X99252619Y-101723808D01*
X99252619Y-101723808D02*
X99347857Y-101676189D01*
X99347857Y-101676189D02*
X99443095Y-101676189D01*
X99443095Y-101676189D02*
X99585952Y-101723808D01*
X99585952Y-101723808D02*
X100157380Y-102295236D01*
X100157380Y-102295236D02*
X100157380Y-101676189D01*
X103826666Y-108567380D02*
X103826666Y-109281666D01*
X103826666Y-109281666D02*
X103779047Y-109424523D01*
X103779047Y-109424523D02*
X103683809Y-109519761D01*
X103683809Y-109519761D02*
X103540952Y-109567380D01*
X103540952Y-109567380D02*
X103445714Y-109567380D01*
X104302857Y-109567380D02*
X104302857Y-108567380D01*
X104302857Y-108567380D02*
X104683809Y-108567380D01*
X104683809Y-108567380D02*
X104779047Y-108615000D01*
X104779047Y-108615000D02*
X104826666Y-108662619D01*
X104826666Y-108662619D02*
X104874285Y-108757857D01*
X104874285Y-108757857D02*
X104874285Y-108900714D01*
X104874285Y-108900714D02*
X104826666Y-108995952D01*
X104826666Y-108995952D02*
X104779047Y-109043571D01*
X104779047Y-109043571D02*
X104683809Y-109091190D01*
X104683809Y-109091190D02*
X104302857Y-109091190D01*
X105826666Y-109567380D02*
X105255238Y-109567380D01*
X105540952Y-109567380D02*
X105540952Y-108567380D01*
X105540952Y-108567380D02*
X105445714Y-108710238D01*
X105445714Y-108710238D02*
X105350476Y-108805476D01*
X105350476Y-108805476D02*
X105255238Y-108853095D01*
%TO.C,H2*%
X208574285Y-61327380D02*
X208574285Y-60327380D01*
X208574285Y-60327380D02*
X208907618Y-61041666D01*
X208907618Y-61041666D02*
X209240951Y-60327380D01*
X209240951Y-60327380D02*
X209240951Y-61327380D01*
X209859999Y-61327380D02*
X209764761Y-61279761D01*
X209764761Y-61279761D02*
X209717142Y-61232142D01*
X209717142Y-61232142D02*
X209669523Y-61136904D01*
X209669523Y-61136904D02*
X209669523Y-60851190D01*
X209669523Y-60851190D02*
X209717142Y-60755952D01*
X209717142Y-60755952D02*
X209764761Y-60708333D01*
X209764761Y-60708333D02*
X209859999Y-60660714D01*
X209859999Y-60660714D02*
X210002856Y-60660714D01*
X210002856Y-60660714D02*
X210098094Y-60708333D01*
X210098094Y-60708333D02*
X210145713Y-60755952D01*
X210145713Y-60755952D02*
X210193332Y-60851190D01*
X210193332Y-60851190D02*
X210193332Y-61136904D01*
X210193332Y-61136904D02*
X210145713Y-61232142D01*
X210145713Y-61232142D02*
X210098094Y-61279761D01*
X210098094Y-61279761D02*
X210002856Y-61327380D01*
X210002856Y-61327380D02*
X209859999Y-61327380D01*
X211050475Y-60660714D02*
X211050475Y-61327380D01*
X210621904Y-60660714D02*
X210621904Y-61184523D01*
X210621904Y-61184523D02*
X210669523Y-61279761D01*
X210669523Y-61279761D02*
X210764761Y-61327380D01*
X210764761Y-61327380D02*
X210907618Y-61327380D01*
X210907618Y-61327380D02*
X211002856Y-61279761D01*
X211002856Y-61279761D02*
X211050475Y-61232142D01*
X211526666Y-60660714D02*
X211526666Y-61327380D01*
X211526666Y-60755952D02*
X211574285Y-60708333D01*
X211574285Y-60708333D02*
X211669523Y-60660714D01*
X211669523Y-60660714D02*
X211812380Y-60660714D01*
X211812380Y-60660714D02*
X211907618Y-60708333D01*
X211907618Y-60708333D02*
X211955237Y-60803571D01*
X211955237Y-60803571D02*
X211955237Y-61327380D01*
X212288571Y-60660714D02*
X212669523Y-60660714D01*
X212431428Y-60327380D02*
X212431428Y-61184523D01*
X212431428Y-61184523D02*
X212479047Y-61279761D01*
X212479047Y-61279761D02*
X212574285Y-61327380D01*
X212574285Y-61327380D02*
X212669523Y-61327380D01*
X213002857Y-61327380D02*
X213002857Y-60660714D01*
X213002857Y-60327380D02*
X212955238Y-60375000D01*
X212955238Y-60375000D02*
X213002857Y-60422619D01*
X213002857Y-60422619D02*
X213050476Y-60375000D01*
X213050476Y-60375000D02*
X213002857Y-60327380D01*
X213002857Y-60327380D02*
X213002857Y-60422619D01*
X213479047Y-60660714D02*
X213479047Y-61327380D01*
X213479047Y-60755952D02*
X213526666Y-60708333D01*
X213526666Y-60708333D02*
X213621904Y-60660714D01*
X213621904Y-60660714D02*
X213764761Y-60660714D01*
X213764761Y-60660714D02*
X213859999Y-60708333D01*
X213859999Y-60708333D02*
X213907618Y-60803571D01*
X213907618Y-60803571D02*
X213907618Y-61327380D01*
X214812380Y-60660714D02*
X214812380Y-61470238D01*
X214812380Y-61470238D02*
X214764761Y-61565476D01*
X214764761Y-61565476D02*
X214717142Y-61613095D01*
X214717142Y-61613095D02*
X214621904Y-61660714D01*
X214621904Y-61660714D02*
X214479047Y-61660714D01*
X214479047Y-61660714D02*
X214383809Y-61613095D01*
X214812380Y-61279761D02*
X214717142Y-61327380D01*
X214717142Y-61327380D02*
X214526666Y-61327380D01*
X214526666Y-61327380D02*
X214431428Y-61279761D01*
X214431428Y-61279761D02*
X214383809Y-61232142D01*
X214383809Y-61232142D02*
X214336190Y-61136904D01*
X214336190Y-61136904D02*
X214336190Y-60851190D01*
X214336190Y-60851190D02*
X214383809Y-60755952D01*
X214383809Y-60755952D02*
X214431428Y-60708333D01*
X214431428Y-60708333D02*
X214526666Y-60660714D01*
X214526666Y-60660714D02*
X214717142Y-60660714D01*
X214717142Y-60660714D02*
X214812380Y-60708333D01*
X215288571Y-61327380D02*
X215288571Y-60327380D01*
X215288571Y-60803571D02*
X215859999Y-60803571D01*
X215859999Y-61327380D02*
X215859999Y-60327380D01*
X216479047Y-61327380D02*
X216383809Y-61279761D01*
X216383809Y-61279761D02*
X216336190Y-61232142D01*
X216336190Y-61232142D02*
X216288571Y-61136904D01*
X216288571Y-61136904D02*
X216288571Y-60851190D01*
X216288571Y-60851190D02*
X216336190Y-60755952D01*
X216336190Y-60755952D02*
X216383809Y-60708333D01*
X216383809Y-60708333D02*
X216479047Y-60660714D01*
X216479047Y-60660714D02*
X216621904Y-60660714D01*
X216621904Y-60660714D02*
X216717142Y-60708333D01*
X216717142Y-60708333D02*
X216764761Y-60755952D01*
X216764761Y-60755952D02*
X216812380Y-60851190D01*
X216812380Y-60851190D02*
X216812380Y-61136904D01*
X216812380Y-61136904D02*
X216764761Y-61232142D01*
X216764761Y-61232142D02*
X216717142Y-61279761D01*
X216717142Y-61279761D02*
X216621904Y-61327380D01*
X216621904Y-61327380D02*
X216479047Y-61327380D01*
X217383809Y-61327380D02*
X217288571Y-61279761D01*
X217288571Y-61279761D02*
X217240952Y-61184523D01*
X217240952Y-61184523D02*
X217240952Y-60327380D01*
X218145714Y-61279761D02*
X218050476Y-61327380D01*
X218050476Y-61327380D02*
X217860000Y-61327380D01*
X217860000Y-61327380D02*
X217764762Y-61279761D01*
X217764762Y-61279761D02*
X217717143Y-61184523D01*
X217717143Y-61184523D02*
X217717143Y-60803571D01*
X217717143Y-60803571D02*
X217764762Y-60708333D01*
X217764762Y-60708333D02*
X217860000Y-60660714D01*
X217860000Y-60660714D02*
X218050476Y-60660714D01*
X218050476Y-60660714D02*
X218145714Y-60708333D01*
X218145714Y-60708333D02*
X218193333Y-60803571D01*
X218193333Y-60803571D02*
X218193333Y-60898809D01*
X218193333Y-60898809D02*
X217717143Y-60994047D01*
X215348694Y-51379380D02*
X215348694Y-50379380D01*
X215348694Y-50855571D02*
X215920122Y-50855571D01*
X215920122Y-51379380D02*
X215920122Y-50379380D01*
X216348694Y-50474619D02*
X216396313Y-50427000D01*
X216396313Y-50427000D02*
X216491551Y-50379380D01*
X216491551Y-50379380D02*
X216729646Y-50379380D01*
X216729646Y-50379380D02*
X216824884Y-50427000D01*
X216824884Y-50427000D02*
X216872503Y-50474619D01*
X216872503Y-50474619D02*
X216920122Y-50569857D01*
X216920122Y-50569857D02*
X216920122Y-50665095D01*
X216920122Y-50665095D02*
X216872503Y-50807952D01*
X216872503Y-50807952D02*
X216301075Y-51379380D01*
X216301075Y-51379380D02*
X216920122Y-51379380D01*
%TO.C,J9*%
X119937017Y-106538095D02*
X119984636Y-106585714D01*
X119984636Y-106585714D02*
X120032255Y-106728571D01*
X120032255Y-106728571D02*
X120032255Y-106823809D01*
X120032255Y-106823809D02*
X119984636Y-106966666D01*
X119984636Y-106966666D02*
X119889398Y-107061904D01*
X119889398Y-107061904D02*
X119794160Y-107109523D01*
X119794160Y-107109523D02*
X119603684Y-107157142D01*
X119603684Y-107157142D02*
X119460827Y-107157142D01*
X119460827Y-107157142D02*
X119270351Y-107109523D01*
X119270351Y-107109523D02*
X119175113Y-107061904D01*
X119175113Y-107061904D02*
X119079875Y-106966666D01*
X119079875Y-106966666D02*
X119032255Y-106823809D01*
X119032255Y-106823809D02*
X119032255Y-106728571D01*
X119032255Y-106728571D02*
X119079875Y-106585714D01*
X119079875Y-106585714D02*
X119127494Y-106538095D01*
X120032255Y-105966666D02*
X119984636Y-106061904D01*
X119984636Y-106061904D02*
X119937017Y-106109523D01*
X119937017Y-106109523D02*
X119841779Y-106157142D01*
X119841779Y-106157142D02*
X119556065Y-106157142D01*
X119556065Y-106157142D02*
X119460827Y-106109523D01*
X119460827Y-106109523D02*
X119413208Y-106061904D01*
X119413208Y-106061904D02*
X119365589Y-105966666D01*
X119365589Y-105966666D02*
X119365589Y-105823809D01*
X119365589Y-105823809D02*
X119413208Y-105728571D01*
X119413208Y-105728571D02*
X119460827Y-105680952D01*
X119460827Y-105680952D02*
X119556065Y-105633333D01*
X119556065Y-105633333D02*
X119841779Y-105633333D01*
X119841779Y-105633333D02*
X119937017Y-105680952D01*
X119937017Y-105680952D02*
X119984636Y-105728571D01*
X119984636Y-105728571D02*
X120032255Y-105823809D01*
X120032255Y-105823809D02*
X120032255Y-105966666D01*
X119365589Y-105204761D02*
X120032255Y-105204761D01*
X119460827Y-105204761D02*
X119413208Y-105157142D01*
X119413208Y-105157142D02*
X119365589Y-105061904D01*
X119365589Y-105061904D02*
X119365589Y-104919047D01*
X119365589Y-104919047D02*
X119413208Y-104823809D01*
X119413208Y-104823809D02*
X119508446Y-104776190D01*
X119508446Y-104776190D02*
X120032255Y-104776190D01*
X119365589Y-104299999D02*
X120032255Y-104299999D01*
X119460827Y-104299999D02*
X119413208Y-104252380D01*
X119413208Y-104252380D02*
X119365589Y-104157142D01*
X119365589Y-104157142D02*
X119365589Y-104014285D01*
X119365589Y-104014285D02*
X119413208Y-103919047D01*
X119413208Y-103919047D02*
X119508446Y-103871428D01*
X119508446Y-103871428D02*
X120032255Y-103871428D01*
X120127494Y-103633333D02*
X120127494Y-102871428D01*
X119032255Y-102442856D02*
X119032255Y-102347618D01*
X119032255Y-102347618D02*
X119079875Y-102252380D01*
X119079875Y-102252380D02*
X119127494Y-102204761D01*
X119127494Y-102204761D02*
X119222732Y-102157142D01*
X119222732Y-102157142D02*
X119413208Y-102109523D01*
X119413208Y-102109523D02*
X119651303Y-102109523D01*
X119651303Y-102109523D02*
X119841779Y-102157142D01*
X119841779Y-102157142D02*
X119937017Y-102204761D01*
X119937017Y-102204761D02*
X119984636Y-102252380D01*
X119984636Y-102252380D02*
X120032255Y-102347618D01*
X120032255Y-102347618D02*
X120032255Y-102442856D01*
X120032255Y-102442856D02*
X119984636Y-102538094D01*
X119984636Y-102538094D02*
X119937017Y-102585713D01*
X119937017Y-102585713D02*
X119841779Y-102633332D01*
X119841779Y-102633332D02*
X119651303Y-102680951D01*
X119651303Y-102680951D02*
X119413208Y-102680951D01*
X119413208Y-102680951D02*
X119222732Y-102633332D01*
X119222732Y-102633332D02*
X119127494Y-102585713D01*
X119127494Y-102585713D02*
X119079875Y-102538094D01*
X119079875Y-102538094D02*
X119032255Y-102442856D01*
X120032255Y-101157142D02*
X120032255Y-101728570D01*
X120032255Y-101442856D02*
X119032255Y-101442856D01*
X119032255Y-101442856D02*
X119175113Y-101538094D01*
X119175113Y-101538094D02*
X119270351Y-101633332D01*
X119270351Y-101633332D02*
X119317970Y-101728570D01*
X120032255Y-100823808D02*
X119365589Y-100299999D01*
X119365589Y-100823808D02*
X120032255Y-100299999D01*
X119032255Y-99728570D02*
X119032255Y-99633332D01*
X119032255Y-99633332D02*
X119079875Y-99538094D01*
X119079875Y-99538094D02*
X119127494Y-99490475D01*
X119127494Y-99490475D02*
X119222732Y-99442856D01*
X119222732Y-99442856D02*
X119413208Y-99395237D01*
X119413208Y-99395237D02*
X119651303Y-99395237D01*
X119651303Y-99395237D02*
X119841779Y-99442856D01*
X119841779Y-99442856D02*
X119937017Y-99490475D01*
X119937017Y-99490475D02*
X119984636Y-99538094D01*
X119984636Y-99538094D02*
X120032255Y-99633332D01*
X120032255Y-99633332D02*
X120032255Y-99728570D01*
X120032255Y-99728570D02*
X119984636Y-99823808D01*
X119984636Y-99823808D02*
X119937017Y-99871427D01*
X119937017Y-99871427D02*
X119841779Y-99919046D01*
X119841779Y-99919046D02*
X119651303Y-99966665D01*
X119651303Y-99966665D02*
X119413208Y-99966665D01*
X119413208Y-99966665D02*
X119222732Y-99919046D01*
X119222732Y-99919046D02*
X119127494Y-99871427D01*
X119127494Y-99871427D02*
X119079875Y-99823808D01*
X119079875Y-99823808D02*
X119032255Y-99728570D01*
X119365589Y-98538094D02*
X120032255Y-98538094D01*
X118984636Y-98776189D02*
X119698922Y-99014284D01*
X119698922Y-99014284D02*
X119698922Y-98395237D01*
X125471541Y-102167380D02*
X125471541Y-102881666D01*
X125471541Y-102881666D02*
X125423922Y-103024523D01*
X125423922Y-103024523D02*
X125328684Y-103119761D01*
X125328684Y-103119761D02*
X125185827Y-103167380D01*
X125185827Y-103167380D02*
X125090589Y-103167380D01*
X125995351Y-103167380D02*
X126185827Y-103167380D01*
X126185827Y-103167380D02*
X126281065Y-103119761D01*
X126281065Y-103119761D02*
X126328684Y-103072142D01*
X126328684Y-103072142D02*
X126423922Y-102929285D01*
X126423922Y-102929285D02*
X126471541Y-102738809D01*
X126471541Y-102738809D02*
X126471541Y-102357857D01*
X126471541Y-102357857D02*
X126423922Y-102262619D01*
X126423922Y-102262619D02*
X126376303Y-102215000D01*
X126376303Y-102215000D02*
X126281065Y-102167380D01*
X126281065Y-102167380D02*
X126090589Y-102167380D01*
X126090589Y-102167380D02*
X125995351Y-102215000D01*
X125995351Y-102215000D02*
X125947732Y-102262619D01*
X125947732Y-102262619D02*
X125900113Y-102357857D01*
X125900113Y-102357857D02*
X125900113Y-102595952D01*
X125900113Y-102595952D02*
X125947732Y-102691190D01*
X125947732Y-102691190D02*
X125995351Y-102738809D01*
X125995351Y-102738809D02*
X126090589Y-102786428D01*
X126090589Y-102786428D02*
X126281065Y-102786428D01*
X126281065Y-102786428D02*
X126376303Y-102738809D01*
X126376303Y-102738809D02*
X126423922Y-102691190D01*
X126423922Y-102691190D02*
X126471541Y-102595952D01*
%TO.C,J1*%
X135389761Y-77857143D02*
X135437380Y-77714286D01*
X135437380Y-77714286D02*
X135437380Y-77476191D01*
X135437380Y-77476191D02*
X135389761Y-77380953D01*
X135389761Y-77380953D02*
X135342142Y-77333334D01*
X135342142Y-77333334D02*
X135246904Y-77285715D01*
X135246904Y-77285715D02*
X135151666Y-77285715D01*
X135151666Y-77285715D02*
X135056428Y-77333334D01*
X135056428Y-77333334D02*
X135008809Y-77380953D01*
X135008809Y-77380953D02*
X134961190Y-77476191D01*
X134961190Y-77476191D02*
X134913571Y-77666667D01*
X134913571Y-77666667D02*
X134865952Y-77761905D01*
X134865952Y-77761905D02*
X134818333Y-77809524D01*
X134818333Y-77809524D02*
X134723095Y-77857143D01*
X134723095Y-77857143D02*
X134627857Y-77857143D01*
X134627857Y-77857143D02*
X134532619Y-77809524D01*
X134532619Y-77809524D02*
X134485000Y-77761905D01*
X134485000Y-77761905D02*
X134437380Y-77666667D01*
X134437380Y-77666667D02*
X134437380Y-77428572D01*
X134437380Y-77428572D02*
X134485000Y-77285715D01*
X134770714Y-76857143D02*
X135770714Y-76857143D01*
X134818333Y-76857143D02*
X134770714Y-76761905D01*
X134770714Y-76761905D02*
X134770714Y-76571429D01*
X134770714Y-76571429D02*
X134818333Y-76476191D01*
X134818333Y-76476191D02*
X134865952Y-76428572D01*
X134865952Y-76428572D02*
X134961190Y-76380953D01*
X134961190Y-76380953D02*
X135246904Y-76380953D01*
X135246904Y-76380953D02*
X135342142Y-76428572D01*
X135342142Y-76428572D02*
X135389761Y-76476191D01*
X135389761Y-76476191D02*
X135437380Y-76571429D01*
X135437380Y-76571429D02*
X135437380Y-76761905D01*
X135437380Y-76761905D02*
X135389761Y-76857143D01*
X135437380Y-75523810D02*
X134913571Y-75523810D01*
X134913571Y-75523810D02*
X134818333Y-75571429D01*
X134818333Y-75571429D02*
X134770714Y-75666667D01*
X134770714Y-75666667D02*
X134770714Y-75857143D01*
X134770714Y-75857143D02*
X134818333Y-75952381D01*
X135389761Y-75523810D02*
X135437380Y-75619048D01*
X135437380Y-75619048D02*
X135437380Y-75857143D01*
X135437380Y-75857143D02*
X135389761Y-75952381D01*
X135389761Y-75952381D02*
X135294523Y-76000000D01*
X135294523Y-76000000D02*
X135199285Y-76000000D01*
X135199285Y-76000000D02*
X135104047Y-75952381D01*
X135104047Y-75952381D02*
X135056428Y-75857143D01*
X135056428Y-75857143D02*
X135056428Y-75619048D01*
X135056428Y-75619048D02*
X135008809Y-75523810D01*
X135437380Y-75047619D02*
X134770714Y-75047619D01*
X134961190Y-75047619D02*
X134865952Y-75000000D01*
X134865952Y-75000000D02*
X134818333Y-74952381D01*
X134818333Y-74952381D02*
X134770714Y-74857143D01*
X134770714Y-74857143D02*
X134770714Y-74761905D01*
X135437380Y-74428571D02*
X134437380Y-74428571D01*
X135056428Y-74333333D02*
X135437380Y-74047619D01*
X134770714Y-74047619D02*
X135151666Y-74428571D01*
X134770714Y-73761904D02*
X134770714Y-73380952D01*
X135437380Y-73619047D02*
X134580238Y-73619047D01*
X134580238Y-73619047D02*
X134485000Y-73571428D01*
X134485000Y-73571428D02*
X134437380Y-73476190D01*
X134437380Y-73476190D02*
X134437380Y-73380952D01*
X134770714Y-72619047D02*
X135437380Y-72619047D01*
X134770714Y-73047618D02*
X135294523Y-73047618D01*
X135294523Y-73047618D02*
X135389761Y-72999999D01*
X135389761Y-72999999D02*
X135437380Y-72904761D01*
X135437380Y-72904761D02*
X135437380Y-72761904D01*
X135437380Y-72761904D02*
X135389761Y-72666666D01*
X135389761Y-72666666D02*
X135342142Y-72619047D01*
X134770714Y-72142856D02*
X135437380Y-72142856D01*
X134865952Y-72142856D02*
X134818333Y-72095237D01*
X134818333Y-72095237D02*
X134770714Y-71999999D01*
X134770714Y-71999999D02*
X134770714Y-71857142D01*
X134770714Y-71857142D02*
X134818333Y-71761904D01*
X134818333Y-71761904D02*
X134913571Y-71714285D01*
X134913571Y-71714285D02*
X135437380Y-71714285D01*
X134437380Y-70780951D02*
X134437380Y-70209523D01*
X135437380Y-70495237D02*
X134437380Y-70495237D01*
X135437380Y-69733332D02*
X135389761Y-69828570D01*
X135389761Y-69828570D02*
X135342142Y-69876189D01*
X135342142Y-69876189D02*
X135246904Y-69923808D01*
X135246904Y-69923808D02*
X134961190Y-69923808D01*
X134961190Y-69923808D02*
X134865952Y-69876189D01*
X134865952Y-69876189D02*
X134818333Y-69828570D01*
X134818333Y-69828570D02*
X134770714Y-69733332D01*
X134770714Y-69733332D02*
X134770714Y-69590475D01*
X134770714Y-69590475D02*
X134818333Y-69495237D01*
X134818333Y-69495237D02*
X134865952Y-69447618D01*
X134865952Y-69447618D02*
X134961190Y-69399999D01*
X134961190Y-69399999D02*
X135246904Y-69399999D01*
X135246904Y-69399999D02*
X135342142Y-69447618D01*
X135342142Y-69447618D02*
X135389761Y-69495237D01*
X135389761Y-69495237D02*
X135437380Y-69590475D01*
X135437380Y-69590475D02*
X135437380Y-69733332D01*
X134913571Y-68638094D02*
X134913571Y-68971427D01*
X135437380Y-68971427D02*
X134437380Y-68971427D01*
X134437380Y-68971427D02*
X134437380Y-68495237D01*
X143416666Y-72567380D02*
X143416666Y-73281666D01*
X143416666Y-73281666D02*
X143369047Y-73424523D01*
X143369047Y-73424523D02*
X143273809Y-73519761D01*
X143273809Y-73519761D02*
X143130952Y-73567380D01*
X143130952Y-73567380D02*
X143035714Y-73567380D01*
X144416666Y-73567380D02*
X143845238Y-73567380D01*
X144130952Y-73567380D02*
X144130952Y-72567380D01*
X144130952Y-72567380D02*
X144035714Y-72710238D01*
X144035714Y-72710238D02*
X143940476Y-72805476D01*
X143940476Y-72805476D02*
X143845238Y-72853095D01*
%TO.C,PS2*%
X213497380Y-128195594D02*
X212497380Y-128195594D01*
X213497380Y-127147976D02*
X213021190Y-127481309D01*
X213497380Y-127719404D02*
X212497380Y-127719404D01*
X212497380Y-127719404D02*
X212497380Y-127338452D01*
X212497380Y-127338452D02*
X212545000Y-127243214D01*
X212545000Y-127243214D02*
X212592619Y-127195595D01*
X212592619Y-127195595D02*
X212687857Y-127147976D01*
X212687857Y-127147976D02*
X212830714Y-127147976D01*
X212830714Y-127147976D02*
X212925952Y-127195595D01*
X212925952Y-127195595D02*
X212973571Y-127243214D01*
X212973571Y-127243214D02*
X213021190Y-127338452D01*
X213021190Y-127338452D02*
X213021190Y-127719404D01*
X213497380Y-126719404D02*
X212497380Y-126719404D01*
X212497380Y-126719404D02*
X213211666Y-126386071D01*
X213211666Y-126386071D02*
X212497380Y-126052738D01*
X212497380Y-126052738D02*
X213497380Y-126052738D01*
X213116428Y-125576547D02*
X213116428Y-124814643D01*
X212497380Y-124147976D02*
X212497380Y-124052738D01*
X212497380Y-124052738D02*
X212545000Y-123957500D01*
X212545000Y-123957500D02*
X212592619Y-123909881D01*
X212592619Y-123909881D02*
X212687857Y-123862262D01*
X212687857Y-123862262D02*
X212878333Y-123814643D01*
X212878333Y-123814643D02*
X213116428Y-123814643D01*
X213116428Y-123814643D02*
X213306904Y-123862262D01*
X213306904Y-123862262D02*
X213402142Y-123909881D01*
X213402142Y-123909881D02*
X213449761Y-123957500D01*
X213449761Y-123957500D02*
X213497380Y-124052738D01*
X213497380Y-124052738D02*
X213497380Y-124147976D01*
X213497380Y-124147976D02*
X213449761Y-124243214D01*
X213449761Y-124243214D02*
X213402142Y-124290833D01*
X213402142Y-124290833D02*
X213306904Y-124338452D01*
X213306904Y-124338452D02*
X213116428Y-124386071D01*
X213116428Y-124386071D02*
X212878333Y-124386071D01*
X212878333Y-124386071D02*
X212687857Y-124338452D01*
X212687857Y-124338452D02*
X212592619Y-124290833D01*
X212592619Y-124290833D02*
X212545000Y-124243214D01*
X212545000Y-124243214D02*
X212497380Y-124147976D01*
X212497380Y-122909881D02*
X212497380Y-123386071D01*
X212497380Y-123386071D02*
X212973571Y-123433690D01*
X212973571Y-123433690D02*
X212925952Y-123386071D01*
X212925952Y-123386071D02*
X212878333Y-123290833D01*
X212878333Y-123290833D02*
X212878333Y-123052738D01*
X212878333Y-123052738D02*
X212925952Y-122957500D01*
X212925952Y-122957500D02*
X212973571Y-122909881D01*
X212973571Y-122909881D02*
X213068809Y-122862262D01*
X213068809Y-122862262D02*
X213306904Y-122862262D01*
X213306904Y-122862262D02*
X213402142Y-122909881D01*
X213402142Y-122909881D02*
X213449761Y-122957500D01*
X213449761Y-122957500D02*
X213497380Y-123052738D01*
X213497380Y-123052738D02*
X213497380Y-123290833D01*
X213497380Y-123290833D02*
X213449761Y-123386071D01*
X213449761Y-123386071D02*
X213402142Y-123433690D01*
X213116428Y-122433690D02*
X213116428Y-121671786D01*
X212497380Y-120719405D02*
X212497380Y-121195595D01*
X212497380Y-121195595D02*
X212973571Y-121243214D01*
X212973571Y-121243214D02*
X212925952Y-121195595D01*
X212925952Y-121195595D02*
X212878333Y-121100357D01*
X212878333Y-121100357D02*
X212878333Y-120862262D01*
X212878333Y-120862262D02*
X212925952Y-120767024D01*
X212925952Y-120767024D02*
X212973571Y-120719405D01*
X212973571Y-120719405D02*
X213068809Y-120671786D01*
X213068809Y-120671786D02*
X213306904Y-120671786D01*
X213306904Y-120671786D02*
X213402142Y-120719405D01*
X213402142Y-120719405D02*
X213449761Y-120767024D01*
X213449761Y-120767024D02*
X213497380Y-120862262D01*
X213497380Y-120862262D02*
X213497380Y-121100357D01*
X213497380Y-121100357D02*
X213449761Y-121195595D01*
X213449761Y-121195595D02*
X213402142Y-121243214D01*
X198377380Y-124951785D02*
X197377380Y-124951785D01*
X197377380Y-124951785D02*
X197377380Y-124570833D01*
X197377380Y-124570833D02*
X197425000Y-124475595D01*
X197425000Y-124475595D02*
X197472619Y-124427976D01*
X197472619Y-124427976D02*
X197567857Y-124380357D01*
X197567857Y-124380357D02*
X197710714Y-124380357D01*
X197710714Y-124380357D02*
X197805952Y-124427976D01*
X197805952Y-124427976D02*
X197853571Y-124475595D01*
X197853571Y-124475595D02*
X197901190Y-124570833D01*
X197901190Y-124570833D02*
X197901190Y-124951785D01*
X198329761Y-123999404D02*
X198377380Y-123856547D01*
X198377380Y-123856547D02*
X198377380Y-123618452D01*
X198377380Y-123618452D02*
X198329761Y-123523214D01*
X198329761Y-123523214D02*
X198282142Y-123475595D01*
X198282142Y-123475595D02*
X198186904Y-123427976D01*
X198186904Y-123427976D02*
X198091666Y-123427976D01*
X198091666Y-123427976D02*
X197996428Y-123475595D01*
X197996428Y-123475595D02*
X197948809Y-123523214D01*
X197948809Y-123523214D02*
X197901190Y-123618452D01*
X197901190Y-123618452D02*
X197853571Y-123808928D01*
X197853571Y-123808928D02*
X197805952Y-123904166D01*
X197805952Y-123904166D02*
X197758333Y-123951785D01*
X197758333Y-123951785D02*
X197663095Y-123999404D01*
X197663095Y-123999404D02*
X197567857Y-123999404D01*
X197567857Y-123999404D02*
X197472619Y-123951785D01*
X197472619Y-123951785D02*
X197425000Y-123904166D01*
X197425000Y-123904166D02*
X197377380Y-123808928D01*
X197377380Y-123808928D02*
X197377380Y-123570833D01*
X197377380Y-123570833D02*
X197425000Y-123427976D01*
X197472619Y-123047023D02*
X197425000Y-122999404D01*
X197425000Y-122999404D02*
X197377380Y-122904166D01*
X197377380Y-122904166D02*
X197377380Y-122666071D01*
X197377380Y-122666071D02*
X197425000Y-122570833D01*
X197425000Y-122570833D02*
X197472619Y-122523214D01*
X197472619Y-122523214D02*
X197567857Y-122475595D01*
X197567857Y-122475595D02*
X197663095Y-122475595D01*
X197663095Y-122475595D02*
X197805952Y-122523214D01*
X197805952Y-122523214D02*
X198377380Y-123094642D01*
X198377380Y-123094642D02*
X198377380Y-122475595D01*
%TO.C,H4*%
X89194285Y-150227380D02*
X89194285Y-149227380D01*
X89194285Y-149227380D02*
X89527618Y-149941666D01*
X89527618Y-149941666D02*
X89860951Y-149227380D01*
X89860951Y-149227380D02*
X89860951Y-150227380D01*
X90479999Y-150227380D02*
X90384761Y-150179761D01*
X90384761Y-150179761D02*
X90337142Y-150132142D01*
X90337142Y-150132142D02*
X90289523Y-150036904D01*
X90289523Y-150036904D02*
X90289523Y-149751190D01*
X90289523Y-149751190D02*
X90337142Y-149655952D01*
X90337142Y-149655952D02*
X90384761Y-149608333D01*
X90384761Y-149608333D02*
X90479999Y-149560714D01*
X90479999Y-149560714D02*
X90622856Y-149560714D01*
X90622856Y-149560714D02*
X90718094Y-149608333D01*
X90718094Y-149608333D02*
X90765713Y-149655952D01*
X90765713Y-149655952D02*
X90813332Y-149751190D01*
X90813332Y-149751190D02*
X90813332Y-150036904D01*
X90813332Y-150036904D02*
X90765713Y-150132142D01*
X90765713Y-150132142D02*
X90718094Y-150179761D01*
X90718094Y-150179761D02*
X90622856Y-150227380D01*
X90622856Y-150227380D02*
X90479999Y-150227380D01*
X91670475Y-149560714D02*
X91670475Y-150227380D01*
X91241904Y-149560714D02*
X91241904Y-150084523D01*
X91241904Y-150084523D02*
X91289523Y-150179761D01*
X91289523Y-150179761D02*
X91384761Y-150227380D01*
X91384761Y-150227380D02*
X91527618Y-150227380D01*
X91527618Y-150227380D02*
X91622856Y-150179761D01*
X91622856Y-150179761D02*
X91670475Y-150132142D01*
X92146666Y-149560714D02*
X92146666Y-150227380D01*
X92146666Y-149655952D02*
X92194285Y-149608333D01*
X92194285Y-149608333D02*
X92289523Y-149560714D01*
X92289523Y-149560714D02*
X92432380Y-149560714D01*
X92432380Y-149560714D02*
X92527618Y-149608333D01*
X92527618Y-149608333D02*
X92575237Y-149703571D01*
X92575237Y-149703571D02*
X92575237Y-150227380D01*
X92908571Y-149560714D02*
X93289523Y-149560714D01*
X93051428Y-149227380D02*
X93051428Y-150084523D01*
X93051428Y-150084523D02*
X93099047Y-150179761D01*
X93099047Y-150179761D02*
X93194285Y-150227380D01*
X93194285Y-150227380D02*
X93289523Y-150227380D01*
X93622857Y-150227380D02*
X93622857Y-149560714D01*
X93622857Y-149227380D02*
X93575238Y-149275000D01*
X93575238Y-149275000D02*
X93622857Y-149322619D01*
X93622857Y-149322619D02*
X93670476Y-149275000D01*
X93670476Y-149275000D02*
X93622857Y-149227380D01*
X93622857Y-149227380D02*
X93622857Y-149322619D01*
X94099047Y-149560714D02*
X94099047Y-150227380D01*
X94099047Y-149655952D02*
X94146666Y-149608333D01*
X94146666Y-149608333D02*
X94241904Y-149560714D01*
X94241904Y-149560714D02*
X94384761Y-149560714D01*
X94384761Y-149560714D02*
X94479999Y-149608333D01*
X94479999Y-149608333D02*
X94527618Y-149703571D01*
X94527618Y-149703571D02*
X94527618Y-150227380D01*
X95432380Y-149560714D02*
X95432380Y-150370238D01*
X95432380Y-150370238D02*
X95384761Y-150465476D01*
X95384761Y-150465476D02*
X95337142Y-150513095D01*
X95337142Y-150513095D02*
X95241904Y-150560714D01*
X95241904Y-150560714D02*
X95099047Y-150560714D01*
X95099047Y-150560714D02*
X95003809Y-150513095D01*
X95432380Y-150179761D02*
X95337142Y-150227380D01*
X95337142Y-150227380D02*
X95146666Y-150227380D01*
X95146666Y-150227380D02*
X95051428Y-150179761D01*
X95051428Y-150179761D02*
X95003809Y-150132142D01*
X95003809Y-150132142D02*
X94956190Y-150036904D01*
X94956190Y-150036904D02*
X94956190Y-149751190D01*
X94956190Y-149751190D02*
X95003809Y-149655952D01*
X95003809Y-149655952D02*
X95051428Y-149608333D01*
X95051428Y-149608333D02*
X95146666Y-149560714D01*
X95146666Y-149560714D02*
X95337142Y-149560714D01*
X95337142Y-149560714D02*
X95432380Y-149608333D01*
X95908571Y-150227380D02*
X95908571Y-149227380D01*
X95908571Y-149703571D02*
X96479999Y-149703571D01*
X96479999Y-150227380D02*
X96479999Y-149227380D01*
X97099047Y-150227380D02*
X97003809Y-150179761D01*
X97003809Y-150179761D02*
X96956190Y-150132142D01*
X96956190Y-150132142D02*
X96908571Y-150036904D01*
X96908571Y-150036904D02*
X96908571Y-149751190D01*
X96908571Y-149751190D02*
X96956190Y-149655952D01*
X96956190Y-149655952D02*
X97003809Y-149608333D01*
X97003809Y-149608333D02*
X97099047Y-149560714D01*
X97099047Y-149560714D02*
X97241904Y-149560714D01*
X97241904Y-149560714D02*
X97337142Y-149608333D01*
X97337142Y-149608333D02*
X97384761Y-149655952D01*
X97384761Y-149655952D02*
X97432380Y-149751190D01*
X97432380Y-149751190D02*
X97432380Y-150036904D01*
X97432380Y-150036904D02*
X97384761Y-150132142D01*
X97384761Y-150132142D02*
X97337142Y-150179761D01*
X97337142Y-150179761D02*
X97241904Y-150227380D01*
X97241904Y-150227380D02*
X97099047Y-150227380D01*
X98003809Y-150227380D02*
X97908571Y-150179761D01*
X97908571Y-150179761D02*
X97860952Y-150084523D01*
X97860952Y-150084523D02*
X97860952Y-149227380D01*
X98765714Y-150179761D02*
X98670476Y-150227380D01*
X98670476Y-150227380D02*
X98480000Y-150227380D01*
X98480000Y-150227380D02*
X98384762Y-150179761D01*
X98384762Y-150179761D02*
X98337143Y-150084523D01*
X98337143Y-150084523D02*
X98337143Y-149703571D01*
X98337143Y-149703571D02*
X98384762Y-149608333D01*
X98384762Y-149608333D02*
X98480000Y-149560714D01*
X98480000Y-149560714D02*
X98670476Y-149560714D01*
X98670476Y-149560714D02*
X98765714Y-149608333D01*
X98765714Y-149608333D02*
X98813333Y-149703571D01*
X98813333Y-149703571D02*
X98813333Y-149798809D01*
X98813333Y-149798809D02*
X98337143Y-149894047D01*
X82846095Y-147458004D02*
X82846095Y-146458004D01*
X82846095Y-146934195D02*
X83417523Y-146934195D01*
X83417523Y-147458004D02*
X83417523Y-146458004D01*
X84322285Y-146791338D02*
X84322285Y-147458004D01*
X84084190Y-146410385D02*
X83846095Y-147124671D01*
X83846095Y-147124671D02*
X84465142Y-147124671D01*
%TO.C,T1*%
X154462619Y-141116962D02*
X154415000Y-141069343D01*
X154415000Y-141069343D02*
X154367380Y-140974105D01*
X154367380Y-140974105D02*
X154367380Y-140736010D01*
X154367380Y-140736010D02*
X154415000Y-140640772D01*
X154415000Y-140640772D02*
X154462619Y-140593153D01*
X154462619Y-140593153D02*
X154557857Y-140545534D01*
X154557857Y-140545534D02*
X154653095Y-140545534D01*
X154653095Y-140545534D02*
X154795952Y-140593153D01*
X154795952Y-140593153D02*
X155367380Y-141164581D01*
X155367380Y-141164581D02*
X155367380Y-140545534D01*
X154367380Y-140212200D02*
X154367380Y-139593153D01*
X154367380Y-139593153D02*
X154748333Y-139926486D01*
X154748333Y-139926486D02*
X154748333Y-139783629D01*
X154748333Y-139783629D02*
X154795952Y-139688391D01*
X154795952Y-139688391D02*
X154843571Y-139640772D01*
X154843571Y-139640772D02*
X154938809Y-139593153D01*
X154938809Y-139593153D02*
X155176904Y-139593153D01*
X155176904Y-139593153D02*
X155272142Y-139640772D01*
X155272142Y-139640772D02*
X155319761Y-139688391D01*
X155319761Y-139688391D02*
X155367380Y-139783629D01*
X155367380Y-139783629D02*
X155367380Y-140069343D01*
X155367380Y-140069343D02*
X155319761Y-140164581D01*
X155319761Y-140164581D02*
X155272142Y-140212200D01*
X154367380Y-138974105D02*
X154367380Y-138878867D01*
X154367380Y-138878867D02*
X154415000Y-138783629D01*
X154415000Y-138783629D02*
X154462619Y-138736010D01*
X154462619Y-138736010D02*
X154557857Y-138688391D01*
X154557857Y-138688391D02*
X154748333Y-138640772D01*
X154748333Y-138640772D02*
X154986428Y-138640772D01*
X154986428Y-138640772D02*
X155176904Y-138688391D01*
X155176904Y-138688391D02*
X155272142Y-138736010D01*
X155272142Y-138736010D02*
X155319761Y-138783629D01*
X155319761Y-138783629D02*
X155367380Y-138878867D01*
X155367380Y-138878867D02*
X155367380Y-138974105D01*
X155367380Y-138974105D02*
X155319761Y-139069343D01*
X155319761Y-139069343D02*
X155272142Y-139116962D01*
X155272142Y-139116962D02*
X155176904Y-139164581D01*
X155176904Y-139164581D02*
X154986428Y-139212200D01*
X154986428Y-139212200D02*
X154748333Y-139212200D01*
X154748333Y-139212200D02*
X154557857Y-139164581D01*
X154557857Y-139164581D02*
X154462619Y-139116962D01*
X154462619Y-139116962D02*
X154415000Y-139069343D01*
X154415000Y-139069343D02*
X154367380Y-138974105D01*
X154700714Y-137755057D02*
X154700714Y-137374105D01*
X154367380Y-137612200D02*
X155224523Y-137612200D01*
X155224523Y-137612200D02*
X155319761Y-137564581D01*
X155319761Y-137564581D02*
X155367380Y-137469343D01*
X155367380Y-137469343D02*
X155367380Y-137374105D01*
X155367380Y-136897914D02*
X155319761Y-136993152D01*
X155319761Y-136993152D02*
X155272142Y-137040771D01*
X155272142Y-137040771D02*
X155176904Y-137088390D01*
X155176904Y-137088390D02*
X154891190Y-137088390D01*
X154891190Y-137088390D02*
X154795952Y-137040771D01*
X154795952Y-137040771D02*
X154748333Y-136993152D01*
X154748333Y-136993152D02*
X154700714Y-136897914D01*
X154700714Y-136897914D02*
X154700714Y-136755057D01*
X154700714Y-136755057D02*
X154748333Y-136659819D01*
X154748333Y-136659819D02*
X154795952Y-136612200D01*
X154795952Y-136612200D02*
X154891190Y-136564581D01*
X154891190Y-136564581D02*
X155176904Y-136564581D01*
X155176904Y-136564581D02*
X155272142Y-136612200D01*
X155272142Y-136612200D02*
X155319761Y-136659819D01*
X155319761Y-136659819D02*
X155367380Y-136755057D01*
X155367380Y-136755057D02*
X155367380Y-136897914D01*
X154367380Y-135631247D02*
X154367380Y-135012200D01*
X154367380Y-135012200D02*
X154748333Y-135345533D01*
X154748333Y-135345533D02*
X154748333Y-135202676D01*
X154748333Y-135202676D02*
X154795952Y-135107438D01*
X154795952Y-135107438D02*
X154843571Y-135059819D01*
X154843571Y-135059819D02*
X154938809Y-135012200D01*
X154938809Y-135012200D02*
X155176904Y-135012200D01*
X155176904Y-135012200D02*
X155272142Y-135059819D01*
X155272142Y-135059819D02*
X155319761Y-135107438D01*
X155319761Y-135107438D02*
X155367380Y-135202676D01*
X155367380Y-135202676D02*
X155367380Y-135488390D01*
X155367380Y-135488390D02*
X155319761Y-135583628D01*
X155319761Y-135583628D02*
X155272142Y-135631247D01*
X154367380Y-134393152D02*
X154367380Y-134297914D01*
X154367380Y-134297914D02*
X154415000Y-134202676D01*
X154415000Y-134202676D02*
X154462619Y-134155057D01*
X154462619Y-134155057D02*
X154557857Y-134107438D01*
X154557857Y-134107438D02*
X154748333Y-134059819D01*
X154748333Y-134059819D02*
X154986428Y-134059819D01*
X154986428Y-134059819D02*
X155176904Y-134107438D01*
X155176904Y-134107438D02*
X155272142Y-134155057D01*
X155272142Y-134155057D02*
X155319761Y-134202676D01*
X155319761Y-134202676D02*
X155367380Y-134297914D01*
X155367380Y-134297914D02*
X155367380Y-134393152D01*
X155367380Y-134393152D02*
X155319761Y-134488390D01*
X155319761Y-134488390D02*
X155272142Y-134536009D01*
X155272142Y-134536009D02*
X155176904Y-134583628D01*
X155176904Y-134583628D02*
X154986428Y-134631247D01*
X154986428Y-134631247D02*
X154748333Y-134631247D01*
X154748333Y-134631247D02*
X154557857Y-134583628D01*
X154557857Y-134583628D02*
X154462619Y-134536009D01*
X154462619Y-134536009D02*
X154415000Y-134488390D01*
X154415000Y-134488390D02*
X154367380Y-134393152D01*
X154367380Y-133774104D02*
X155367380Y-133440771D01*
X155367380Y-133440771D02*
X154367380Y-133107438D01*
X155081666Y-132821723D02*
X155081666Y-132345533D01*
X155367380Y-132916961D02*
X154367380Y-132583628D01*
X154367380Y-132583628D02*
X155367380Y-132250295D01*
X155272142Y-131345533D02*
X155319761Y-131393152D01*
X155319761Y-131393152D02*
X155367380Y-131536009D01*
X155367380Y-131536009D02*
X155367380Y-131631247D01*
X155367380Y-131631247D02*
X155319761Y-131774104D01*
X155319761Y-131774104D02*
X155224523Y-131869342D01*
X155224523Y-131869342D02*
X155129285Y-131916961D01*
X155129285Y-131916961D02*
X154938809Y-131964580D01*
X154938809Y-131964580D02*
X154795952Y-131964580D01*
X154795952Y-131964580D02*
X154605476Y-131916961D01*
X154605476Y-131916961D02*
X154510238Y-131869342D01*
X154510238Y-131869342D02*
X154415000Y-131774104D01*
X154415000Y-131774104D02*
X154367380Y-131631247D01*
X154367380Y-131631247D02*
X154367380Y-131536009D01*
X154367380Y-131536009D02*
X154415000Y-131393152D01*
X154415000Y-131393152D02*
X154462619Y-131345533D01*
X139367380Y-136993152D02*
X139367380Y-136421724D01*
X140367380Y-136707438D02*
X139367380Y-136707438D01*
X140367380Y-135564581D02*
X140367380Y-136136009D01*
X140367380Y-135850295D02*
X139367380Y-135850295D01*
X139367380Y-135850295D02*
X139510238Y-135945533D01*
X139510238Y-135945533D02*
X139605476Y-136040771D01*
X139605476Y-136040771D02*
X139653095Y-136136009D01*
%TO.C,D1*%
X130427142Y-68807380D02*
X129950952Y-68807380D01*
X129950952Y-68807380D02*
X129950952Y-67807380D01*
X130760476Y-68283571D02*
X131093809Y-68283571D01*
X131236666Y-68807380D02*
X130760476Y-68807380D01*
X130760476Y-68807380D02*
X130760476Y-67807380D01*
X130760476Y-67807380D02*
X131236666Y-67807380D01*
X131665238Y-68807380D02*
X131665238Y-67807380D01*
X131665238Y-67807380D02*
X131903333Y-67807380D01*
X131903333Y-67807380D02*
X132046190Y-67855000D01*
X132046190Y-67855000D02*
X132141428Y-67950238D01*
X132141428Y-67950238D02*
X132189047Y-68045476D01*
X132189047Y-68045476D02*
X132236666Y-68235952D01*
X132236666Y-68235952D02*
X132236666Y-68378809D01*
X132236666Y-68378809D02*
X132189047Y-68569285D01*
X132189047Y-68569285D02*
X132141428Y-68664523D01*
X132141428Y-68664523D02*
X132046190Y-68759761D01*
X132046190Y-68759761D02*
X131903333Y-68807380D01*
X131903333Y-68807380D02*
X131665238Y-68807380D01*
D13*
X130499524Y-72693904D02*
X130499524Y-71893904D01*
X130499524Y-71893904D02*
X130690000Y-71893904D01*
X130690000Y-71893904D02*
X130804286Y-71932000D01*
X130804286Y-71932000D02*
X130880476Y-72008190D01*
X130880476Y-72008190D02*
X130918571Y-72084380D01*
X130918571Y-72084380D02*
X130956667Y-72236761D01*
X130956667Y-72236761D02*
X130956667Y-72351047D01*
X130956667Y-72351047D02*
X130918571Y-72503428D01*
X130918571Y-72503428D02*
X130880476Y-72579619D01*
X130880476Y-72579619D02*
X130804286Y-72655809D01*
X130804286Y-72655809D02*
X130690000Y-72693904D01*
X130690000Y-72693904D02*
X130499524Y-72693904D01*
X131718571Y-72693904D02*
X131261428Y-72693904D01*
X131490000Y-72693904D02*
X131490000Y-71893904D01*
X131490000Y-71893904D02*
X131413809Y-72008190D01*
X131413809Y-72008190D02*
X131337619Y-72084380D01*
X131337619Y-72084380D02*
X131261428Y-72122476D01*
D10*
%TO.C,K1*%
X166614286Y-82319761D02*
X166757143Y-82367380D01*
X166757143Y-82367380D02*
X166995238Y-82367380D01*
X166995238Y-82367380D02*
X167090476Y-82319761D01*
X167090476Y-82319761D02*
X167138095Y-82272142D01*
X167138095Y-82272142D02*
X167185714Y-82176904D01*
X167185714Y-82176904D02*
X167185714Y-82081666D01*
X167185714Y-82081666D02*
X167138095Y-81986428D01*
X167138095Y-81986428D02*
X167090476Y-81938809D01*
X167090476Y-81938809D02*
X166995238Y-81891190D01*
X166995238Y-81891190D02*
X166804762Y-81843571D01*
X166804762Y-81843571D02*
X166709524Y-81795952D01*
X166709524Y-81795952D02*
X166661905Y-81748333D01*
X166661905Y-81748333D02*
X166614286Y-81653095D01*
X166614286Y-81653095D02*
X166614286Y-81557857D01*
X166614286Y-81557857D02*
X166661905Y-81462619D01*
X166661905Y-81462619D02*
X166709524Y-81415000D01*
X166709524Y-81415000D02*
X166804762Y-81367380D01*
X166804762Y-81367380D02*
X167042857Y-81367380D01*
X167042857Y-81367380D02*
X167185714Y-81415000D01*
X167804762Y-81367380D02*
X167995238Y-81367380D01*
X167995238Y-81367380D02*
X168090476Y-81415000D01*
X168090476Y-81415000D02*
X168185714Y-81510238D01*
X168185714Y-81510238D02*
X168233333Y-81700714D01*
X168233333Y-81700714D02*
X168233333Y-82034047D01*
X168233333Y-82034047D02*
X168185714Y-82224523D01*
X168185714Y-82224523D02*
X168090476Y-82319761D01*
X168090476Y-82319761D02*
X167995238Y-82367380D01*
X167995238Y-82367380D02*
X167804762Y-82367380D01*
X167804762Y-82367380D02*
X167709524Y-82319761D01*
X167709524Y-82319761D02*
X167614286Y-82224523D01*
X167614286Y-82224523D02*
X167566667Y-82034047D01*
X167566667Y-82034047D02*
X167566667Y-81700714D01*
X167566667Y-81700714D02*
X167614286Y-81510238D01*
X167614286Y-81510238D02*
X167709524Y-81415000D01*
X167709524Y-81415000D02*
X167804762Y-81367380D01*
X168661905Y-82367380D02*
X168661905Y-81367380D01*
X168661905Y-81367380D02*
X169233333Y-82367380D01*
X169233333Y-82367380D02*
X169233333Y-81367380D01*
X170233333Y-81415000D02*
X170138095Y-81367380D01*
X170138095Y-81367380D02*
X169995238Y-81367380D01*
X169995238Y-81367380D02*
X169852381Y-81415000D01*
X169852381Y-81415000D02*
X169757143Y-81510238D01*
X169757143Y-81510238D02*
X169709524Y-81605476D01*
X169709524Y-81605476D02*
X169661905Y-81795952D01*
X169661905Y-81795952D02*
X169661905Y-81938809D01*
X169661905Y-81938809D02*
X169709524Y-82129285D01*
X169709524Y-82129285D02*
X169757143Y-82224523D01*
X169757143Y-82224523D02*
X169852381Y-82319761D01*
X169852381Y-82319761D02*
X169995238Y-82367380D01*
X169995238Y-82367380D02*
X170090476Y-82367380D01*
X170090476Y-82367380D02*
X170233333Y-82319761D01*
X170233333Y-82319761D02*
X170280952Y-82272142D01*
X170280952Y-82272142D02*
X170280952Y-81938809D01*
X170280952Y-81938809D02*
X170090476Y-81938809D01*
X171185714Y-82367380D02*
X170709524Y-82367380D01*
X170709524Y-82367380D02*
X170709524Y-81367380D01*
X171519048Y-81843571D02*
X171852381Y-81843571D01*
X171995238Y-82367380D02*
X171519048Y-82367380D01*
X171519048Y-82367380D02*
X171519048Y-81367380D01*
X171519048Y-81367380D02*
X171995238Y-81367380D01*
X172976191Y-82319761D02*
X173119048Y-82367380D01*
X173119048Y-82367380D02*
X173357143Y-82367380D01*
X173357143Y-82367380D02*
X173452381Y-82319761D01*
X173452381Y-82319761D02*
X173500000Y-82272142D01*
X173500000Y-82272142D02*
X173547619Y-82176904D01*
X173547619Y-82176904D02*
X173547619Y-82081666D01*
X173547619Y-82081666D02*
X173500000Y-81986428D01*
X173500000Y-81986428D02*
X173452381Y-81938809D01*
X173452381Y-81938809D02*
X173357143Y-81891190D01*
X173357143Y-81891190D02*
X173166667Y-81843571D01*
X173166667Y-81843571D02*
X173071429Y-81795952D01*
X173071429Y-81795952D02*
X173023810Y-81748333D01*
X173023810Y-81748333D02*
X172976191Y-81653095D01*
X172976191Y-81653095D02*
X172976191Y-81557857D01*
X172976191Y-81557857D02*
X173023810Y-81462619D01*
X173023810Y-81462619D02*
X173071429Y-81415000D01*
X173071429Y-81415000D02*
X173166667Y-81367380D01*
X173166667Y-81367380D02*
X173404762Y-81367380D01*
X173404762Y-81367380D02*
X173547619Y-81415000D01*
X174547619Y-82367380D02*
X174214286Y-81891190D01*
X173976191Y-82367380D02*
X173976191Y-81367380D01*
X173976191Y-81367380D02*
X174357143Y-81367380D01*
X174357143Y-81367380D02*
X174452381Y-81415000D01*
X174452381Y-81415000D02*
X174500000Y-81462619D01*
X174500000Y-81462619D02*
X174547619Y-81557857D01*
X174547619Y-81557857D02*
X174547619Y-81700714D01*
X174547619Y-81700714D02*
X174500000Y-81795952D01*
X174500000Y-81795952D02*
X174452381Y-81843571D01*
X174452381Y-81843571D02*
X174357143Y-81891190D01*
X174357143Y-81891190D02*
X173976191Y-81891190D01*
X174976191Y-82367380D02*
X174976191Y-81367380D01*
X174976191Y-81367380D02*
X175214286Y-81367380D01*
X175214286Y-81367380D02*
X175357143Y-81415000D01*
X175357143Y-81415000D02*
X175452381Y-81510238D01*
X175452381Y-81510238D02*
X175500000Y-81605476D01*
X175500000Y-81605476D02*
X175547619Y-81795952D01*
X175547619Y-81795952D02*
X175547619Y-81938809D01*
X175547619Y-81938809D02*
X175500000Y-82129285D01*
X175500000Y-82129285D02*
X175452381Y-82224523D01*
X175452381Y-82224523D02*
X175357143Y-82319761D01*
X175357143Y-82319761D02*
X175214286Y-82367380D01*
X175214286Y-82367380D02*
X174976191Y-82367380D01*
X175976191Y-81986428D02*
X176738096Y-81986428D01*
X177404762Y-81367380D02*
X177500000Y-81367380D01*
X177500000Y-81367380D02*
X177595238Y-81415000D01*
X177595238Y-81415000D02*
X177642857Y-81462619D01*
X177642857Y-81462619D02*
X177690476Y-81557857D01*
X177690476Y-81557857D02*
X177738095Y-81748333D01*
X177738095Y-81748333D02*
X177738095Y-81986428D01*
X177738095Y-81986428D02*
X177690476Y-82176904D01*
X177690476Y-82176904D02*
X177642857Y-82272142D01*
X177642857Y-82272142D02*
X177595238Y-82319761D01*
X177595238Y-82319761D02*
X177500000Y-82367380D01*
X177500000Y-82367380D02*
X177404762Y-82367380D01*
X177404762Y-82367380D02*
X177309524Y-82319761D01*
X177309524Y-82319761D02*
X177261905Y-82272142D01*
X177261905Y-82272142D02*
X177214286Y-82176904D01*
X177214286Y-82176904D02*
X177166667Y-81986428D01*
X177166667Y-81986428D02*
X177166667Y-81748333D01*
X177166667Y-81748333D02*
X177214286Y-81557857D01*
X177214286Y-81557857D02*
X177261905Y-81462619D01*
X177261905Y-81462619D02*
X177309524Y-81415000D01*
X177309524Y-81415000D02*
X177404762Y-81367380D01*
X178642857Y-81367380D02*
X178166667Y-81367380D01*
X178166667Y-81367380D02*
X178119048Y-81843571D01*
X178119048Y-81843571D02*
X178166667Y-81795952D01*
X178166667Y-81795952D02*
X178261905Y-81748333D01*
X178261905Y-81748333D02*
X178500000Y-81748333D01*
X178500000Y-81748333D02*
X178595238Y-81795952D01*
X178595238Y-81795952D02*
X178642857Y-81843571D01*
X178642857Y-81843571D02*
X178690476Y-81938809D01*
X178690476Y-81938809D02*
X178690476Y-82176904D01*
X178690476Y-82176904D02*
X178642857Y-82272142D01*
X178642857Y-82272142D02*
X178595238Y-82319761D01*
X178595238Y-82319761D02*
X178500000Y-82367380D01*
X178500000Y-82367380D02*
X178261905Y-82367380D01*
X178261905Y-82367380D02*
X178166667Y-82319761D01*
X178166667Y-82319761D02*
X178119048Y-82272142D01*
X178976191Y-81367380D02*
X179309524Y-82367380D01*
X179309524Y-82367380D02*
X179642857Y-81367380D01*
X179976191Y-82367380D02*
X179976191Y-81367380D01*
X179976191Y-81367380D02*
X180214286Y-81367380D01*
X180214286Y-81367380D02*
X180357143Y-81415000D01*
X180357143Y-81415000D02*
X180452381Y-81510238D01*
X180452381Y-81510238D02*
X180500000Y-81605476D01*
X180500000Y-81605476D02*
X180547619Y-81795952D01*
X180547619Y-81795952D02*
X180547619Y-81938809D01*
X180547619Y-81938809D02*
X180500000Y-82129285D01*
X180500000Y-82129285D02*
X180452381Y-82224523D01*
X180452381Y-82224523D02*
X180357143Y-82319761D01*
X180357143Y-82319761D02*
X180214286Y-82367380D01*
X180214286Y-82367380D02*
X179976191Y-82367380D01*
X181547619Y-82272142D02*
X181500000Y-82319761D01*
X181500000Y-82319761D02*
X181357143Y-82367380D01*
X181357143Y-82367380D02*
X181261905Y-82367380D01*
X181261905Y-82367380D02*
X181119048Y-82319761D01*
X181119048Y-82319761D02*
X181023810Y-82224523D01*
X181023810Y-82224523D02*
X180976191Y-82129285D01*
X180976191Y-82129285D02*
X180928572Y-81938809D01*
X180928572Y-81938809D02*
X180928572Y-81795952D01*
X180928572Y-81795952D02*
X180976191Y-81605476D01*
X180976191Y-81605476D02*
X181023810Y-81510238D01*
X181023810Y-81510238D02*
X181119048Y-81415000D01*
X181119048Y-81415000D02*
X181261905Y-81367380D01*
X181261905Y-81367380D02*
X181357143Y-81367380D01*
X181357143Y-81367380D02*
X181500000Y-81415000D01*
X181500000Y-81415000D02*
X181547619Y-81462619D01*
X181976191Y-81986428D02*
X182738096Y-81986428D01*
X183166667Y-82319761D02*
X183309524Y-82367380D01*
X183309524Y-82367380D02*
X183547619Y-82367380D01*
X183547619Y-82367380D02*
X183642857Y-82319761D01*
X183642857Y-82319761D02*
X183690476Y-82272142D01*
X183690476Y-82272142D02*
X183738095Y-82176904D01*
X183738095Y-82176904D02*
X183738095Y-82081666D01*
X183738095Y-82081666D02*
X183690476Y-81986428D01*
X183690476Y-81986428D02*
X183642857Y-81938809D01*
X183642857Y-81938809D02*
X183547619Y-81891190D01*
X183547619Y-81891190D02*
X183357143Y-81843571D01*
X183357143Y-81843571D02*
X183261905Y-81795952D01*
X183261905Y-81795952D02*
X183214286Y-81748333D01*
X183214286Y-81748333D02*
X183166667Y-81653095D01*
X183166667Y-81653095D02*
X183166667Y-81557857D01*
X183166667Y-81557857D02*
X183214286Y-81462619D01*
X183214286Y-81462619D02*
X183261905Y-81415000D01*
X183261905Y-81415000D02*
X183357143Y-81367380D01*
X183357143Y-81367380D02*
X183595238Y-81367380D01*
X183595238Y-81367380D02*
X183738095Y-81415000D01*
X184642857Y-82367380D02*
X184166667Y-82367380D01*
X184166667Y-82367380D02*
X184166667Y-81367380D01*
X184976191Y-81986428D02*
X185738096Y-81986428D01*
X186785714Y-82272142D02*
X186738095Y-82319761D01*
X186738095Y-82319761D02*
X186595238Y-82367380D01*
X186595238Y-82367380D02*
X186500000Y-82367380D01*
X186500000Y-82367380D02*
X186357143Y-82319761D01*
X186357143Y-82319761D02*
X186261905Y-82224523D01*
X186261905Y-82224523D02*
X186214286Y-82129285D01*
X186214286Y-82129285D02*
X186166667Y-81938809D01*
X186166667Y-81938809D02*
X186166667Y-81795952D01*
X186166667Y-81795952D02*
X186214286Y-81605476D01*
X186214286Y-81605476D02*
X186261905Y-81510238D01*
X186261905Y-81510238D02*
X186357143Y-81415000D01*
X186357143Y-81415000D02*
X186500000Y-81367380D01*
X186500000Y-81367380D02*
X186595238Y-81367380D01*
X186595238Y-81367380D02*
X186738095Y-81415000D01*
X186738095Y-81415000D02*
X186785714Y-81462619D01*
X175061905Y-91992380D02*
X175061905Y-90992380D01*
X175633333Y-91992380D02*
X175204762Y-91420952D01*
X175633333Y-90992380D02*
X175061905Y-91563809D01*
X176585714Y-91992380D02*
X176014286Y-91992380D01*
X176300000Y-91992380D02*
X176300000Y-90992380D01*
X176300000Y-90992380D02*
X176204762Y-91135238D01*
X176204762Y-91135238D02*
X176109524Y-91230476D01*
X176109524Y-91230476D02*
X176014286Y-91278095D01*
%TO.C,J7*%
X208941666Y-83057142D02*
X208941666Y-82580952D01*
X209227380Y-83152380D02*
X208227380Y-82819047D01*
X208227380Y-82819047D02*
X209227380Y-82485714D01*
X209132142Y-81580952D02*
X209179761Y-81628571D01*
X209179761Y-81628571D02*
X209227380Y-81771428D01*
X209227380Y-81771428D02*
X209227380Y-81866666D01*
X209227380Y-81866666D02*
X209179761Y-82009523D01*
X209179761Y-82009523D02*
X209084523Y-82104761D01*
X209084523Y-82104761D02*
X208989285Y-82152380D01*
X208989285Y-82152380D02*
X208798809Y-82199999D01*
X208798809Y-82199999D02*
X208655952Y-82199999D01*
X208655952Y-82199999D02*
X208465476Y-82152380D01*
X208465476Y-82152380D02*
X208370238Y-82104761D01*
X208370238Y-82104761D02*
X208275000Y-82009523D01*
X208275000Y-82009523D02*
X208227380Y-81866666D01*
X208227380Y-81866666D02*
X208227380Y-81771428D01*
X208227380Y-81771428D02*
X208275000Y-81628571D01*
X208275000Y-81628571D02*
X208322619Y-81580952D01*
X208846428Y-81152380D02*
X208846428Y-80390476D01*
X208227380Y-79485714D02*
X208227380Y-79676190D01*
X208227380Y-79676190D02*
X208275000Y-79771428D01*
X208275000Y-79771428D02*
X208322619Y-79819047D01*
X208322619Y-79819047D02*
X208465476Y-79914285D01*
X208465476Y-79914285D02*
X208655952Y-79961904D01*
X208655952Y-79961904D02*
X209036904Y-79961904D01*
X209036904Y-79961904D02*
X209132142Y-79914285D01*
X209132142Y-79914285D02*
X209179761Y-79866666D01*
X209179761Y-79866666D02*
X209227380Y-79771428D01*
X209227380Y-79771428D02*
X209227380Y-79580952D01*
X209227380Y-79580952D02*
X209179761Y-79485714D01*
X209179761Y-79485714D02*
X209132142Y-79438095D01*
X209132142Y-79438095D02*
X209036904Y-79390476D01*
X209036904Y-79390476D02*
X208798809Y-79390476D01*
X208798809Y-79390476D02*
X208703571Y-79438095D01*
X208703571Y-79438095D02*
X208655952Y-79485714D01*
X208655952Y-79485714D02*
X208608333Y-79580952D01*
X208608333Y-79580952D02*
X208608333Y-79771428D01*
X208608333Y-79771428D02*
X208655952Y-79866666D01*
X208655952Y-79866666D02*
X208703571Y-79914285D01*
X208703571Y-79914285D02*
X208798809Y-79961904D01*
X208227380Y-78771428D02*
X208227380Y-78676190D01*
X208227380Y-78676190D02*
X208275000Y-78580952D01*
X208275000Y-78580952D02*
X208322619Y-78533333D01*
X208322619Y-78533333D02*
X208417857Y-78485714D01*
X208417857Y-78485714D02*
X208608333Y-78438095D01*
X208608333Y-78438095D02*
X208846428Y-78438095D01*
X208846428Y-78438095D02*
X209036904Y-78485714D01*
X209036904Y-78485714D02*
X209132142Y-78533333D01*
X209132142Y-78533333D02*
X209179761Y-78580952D01*
X209179761Y-78580952D02*
X209227380Y-78676190D01*
X209227380Y-78676190D02*
X209227380Y-78771428D01*
X209227380Y-78771428D02*
X209179761Y-78866666D01*
X209179761Y-78866666D02*
X209132142Y-78914285D01*
X209132142Y-78914285D02*
X209036904Y-78961904D01*
X209036904Y-78961904D02*
X208846428Y-79009523D01*
X208846428Y-79009523D02*
X208608333Y-79009523D01*
X208608333Y-79009523D02*
X208417857Y-78961904D01*
X208417857Y-78961904D02*
X208322619Y-78914285D01*
X208322619Y-78914285D02*
X208275000Y-78866666D01*
X208275000Y-78866666D02*
X208227380Y-78771428D01*
X208846428Y-78009523D02*
X208846428Y-77247619D01*
X208227380Y-76580952D02*
X208227380Y-76390476D01*
X208227380Y-76390476D02*
X208275000Y-76295238D01*
X208275000Y-76295238D02*
X208370238Y-76200000D01*
X208370238Y-76200000D02*
X208560714Y-76152381D01*
X208560714Y-76152381D02*
X208894047Y-76152381D01*
X208894047Y-76152381D02*
X209084523Y-76200000D01*
X209084523Y-76200000D02*
X209179761Y-76295238D01*
X209179761Y-76295238D02*
X209227380Y-76390476D01*
X209227380Y-76390476D02*
X209227380Y-76580952D01*
X209227380Y-76580952D02*
X209179761Y-76676190D01*
X209179761Y-76676190D02*
X209084523Y-76771428D01*
X209084523Y-76771428D02*
X208894047Y-76819047D01*
X208894047Y-76819047D02*
X208560714Y-76819047D01*
X208560714Y-76819047D02*
X208370238Y-76771428D01*
X208370238Y-76771428D02*
X208275000Y-76676190D01*
X208275000Y-76676190D02*
X208227380Y-76580952D01*
X208227380Y-75723809D02*
X209036904Y-75723809D01*
X209036904Y-75723809D02*
X209132142Y-75676190D01*
X209132142Y-75676190D02*
X209179761Y-75628571D01*
X209179761Y-75628571D02*
X209227380Y-75533333D01*
X209227380Y-75533333D02*
X209227380Y-75342857D01*
X209227380Y-75342857D02*
X209179761Y-75247619D01*
X209179761Y-75247619D02*
X209132142Y-75200000D01*
X209132142Y-75200000D02*
X209036904Y-75152381D01*
X209036904Y-75152381D02*
X208227380Y-75152381D01*
X208227380Y-74819047D02*
X208227380Y-74247619D01*
X209227380Y-74533333D02*
X208227380Y-74533333D01*
X205767380Y-79033333D02*
X206481666Y-79033333D01*
X206481666Y-79033333D02*
X206624523Y-79080952D01*
X206624523Y-79080952D02*
X206719761Y-79176190D01*
X206719761Y-79176190D02*
X206767380Y-79319047D01*
X206767380Y-79319047D02*
X206767380Y-79414285D01*
X205767380Y-78652380D02*
X205767380Y-77985714D01*
X205767380Y-77985714D02*
X206767380Y-78414285D01*
%TO.C,R8*%
X130119523Y-61830714D02*
X130119523Y-62497380D01*
X129881428Y-61449761D02*
X129643333Y-62164047D01*
X129643333Y-62164047D02*
X130262380Y-62164047D01*
X130643333Y-62497380D02*
X130643333Y-61497380D01*
X130738571Y-62116428D02*
X131024285Y-62497380D01*
X131024285Y-61830714D02*
X130643333Y-62211666D01*
X131357619Y-61497380D02*
X132024285Y-61497380D01*
X132024285Y-61497380D02*
X131595714Y-62497380D01*
X130643333Y-64867380D02*
X130310000Y-64391190D01*
X130071905Y-64867380D02*
X130071905Y-63867380D01*
X130071905Y-63867380D02*
X130452857Y-63867380D01*
X130452857Y-63867380D02*
X130548095Y-63915000D01*
X130548095Y-63915000D02*
X130595714Y-63962619D01*
X130595714Y-63962619D02*
X130643333Y-64057857D01*
X130643333Y-64057857D02*
X130643333Y-64200714D01*
X130643333Y-64200714D02*
X130595714Y-64295952D01*
X130595714Y-64295952D02*
X130548095Y-64343571D01*
X130548095Y-64343571D02*
X130452857Y-64391190D01*
X130452857Y-64391190D02*
X130071905Y-64391190D01*
X131214762Y-64295952D02*
X131119524Y-64248333D01*
X131119524Y-64248333D02*
X131071905Y-64200714D01*
X131071905Y-64200714D02*
X131024286Y-64105476D01*
X131024286Y-64105476D02*
X131024286Y-64057857D01*
X131024286Y-64057857D02*
X131071905Y-63962619D01*
X131071905Y-63962619D02*
X131119524Y-63915000D01*
X131119524Y-63915000D02*
X131214762Y-63867380D01*
X131214762Y-63867380D02*
X131405238Y-63867380D01*
X131405238Y-63867380D02*
X131500476Y-63915000D01*
X131500476Y-63915000D02*
X131548095Y-63962619D01*
X131548095Y-63962619D02*
X131595714Y-64057857D01*
X131595714Y-64057857D02*
X131595714Y-64105476D01*
X131595714Y-64105476D02*
X131548095Y-64200714D01*
X131548095Y-64200714D02*
X131500476Y-64248333D01*
X131500476Y-64248333D02*
X131405238Y-64295952D01*
X131405238Y-64295952D02*
X131214762Y-64295952D01*
X131214762Y-64295952D02*
X131119524Y-64343571D01*
X131119524Y-64343571D02*
X131071905Y-64391190D01*
X131071905Y-64391190D02*
X131024286Y-64486428D01*
X131024286Y-64486428D02*
X131024286Y-64676904D01*
X131024286Y-64676904D02*
X131071905Y-64772142D01*
X131071905Y-64772142D02*
X131119524Y-64819761D01*
X131119524Y-64819761D02*
X131214762Y-64867380D01*
X131214762Y-64867380D02*
X131405238Y-64867380D01*
X131405238Y-64867380D02*
X131500476Y-64819761D01*
X131500476Y-64819761D02*
X131548095Y-64772142D01*
X131548095Y-64772142D02*
X131595714Y-64676904D01*
X131595714Y-64676904D02*
X131595714Y-64486428D01*
X131595714Y-64486428D02*
X131548095Y-64391190D01*
X131548095Y-64391190D02*
X131500476Y-64343571D01*
X131500476Y-64343571D02*
X131405238Y-64295952D01*
%TO.C,R7*%
X140333333Y-61592619D02*
X140380952Y-61545000D01*
X140380952Y-61545000D02*
X140476190Y-61497380D01*
X140476190Y-61497380D02*
X140714285Y-61497380D01*
X140714285Y-61497380D02*
X140809523Y-61545000D01*
X140809523Y-61545000D02*
X140857142Y-61592619D01*
X140857142Y-61592619D02*
X140904761Y-61687857D01*
X140904761Y-61687857D02*
X140904761Y-61783095D01*
X140904761Y-61783095D02*
X140857142Y-61925952D01*
X140857142Y-61925952D02*
X140285714Y-62497380D01*
X140285714Y-62497380D02*
X140904761Y-62497380D01*
X141333333Y-62497380D02*
X141333333Y-61497380D01*
X141428571Y-62116428D02*
X141714285Y-62497380D01*
X141714285Y-61830714D02*
X141333333Y-62211666D01*
X142047619Y-61497380D02*
X142714285Y-61497380D01*
X142714285Y-61497380D02*
X142285714Y-62497380D01*
X141333333Y-64867380D02*
X141000000Y-64391190D01*
X140761905Y-64867380D02*
X140761905Y-63867380D01*
X140761905Y-63867380D02*
X141142857Y-63867380D01*
X141142857Y-63867380D02*
X141238095Y-63915000D01*
X141238095Y-63915000D02*
X141285714Y-63962619D01*
X141285714Y-63962619D02*
X141333333Y-64057857D01*
X141333333Y-64057857D02*
X141333333Y-64200714D01*
X141333333Y-64200714D02*
X141285714Y-64295952D01*
X141285714Y-64295952D02*
X141238095Y-64343571D01*
X141238095Y-64343571D02*
X141142857Y-64391190D01*
X141142857Y-64391190D02*
X140761905Y-64391190D01*
X141666667Y-63867380D02*
X142333333Y-63867380D01*
X142333333Y-63867380D02*
X141904762Y-64867380D01*
%TO.C,R9*%
X117043333Y-66832619D02*
X117090952Y-66785000D01*
X117090952Y-66785000D02*
X117186190Y-66737380D01*
X117186190Y-66737380D02*
X117424285Y-66737380D01*
X117424285Y-66737380D02*
X117519523Y-66785000D01*
X117519523Y-66785000D02*
X117567142Y-66832619D01*
X117567142Y-66832619D02*
X117614761Y-66927857D01*
X117614761Y-66927857D02*
X117614761Y-67023095D01*
X117614761Y-67023095D02*
X117567142Y-67165952D01*
X117567142Y-67165952D02*
X116995714Y-67737380D01*
X116995714Y-67737380D02*
X117614761Y-67737380D01*
X118043333Y-67737380D02*
X118043333Y-66737380D01*
X118138571Y-67356428D02*
X118424285Y-67737380D01*
X118424285Y-67070714D02*
X118043333Y-67451666D01*
X118757619Y-66737380D02*
X119424285Y-66737380D01*
X119424285Y-66737380D02*
X118995714Y-67737380D01*
X118043333Y-65367380D02*
X117710000Y-64891190D01*
X117471905Y-65367380D02*
X117471905Y-64367380D01*
X117471905Y-64367380D02*
X117852857Y-64367380D01*
X117852857Y-64367380D02*
X117948095Y-64415000D01*
X117948095Y-64415000D02*
X117995714Y-64462619D01*
X117995714Y-64462619D02*
X118043333Y-64557857D01*
X118043333Y-64557857D02*
X118043333Y-64700714D01*
X118043333Y-64700714D02*
X117995714Y-64795952D01*
X117995714Y-64795952D02*
X117948095Y-64843571D01*
X117948095Y-64843571D02*
X117852857Y-64891190D01*
X117852857Y-64891190D02*
X117471905Y-64891190D01*
X118519524Y-65367380D02*
X118710000Y-65367380D01*
X118710000Y-65367380D02*
X118805238Y-65319761D01*
X118805238Y-65319761D02*
X118852857Y-65272142D01*
X118852857Y-65272142D02*
X118948095Y-65129285D01*
X118948095Y-65129285D02*
X118995714Y-64938809D01*
X118995714Y-64938809D02*
X118995714Y-64557857D01*
X118995714Y-64557857D02*
X118948095Y-64462619D01*
X118948095Y-64462619D02*
X118900476Y-64415000D01*
X118900476Y-64415000D02*
X118805238Y-64367380D01*
X118805238Y-64367380D02*
X118614762Y-64367380D01*
X118614762Y-64367380D02*
X118519524Y-64415000D01*
X118519524Y-64415000D02*
X118471905Y-64462619D01*
X118471905Y-64462619D02*
X118424286Y-64557857D01*
X118424286Y-64557857D02*
X118424286Y-64795952D01*
X118424286Y-64795952D02*
X118471905Y-64891190D01*
X118471905Y-64891190D02*
X118519524Y-64938809D01*
X118519524Y-64938809D02*
X118614762Y-64986428D01*
X118614762Y-64986428D02*
X118805238Y-64986428D01*
X118805238Y-64986428D02*
X118900476Y-64938809D01*
X118900476Y-64938809D02*
X118948095Y-64891190D01*
X118948095Y-64891190D02*
X118995714Y-64795952D01*
%TO.C,D5*%
X165097380Y-79071904D02*
X164097380Y-79071904D01*
X164097380Y-79071904D02*
X164097380Y-78833809D01*
X164097380Y-78833809D02*
X164145000Y-78690952D01*
X164145000Y-78690952D02*
X164240238Y-78595714D01*
X164240238Y-78595714D02*
X164335476Y-78548095D01*
X164335476Y-78548095D02*
X164525952Y-78500476D01*
X164525952Y-78500476D02*
X164668809Y-78500476D01*
X164668809Y-78500476D02*
X164859285Y-78548095D01*
X164859285Y-78548095D02*
X164954523Y-78595714D01*
X164954523Y-78595714D02*
X165049761Y-78690952D01*
X165049761Y-78690952D02*
X165097380Y-78833809D01*
X165097380Y-78833809D02*
X165097380Y-79071904D01*
X165192619Y-78310000D02*
X165192619Y-77548095D01*
X165049761Y-77357618D02*
X165097380Y-77214761D01*
X165097380Y-77214761D02*
X165097380Y-76976666D01*
X165097380Y-76976666D02*
X165049761Y-76881428D01*
X165049761Y-76881428D02*
X165002142Y-76833809D01*
X165002142Y-76833809D02*
X164906904Y-76786190D01*
X164906904Y-76786190D02*
X164811666Y-76786190D01*
X164811666Y-76786190D02*
X164716428Y-76833809D01*
X164716428Y-76833809D02*
X164668809Y-76881428D01*
X164668809Y-76881428D02*
X164621190Y-76976666D01*
X164621190Y-76976666D02*
X164573571Y-77167142D01*
X164573571Y-77167142D02*
X164525952Y-77262380D01*
X164525952Y-77262380D02*
X164478333Y-77309999D01*
X164478333Y-77309999D02*
X164383095Y-77357618D01*
X164383095Y-77357618D02*
X164287857Y-77357618D01*
X164287857Y-77357618D02*
X164192619Y-77309999D01*
X164192619Y-77309999D02*
X164145000Y-77262380D01*
X164145000Y-77262380D02*
X164097380Y-77167142D01*
X164097380Y-77167142D02*
X164097380Y-76929047D01*
X164097380Y-76929047D02*
X164145000Y-76786190D01*
X165097380Y-76357618D02*
X164430714Y-76357618D01*
X164525952Y-76357618D02*
X164478333Y-76309999D01*
X164478333Y-76309999D02*
X164430714Y-76214761D01*
X164430714Y-76214761D02*
X164430714Y-76071904D01*
X164430714Y-76071904D02*
X164478333Y-75976666D01*
X164478333Y-75976666D02*
X164573571Y-75929047D01*
X164573571Y-75929047D02*
X165097380Y-75929047D01*
X164573571Y-75929047D02*
X164478333Y-75881428D01*
X164478333Y-75881428D02*
X164430714Y-75786190D01*
X164430714Y-75786190D02*
X164430714Y-75643333D01*
X164430714Y-75643333D02*
X164478333Y-75548094D01*
X164478333Y-75548094D02*
X164573571Y-75500475D01*
X164573571Y-75500475D02*
X165097380Y-75500475D01*
X165097380Y-74595714D02*
X164573571Y-74595714D01*
X164573571Y-74595714D02*
X164478333Y-74643333D01*
X164478333Y-74643333D02*
X164430714Y-74738571D01*
X164430714Y-74738571D02*
X164430714Y-74929047D01*
X164430714Y-74929047D02*
X164478333Y-75024285D01*
X165049761Y-74595714D02*
X165097380Y-74690952D01*
X165097380Y-74690952D02*
X165097380Y-74929047D01*
X165097380Y-74929047D02*
X165049761Y-75024285D01*
X165049761Y-75024285D02*
X164954523Y-75071904D01*
X164954523Y-75071904D02*
X164859285Y-75071904D01*
X164859285Y-75071904D02*
X164764047Y-75024285D01*
X164764047Y-75024285D02*
X164716428Y-74929047D01*
X164716428Y-74929047D02*
X164716428Y-74690952D01*
X164716428Y-74690952D02*
X164668809Y-74595714D01*
X165097380Y-73976666D02*
X165049761Y-74071904D01*
X165049761Y-74071904D02*
X164954523Y-74119523D01*
X164954523Y-74119523D02*
X164097380Y-74119523D01*
X165097380Y-73452856D02*
X165049761Y-73548094D01*
X165049761Y-73548094D02*
X164954523Y-73595713D01*
X164954523Y-73595713D02*
X164097380Y-73595713D01*
X167567380Y-77438094D02*
X166567380Y-77438094D01*
X166567380Y-77438094D02*
X166567380Y-77199999D01*
X166567380Y-77199999D02*
X166615000Y-77057142D01*
X166615000Y-77057142D02*
X166710238Y-76961904D01*
X166710238Y-76961904D02*
X166805476Y-76914285D01*
X166805476Y-76914285D02*
X166995952Y-76866666D01*
X166995952Y-76866666D02*
X167138809Y-76866666D01*
X167138809Y-76866666D02*
X167329285Y-76914285D01*
X167329285Y-76914285D02*
X167424523Y-76961904D01*
X167424523Y-76961904D02*
X167519761Y-77057142D01*
X167519761Y-77057142D02*
X167567380Y-77199999D01*
X167567380Y-77199999D02*
X167567380Y-77438094D01*
X166567380Y-75961904D02*
X166567380Y-76438094D01*
X166567380Y-76438094D02*
X167043571Y-76485713D01*
X167043571Y-76485713D02*
X166995952Y-76438094D01*
X166995952Y-76438094D02*
X166948333Y-76342856D01*
X166948333Y-76342856D02*
X166948333Y-76104761D01*
X166948333Y-76104761D02*
X166995952Y-76009523D01*
X166995952Y-76009523D02*
X167043571Y-75961904D01*
X167043571Y-75961904D02*
X167138809Y-75914285D01*
X167138809Y-75914285D02*
X167376904Y-75914285D01*
X167376904Y-75914285D02*
X167472142Y-75961904D01*
X167472142Y-75961904D02*
X167519761Y-76009523D01*
X167519761Y-76009523D02*
X167567380Y-76104761D01*
X167567380Y-76104761D02*
X167567380Y-76342856D01*
X167567380Y-76342856D02*
X167519761Y-76438094D01*
X167519761Y-76438094D02*
X167472142Y-76485713D01*
X169467380Y-72761904D02*
X168467380Y-72761904D01*
X169467380Y-72190476D02*
X168895952Y-72619047D01*
X168467380Y-72190476D02*
X169038809Y-72761904D01*
%TO.C,H3*%
X86654285Y-60659380D02*
X86654285Y-59659380D01*
X86654285Y-59659380D02*
X86987618Y-60373666D01*
X86987618Y-60373666D02*
X87320951Y-59659380D01*
X87320951Y-59659380D02*
X87320951Y-60659380D01*
X87939999Y-60659380D02*
X87844761Y-60611761D01*
X87844761Y-60611761D02*
X87797142Y-60564142D01*
X87797142Y-60564142D02*
X87749523Y-60468904D01*
X87749523Y-60468904D02*
X87749523Y-60183190D01*
X87749523Y-60183190D02*
X87797142Y-60087952D01*
X87797142Y-60087952D02*
X87844761Y-60040333D01*
X87844761Y-60040333D02*
X87939999Y-59992714D01*
X87939999Y-59992714D02*
X88082856Y-59992714D01*
X88082856Y-59992714D02*
X88178094Y-60040333D01*
X88178094Y-60040333D02*
X88225713Y-60087952D01*
X88225713Y-60087952D02*
X88273332Y-60183190D01*
X88273332Y-60183190D02*
X88273332Y-60468904D01*
X88273332Y-60468904D02*
X88225713Y-60564142D01*
X88225713Y-60564142D02*
X88178094Y-60611761D01*
X88178094Y-60611761D02*
X88082856Y-60659380D01*
X88082856Y-60659380D02*
X87939999Y-60659380D01*
X89130475Y-59992714D02*
X89130475Y-60659380D01*
X88701904Y-59992714D02*
X88701904Y-60516523D01*
X88701904Y-60516523D02*
X88749523Y-60611761D01*
X88749523Y-60611761D02*
X88844761Y-60659380D01*
X88844761Y-60659380D02*
X88987618Y-60659380D01*
X88987618Y-60659380D02*
X89082856Y-60611761D01*
X89082856Y-60611761D02*
X89130475Y-60564142D01*
X89606666Y-59992714D02*
X89606666Y-60659380D01*
X89606666Y-60087952D02*
X89654285Y-60040333D01*
X89654285Y-60040333D02*
X89749523Y-59992714D01*
X89749523Y-59992714D02*
X89892380Y-59992714D01*
X89892380Y-59992714D02*
X89987618Y-60040333D01*
X89987618Y-60040333D02*
X90035237Y-60135571D01*
X90035237Y-60135571D02*
X90035237Y-60659380D01*
X90368571Y-59992714D02*
X90749523Y-59992714D01*
X90511428Y-59659380D02*
X90511428Y-60516523D01*
X90511428Y-60516523D02*
X90559047Y-60611761D01*
X90559047Y-60611761D02*
X90654285Y-60659380D01*
X90654285Y-60659380D02*
X90749523Y-60659380D01*
X91082857Y-60659380D02*
X91082857Y-59992714D01*
X91082857Y-59659380D02*
X91035238Y-59707000D01*
X91035238Y-59707000D02*
X91082857Y-59754619D01*
X91082857Y-59754619D02*
X91130476Y-59707000D01*
X91130476Y-59707000D02*
X91082857Y-59659380D01*
X91082857Y-59659380D02*
X91082857Y-59754619D01*
X91559047Y-59992714D02*
X91559047Y-60659380D01*
X91559047Y-60087952D02*
X91606666Y-60040333D01*
X91606666Y-60040333D02*
X91701904Y-59992714D01*
X91701904Y-59992714D02*
X91844761Y-59992714D01*
X91844761Y-59992714D02*
X91939999Y-60040333D01*
X91939999Y-60040333D02*
X91987618Y-60135571D01*
X91987618Y-60135571D02*
X91987618Y-60659380D01*
X92892380Y-59992714D02*
X92892380Y-60802238D01*
X92892380Y-60802238D02*
X92844761Y-60897476D01*
X92844761Y-60897476D02*
X92797142Y-60945095D01*
X92797142Y-60945095D02*
X92701904Y-60992714D01*
X92701904Y-60992714D02*
X92559047Y-60992714D01*
X92559047Y-60992714D02*
X92463809Y-60945095D01*
X92892380Y-60611761D02*
X92797142Y-60659380D01*
X92797142Y-60659380D02*
X92606666Y-60659380D01*
X92606666Y-60659380D02*
X92511428Y-60611761D01*
X92511428Y-60611761D02*
X92463809Y-60564142D01*
X92463809Y-60564142D02*
X92416190Y-60468904D01*
X92416190Y-60468904D02*
X92416190Y-60183190D01*
X92416190Y-60183190D02*
X92463809Y-60087952D01*
X92463809Y-60087952D02*
X92511428Y-60040333D01*
X92511428Y-60040333D02*
X92606666Y-59992714D01*
X92606666Y-59992714D02*
X92797142Y-59992714D01*
X92797142Y-59992714D02*
X92892380Y-60040333D01*
X93368571Y-60659380D02*
X93368571Y-59659380D01*
X93368571Y-60135571D02*
X93939999Y-60135571D01*
X93939999Y-60659380D02*
X93939999Y-59659380D01*
X94559047Y-60659380D02*
X94463809Y-60611761D01*
X94463809Y-60611761D02*
X94416190Y-60564142D01*
X94416190Y-60564142D02*
X94368571Y-60468904D01*
X94368571Y-60468904D02*
X94368571Y-60183190D01*
X94368571Y-60183190D02*
X94416190Y-60087952D01*
X94416190Y-60087952D02*
X94463809Y-60040333D01*
X94463809Y-60040333D02*
X94559047Y-59992714D01*
X94559047Y-59992714D02*
X94701904Y-59992714D01*
X94701904Y-59992714D02*
X94797142Y-60040333D01*
X94797142Y-60040333D02*
X94844761Y-60087952D01*
X94844761Y-60087952D02*
X94892380Y-60183190D01*
X94892380Y-60183190D02*
X94892380Y-60468904D01*
X94892380Y-60468904D02*
X94844761Y-60564142D01*
X94844761Y-60564142D02*
X94797142Y-60611761D01*
X94797142Y-60611761D02*
X94701904Y-60659380D01*
X94701904Y-60659380D02*
X94559047Y-60659380D01*
X95463809Y-60659380D02*
X95368571Y-60611761D01*
X95368571Y-60611761D02*
X95320952Y-60516523D01*
X95320952Y-60516523D02*
X95320952Y-59659380D01*
X96225714Y-60611761D02*
X96130476Y-60659380D01*
X96130476Y-60659380D02*
X95940000Y-60659380D01*
X95940000Y-60659380D02*
X95844762Y-60611761D01*
X95844762Y-60611761D02*
X95797143Y-60516523D01*
X95797143Y-60516523D02*
X95797143Y-60135571D01*
X95797143Y-60135571D02*
X95844762Y-60040333D01*
X95844762Y-60040333D02*
X95940000Y-59992714D01*
X95940000Y-59992714D02*
X96130476Y-59992714D01*
X96130476Y-59992714D02*
X96225714Y-60040333D01*
X96225714Y-60040333D02*
X96273333Y-60135571D01*
X96273333Y-60135571D02*
X96273333Y-60230809D01*
X96273333Y-60230809D02*
X95797143Y-60326047D01*
X82846095Y-56459380D02*
X82846095Y-55459380D01*
X82846095Y-55935571D02*
X83417523Y-55935571D01*
X83417523Y-56459380D02*
X83417523Y-55459380D01*
X83798476Y-55459380D02*
X84417523Y-55459380D01*
X84417523Y-55459380D02*
X84084190Y-55840333D01*
X84084190Y-55840333D02*
X84227047Y-55840333D01*
X84227047Y-55840333D02*
X84322285Y-55887952D01*
X84322285Y-55887952D02*
X84369904Y-55935571D01*
X84369904Y-55935571D02*
X84417523Y-56030809D01*
X84417523Y-56030809D02*
X84417523Y-56268904D01*
X84417523Y-56268904D02*
X84369904Y-56364142D01*
X84369904Y-56364142D02*
X84322285Y-56411761D01*
X84322285Y-56411761D02*
X84227047Y-56459380D01*
X84227047Y-56459380D02*
X83941333Y-56459380D01*
X83941333Y-56459380D02*
X83846095Y-56411761D01*
X83846095Y-56411761D02*
X83798476Y-56364142D01*
%TO.C,Q2*%
X160709524Y-87489761D02*
X160852381Y-87537380D01*
X160852381Y-87537380D02*
X161090476Y-87537380D01*
X161090476Y-87537380D02*
X161185714Y-87489761D01*
X161185714Y-87489761D02*
X161233333Y-87442142D01*
X161233333Y-87442142D02*
X161280952Y-87346904D01*
X161280952Y-87346904D02*
X161280952Y-87251666D01*
X161280952Y-87251666D02*
X161233333Y-87156428D01*
X161233333Y-87156428D02*
X161185714Y-87108809D01*
X161185714Y-87108809D02*
X161090476Y-87061190D01*
X161090476Y-87061190D02*
X160900000Y-87013571D01*
X160900000Y-87013571D02*
X160804762Y-86965952D01*
X160804762Y-86965952D02*
X160757143Y-86918333D01*
X160757143Y-86918333D02*
X160709524Y-86823095D01*
X160709524Y-86823095D02*
X160709524Y-86727857D01*
X160709524Y-86727857D02*
X160757143Y-86632619D01*
X160757143Y-86632619D02*
X160804762Y-86585000D01*
X160804762Y-86585000D02*
X160900000Y-86537380D01*
X160900000Y-86537380D02*
X161138095Y-86537380D01*
X161138095Y-86537380D02*
X161280952Y-86585000D01*
X161757143Y-87537380D02*
X161947619Y-87537380D01*
X161947619Y-87537380D02*
X162042857Y-87489761D01*
X162042857Y-87489761D02*
X162090476Y-87442142D01*
X162090476Y-87442142D02*
X162185714Y-87299285D01*
X162185714Y-87299285D02*
X162233333Y-87108809D01*
X162233333Y-87108809D02*
X162233333Y-86727857D01*
X162233333Y-86727857D02*
X162185714Y-86632619D01*
X162185714Y-86632619D02*
X162138095Y-86585000D01*
X162138095Y-86585000D02*
X162042857Y-86537380D01*
X162042857Y-86537380D02*
X161852381Y-86537380D01*
X161852381Y-86537380D02*
X161757143Y-86585000D01*
X161757143Y-86585000D02*
X161709524Y-86632619D01*
X161709524Y-86632619D02*
X161661905Y-86727857D01*
X161661905Y-86727857D02*
X161661905Y-86965952D01*
X161661905Y-86965952D02*
X161709524Y-87061190D01*
X161709524Y-87061190D02*
X161757143Y-87108809D01*
X161757143Y-87108809D02*
X161852381Y-87156428D01*
X161852381Y-87156428D02*
X162042857Y-87156428D01*
X162042857Y-87156428D02*
X162138095Y-87108809D01*
X162138095Y-87108809D02*
X162185714Y-87061190D01*
X162185714Y-87061190D02*
X162233333Y-86965952D01*
X162852381Y-86537380D02*
X162947619Y-86537380D01*
X162947619Y-86537380D02*
X163042857Y-86585000D01*
X163042857Y-86585000D02*
X163090476Y-86632619D01*
X163090476Y-86632619D02*
X163138095Y-86727857D01*
X163138095Y-86727857D02*
X163185714Y-86918333D01*
X163185714Y-86918333D02*
X163185714Y-87156428D01*
X163185714Y-87156428D02*
X163138095Y-87346904D01*
X163138095Y-87346904D02*
X163090476Y-87442142D01*
X163090476Y-87442142D02*
X163042857Y-87489761D01*
X163042857Y-87489761D02*
X162947619Y-87537380D01*
X162947619Y-87537380D02*
X162852381Y-87537380D01*
X162852381Y-87537380D02*
X162757143Y-87489761D01*
X162757143Y-87489761D02*
X162709524Y-87442142D01*
X162709524Y-87442142D02*
X162661905Y-87346904D01*
X162661905Y-87346904D02*
X162614286Y-87156428D01*
X162614286Y-87156428D02*
X162614286Y-86918333D01*
X162614286Y-86918333D02*
X162661905Y-86727857D01*
X162661905Y-86727857D02*
X162709524Y-86632619D01*
X162709524Y-86632619D02*
X162757143Y-86585000D01*
X162757143Y-86585000D02*
X162852381Y-86537380D01*
X164138095Y-87537380D02*
X163566667Y-87537380D01*
X163852381Y-87537380D02*
X163852381Y-86537380D01*
X163852381Y-86537380D02*
X163757143Y-86680238D01*
X163757143Y-86680238D02*
X163661905Y-86775476D01*
X163661905Y-86775476D02*
X163566667Y-86823095D01*
X164995238Y-86870714D02*
X164995238Y-87537380D01*
X164757143Y-86489761D02*
X164519048Y-87204047D01*
X164519048Y-87204047D02*
X165138095Y-87204047D01*
X163362619Y-92135238D02*
X163315000Y-92230476D01*
X163315000Y-92230476D02*
X163219761Y-92325714D01*
X163219761Y-92325714D02*
X163076904Y-92468571D01*
X163076904Y-92468571D02*
X163029285Y-92563809D01*
X163029285Y-92563809D02*
X163029285Y-92659047D01*
X163267380Y-92611428D02*
X163219761Y-92706666D01*
X163219761Y-92706666D02*
X163124523Y-92801904D01*
X163124523Y-92801904D02*
X162934047Y-92849523D01*
X162934047Y-92849523D02*
X162600714Y-92849523D01*
X162600714Y-92849523D02*
X162410238Y-92801904D01*
X162410238Y-92801904D02*
X162315000Y-92706666D01*
X162315000Y-92706666D02*
X162267380Y-92611428D01*
X162267380Y-92611428D02*
X162267380Y-92420952D01*
X162267380Y-92420952D02*
X162315000Y-92325714D01*
X162315000Y-92325714D02*
X162410238Y-92230476D01*
X162410238Y-92230476D02*
X162600714Y-92182857D01*
X162600714Y-92182857D02*
X162934047Y-92182857D01*
X162934047Y-92182857D02*
X163124523Y-92230476D01*
X163124523Y-92230476D02*
X163219761Y-92325714D01*
X163219761Y-92325714D02*
X163267380Y-92420952D01*
X163267380Y-92420952D02*
X163267380Y-92611428D01*
X162362619Y-91801904D02*
X162315000Y-91754285D01*
X162315000Y-91754285D02*
X162267380Y-91659047D01*
X162267380Y-91659047D02*
X162267380Y-91420952D01*
X162267380Y-91420952D02*
X162315000Y-91325714D01*
X162315000Y-91325714D02*
X162362619Y-91278095D01*
X162362619Y-91278095D02*
X162457857Y-91230476D01*
X162457857Y-91230476D02*
X162553095Y-91230476D01*
X162553095Y-91230476D02*
X162695952Y-91278095D01*
X162695952Y-91278095D02*
X163267380Y-91849523D01*
X163267380Y-91849523D02*
X163267380Y-91230476D01*
%TO.C,F1*%
X124143571Y-137692857D02*
X124143571Y-138026190D01*
X124667380Y-138026190D02*
X123667380Y-138026190D01*
X123667380Y-138026190D02*
X123667380Y-137550000D01*
X124000714Y-136740476D02*
X124667380Y-136740476D01*
X124000714Y-137169047D02*
X124524523Y-137169047D01*
X124524523Y-137169047D02*
X124619761Y-137121428D01*
X124619761Y-137121428D02*
X124667380Y-137026190D01*
X124667380Y-137026190D02*
X124667380Y-136883333D01*
X124667380Y-136883333D02*
X124619761Y-136788095D01*
X124619761Y-136788095D02*
X124572142Y-136740476D01*
X124619761Y-136311904D02*
X124667380Y-136216666D01*
X124667380Y-136216666D02*
X124667380Y-136026190D01*
X124667380Y-136026190D02*
X124619761Y-135930952D01*
X124619761Y-135930952D02*
X124524523Y-135883333D01*
X124524523Y-135883333D02*
X124476904Y-135883333D01*
X124476904Y-135883333D02*
X124381666Y-135930952D01*
X124381666Y-135930952D02*
X124334047Y-136026190D01*
X124334047Y-136026190D02*
X124334047Y-136169047D01*
X124334047Y-136169047D02*
X124286428Y-136264285D01*
X124286428Y-136264285D02*
X124191190Y-136311904D01*
X124191190Y-136311904D02*
X124143571Y-136311904D01*
X124143571Y-136311904D02*
X124048333Y-136264285D01*
X124048333Y-136264285D02*
X124000714Y-136169047D01*
X124000714Y-136169047D02*
X124000714Y-136026190D01*
X124000714Y-136026190D02*
X124048333Y-135930952D01*
X124619761Y-135073809D02*
X124667380Y-135169047D01*
X124667380Y-135169047D02*
X124667380Y-135359523D01*
X124667380Y-135359523D02*
X124619761Y-135454761D01*
X124619761Y-135454761D02*
X124524523Y-135502380D01*
X124524523Y-135502380D02*
X124143571Y-135502380D01*
X124143571Y-135502380D02*
X124048333Y-135454761D01*
X124048333Y-135454761D02*
X124000714Y-135359523D01*
X124000714Y-135359523D02*
X124000714Y-135169047D01*
X124000714Y-135169047D02*
X124048333Y-135073809D01*
X124048333Y-135073809D02*
X124143571Y-135026190D01*
X124143571Y-135026190D02*
X124238809Y-135026190D01*
X124238809Y-135026190D02*
X124334047Y-135502380D01*
X122143571Y-136883333D02*
X122143571Y-137216666D01*
X122667380Y-137216666D02*
X121667380Y-137216666D01*
X121667380Y-137216666D02*
X121667380Y-136740476D01*
X122667380Y-135835714D02*
X122667380Y-136407142D01*
X122667380Y-136121428D02*
X121667380Y-136121428D01*
X121667380Y-136121428D02*
X121810238Y-136216666D01*
X121810238Y-136216666D02*
X121905476Y-136311904D01*
X121905476Y-136311904D02*
X121953095Y-136407142D01*
%TO.C,J10*%
X137762142Y-106438095D02*
X137809761Y-106485714D01*
X137809761Y-106485714D02*
X137857380Y-106628571D01*
X137857380Y-106628571D02*
X137857380Y-106723809D01*
X137857380Y-106723809D02*
X137809761Y-106866666D01*
X137809761Y-106866666D02*
X137714523Y-106961904D01*
X137714523Y-106961904D02*
X137619285Y-107009523D01*
X137619285Y-107009523D02*
X137428809Y-107057142D01*
X137428809Y-107057142D02*
X137285952Y-107057142D01*
X137285952Y-107057142D02*
X137095476Y-107009523D01*
X137095476Y-107009523D02*
X137000238Y-106961904D01*
X137000238Y-106961904D02*
X136905000Y-106866666D01*
X136905000Y-106866666D02*
X136857380Y-106723809D01*
X136857380Y-106723809D02*
X136857380Y-106628571D01*
X136857380Y-106628571D02*
X136905000Y-106485714D01*
X136905000Y-106485714D02*
X136952619Y-106438095D01*
X137857380Y-105866666D02*
X137809761Y-105961904D01*
X137809761Y-105961904D02*
X137762142Y-106009523D01*
X137762142Y-106009523D02*
X137666904Y-106057142D01*
X137666904Y-106057142D02*
X137381190Y-106057142D01*
X137381190Y-106057142D02*
X137285952Y-106009523D01*
X137285952Y-106009523D02*
X137238333Y-105961904D01*
X137238333Y-105961904D02*
X137190714Y-105866666D01*
X137190714Y-105866666D02*
X137190714Y-105723809D01*
X137190714Y-105723809D02*
X137238333Y-105628571D01*
X137238333Y-105628571D02*
X137285952Y-105580952D01*
X137285952Y-105580952D02*
X137381190Y-105533333D01*
X137381190Y-105533333D02*
X137666904Y-105533333D01*
X137666904Y-105533333D02*
X137762142Y-105580952D01*
X137762142Y-105580952D02*
X137809761Y-105628571D01*
X137809761Y-105628571D02*
X137857380Y-105723809D01*
X137857380Y-105723809D02*
X137857380Y-105866666D01*
X137190714Y-105104761D02*
X137857380Y-105104761D01*
X137285952Y-105104761D02*
X137238333Y-105057142D01*
X137238333Y-105057142D02*
X137190714Y-104961904D01*
X137190714Y-104961904D02*
X137190714Y-104819047D01*
X137190714Y-104819047D02*
X137238333Y-104723809D01*
X137238333Y-104723809D02*
X137333571Y-104676190D01*
X137333571Y-104676190D02*
X137857380Y-104676190D01*
X137190714Y-104199999D02*
X137857380Y-104199999D01*
X137285952Y-104199999D02*
X137238333Y-104152380D01*
X137238333Y-104152380D02*
X137190714Y-104057142D01*
X137190714Y-104057142D02*
X137190714Y-103914285D01*
X137190714Y-103914285D02*
X137238333Y-103819047D01*
X137238333Y-103819047D02*
X137333571Y-103771428D01*
X137333571Y-103771428D02*
X137857380Y-103771428D01*
X137952619Y-103533333D02*
X137952619Y-102771428D01*
X136857380Y-102342856D02*
X136857380Y-102247618D01*
X136857380Y-102247618D02*
X136905000Y-102152380D01*
X136905000Y-102152380D02*
X136952619Y-102104761D01*
X136952619Y-102104761D02*
X137047857Y-102057142D01*
X137047857Y-102057142D02*
X137238333Y-102009523D01*
X137238333Y-102009523D02*
X137476428Y-102009523D01*
X137476428Y-102009523D02*
X137666904Y-102057142D01*
X137666904Y-102057142D02*
X137762142Y-102104761D01*
X137762142Y-102104761D02*
X137809761Y-102152380D01*
X137809761Y-102152380D02*
X137857380Y-102247618D01*
X137857380Y-102247618D02*
X137857380Y-102342856D01*
X137857380Y-102342856D02*
X137809761Y-102438094D01*
X137809761Y-102438094D02*
X137762142Y-102485713D01*
X137762142Y-102485713D02*
X137666904Y-102533332D01*
X137666904Y-102533332D02*
X137476428Y-102580951D01*
X137476428Y-102580951D02*
X137238333Y-102580951D01*
X137238333Y-102580951D02*
X137047857Y-102533332D01*
X137047857Y-102533332D02*
X136952619Y-102485713D01*
X136952619Y-102485713D02*
X136905000Y-102438094D01*
X136905000Y-102438094D02*
X136857380Y-102342856D01*
X137857380Y-101057142D02*
X137857380Y-101628570D01*
X137857380Y-101342856D02*
X136857380Y-101342856D01*
X136857380Y-101342856D02*
X137000238Y-101438094D01*
X137000238Y-101438094D02*
X137095476Y-101533332D01*
X137095476Y-101533332D02*
X137143095Y-101628570D01*
X137857380Y-100723808D02*
X137190714Y-100199999D01*
X137190714Y-100723808D02*
X137857380Y-100199999D01*
X136857380Y-99628570D02*
X136857380Y-99533332D01*
X136857380Y-99533332D02*
X136905000Y-99438094D01*
X136905000Y-99438094D02*
X136952619Y-99390475D01*
X136952619Y-99390475D02*
X137047857Y-99342856D01*
X137047857Y-99342856D02*
X137238333Y-99295237D01*
X137238333Y-99295237D02*
X137476428Y-99295237D01*
X137476428Y-99295237D02*
X137666904Y-99342856D01*
X137666904Y-99342856D02*
X137762142Y-99390475D01*
X137762142Y-99390475D02*
X137809761Y-99438094D01*
X137809761Y-99438094D02*
X137857380Y-99533332D01*
X137857380Y-99533332D02*
X137857380Y-99628570D01*
X137857380Y-99628570D02*
X137809761Y-99723808D01*
X137809761Y-99723808D02*
X137762142Y-99771427D01*
X137762142Y-99771427D02*
X137666904Y-99819046D01*
X137666904Y-99819046D02*
X137476428Y-99866665D01*
X137476428Y-99866665D02*
X137238333Y-99866665D01*
X137238333Y-99866665D02*
X137047857Y-99819046D01*
X137047857Y-99819046D02*
X136952619Y-99771427D01*
X136952619Y-99771427D02*
X136905000Y-99723808D01*
X136905000Y-99723808D02*
X136857380Y-99628570D01*
X136857380Y-98961903D02*
X136857380Y-98342856D01*
X136857380Y-98342856D02*
X137238333Y-98676189D01*
X137238333Y-98676189D02*
X137238333Y-98533332D01*
X137238333Y-98533332D02*
X137285952Y-98438094D01*
X137285952Y-98438094D02*
X137333571Y-98390475D01*
X137333571Y-98390475D02*
X137428809Y-98342856D01*
X137428809Y-98342856D02*
X137666904Y-98342856D01*
X137666904Y-98342856D02*
X137762142Y-98390475D01*
X137762142Y-98390475D02*
X137809761Y-98438094D01*
X137809761Y-98438094D02*
X137857380Y-98533332D01*
X137857380Y-98533332D02*
X137857380Y-98819046D01*
X137857380Y-98819046D02*
X137809761Y-98914284D01*
X137809761Y-98914284D02*
X137762142Y-98961903D01*
X141550476Y-102067380D02*
X141550476Y-102781666D01*
X141550476Y-102781666D02*
X141502857Y-102924523D01*
X141502857Y-102924523D02*
X141407619Y-103019761D01*
X141407619Y-103019761D02*
X141264762Y-103067380D01*
X141264762Y-103067380D02*
X141169524Y-103067380D01*
X142550476Y-103067380D02*
X141979048Y-103067380D01*
X142264762Y-103067380D02*
X142264762Y-102067380D01*
X142264762Y-102067380D02*
X142169524Y-102210238D01*
X142169524Y-102210238D02*
X142074286Y-102305476D01*
X142074286Y-102305476D02*
X141979048Y-102353095D01*
X143169524Y-102067380D02*
X143264762Y-102067380D01*
X143264762Y-102067380D02*
X143360000Y-102115000D01*
X143360000Y-102115000D02*
X143407619Y-102162619D01*
X143407619Y-102162619D02*
X143455238Y-102257857D01*
X143455238Y-102257857D02*
X143502857Y-102448333D01*
X143502857Y-102448333D02*
X143502857Y-102686428D01*
X143502857Y-102686428D02*
X143455238Y-102876904D01*
X143455238Y-102876904D02*
X143407619Y-102972142D01*
X143407619Y-102972142D02*
X143360000Y-103019761D01*
X143360000Y-103019761D02*
X143264762Y-103067380D01*
X143264762Y-103067380D02*
X143169524Y-103067380D01*
X143169524Y-103067380D02*
X143074286Y-103019761D01*
X143074286Y-103019761D02*
X143026667Y-102972142D01*
X143026667Y-102972142D02*
X142979048Y-102876904D01*
X142979048Y-102876904D02*
X142931429Y-102686428D01*
X142931429Y-102686428D02*
X142931429Y-102448333D01*
X142931429Y-102448333D02*
X142979048Y-102257857D01*
X142979048Y-102257857D02*
X143026667Y-102162619D01*
X143026667Y-102162619D02*
X143074286Y-102115000D01*
X143074286Y-102115000D02*
X143169524Y-102067380D01*
%TO.C,RV1*%
X110607380Y-107535238D02*
X110607380Y-108106666D01*
X110607380Y-107820952D02*
X109607380Y-107820952D01*
X109607380Y-107820952D02*
X109750238Y-107916190D01*
X109750238Y-107916190D02*
X109845476Y-108011428D01*
X109845476Y-108011428D02*
X109893095Y-108106666D01*
X109607380Y-106916190D02*
X109607380Y-106820952D01*
X109607380Y-106820952D02*
X109655000Y-106725714D01*
X109655000Y-106725714D02*
X109702619Y-106678095D01*
X109702619Y-106678095D02*
X109797857Y-106630476D01*
X109797857Y-106630476D02*
X109988333Y-106582857D01*
X109988333Y-106582857D02*
X110226428Y-106582857D01*
X110226428Y-106582857D02*
X110416904Y-106630476D01*
X110416904Y-106630476D02*
X110512142Y-106678095D01*
X110512142Y-106678095D02*
X110559761Y-106725714D01*
X110559761Y-106725714D02*
X110607380Y-106820952D01*
X110607380Y-106820952D02*
X110607380Y-106916190D01*
X110607380Y-106916190D02*
X110559761Y-107011428D01*
X110559761Y-107011428D02*
X110512142Y-107059047D01*
X110512142Y-107059047D02*
X110416904Y-107106666D01*
X110416904Y-107106666D02*
X110226428Y-107154285D01*
X110226428Y-107154285D02*
X109988333Y-107154285D01*
X109988333Y-107154285D02*
X109797857Y-107106666D01*
X109797857Y-107106666D02*
X109702619Y-107059047D01*
X109702619Y-107059047D02*
X109655000Y-107011428D01*
X109655000Y-107011428D02*
X109607380Y-106916190D01*
X110607380Y-106154285D02*
X109607380Y-106154285D01*
X110226428Y-106059047D02*
X110607380Y-105773333D01*
X109940714Y-105773333D02*
X110321666Y-106154285D01*
X114194761Y-104807380D02*
X113861428Y-104331190D01*
X113623333Y-104807380D02*
X113623333Y-103807380D01*
X113623333Y-103807380D02*
X114004285Y-103807380D01*
X114004285Y-103807380D02*
X114099523Y-103855000D01*
X114099523Y-103855000D02*
X114147142Y-103902619D01*
X114147142Y-103902619D02*
X114194761Y-103997857D01*
X114194761Y-103997857D02*
X114194761Y-104140714D01*
X114194761Y-104140714D02*
X114147142Y-104235952D01*
X114147142Y-104235952D02*
X114099523Y-104283571D01*
X114099523Y-104283571D02*
X114004285Y-104331190D01*
X114004285Y-104331190D02*
X113623333Y-104331190D01*
X114480476Y-103807380D02*
X114813809Y-104807380D01*
X114813809Y-104807380D02*
X115147142Y-103807380D01*
X116004285Y-104807380D02*
X115432857Y-104807380D01*
X115718571Y-104807380D02*
X115718571Y-103807380D01*
X115718571Y-103807380D02*
X115623333Y-103950238D01*
X115623333Y-103950238D02*
X115528095Y-104045476D01*
X115528095Y-104045476D02*
X115432857Y-104093095D01*
%TO.C,R1*%
X120619523Y-75237380D02*
X120286190Y-74761190D01*
X120048095Y-75237380D02*
X120048095Y-74237380D01*
X120048095Y-74237380D02*
X120429047Y-74237380D01*
X120429047Y-74237380D02*
X120524285Y-74285000D01*
X120524285Y-74285000D02*
X120571904Y-74332619D01*
X120571904Y-74332619D02*
X120619523Y-74427857D01*
X120619523Y-74427857D02*
X120619523Y-74570714D01*
X120619523Y-74570714D02*
X120571904Y-74665952D01*
X120571904Y-74665952D02*
X120524285Y-74713571D01*
X120524285Y-74713571D02*
X120429047Y-74761190D01*
X120429047Y-74761190D02*
X120048095Y-74761190D01*
X119143333Y-72067380D02*
X118810000Y-71591190D01*
X118571905Y-72067380D02*
X118571905Y-71067380D01*
X118571905Y-71067380D02*
X118952857Y-71067380D01*
X118952857Y-71067380D02*
X119048095Y-71115000D01*
X119048095Y-71115000D02*
X119095714Y-71162619D01*
X119095714Y-71162619D02*
X119143333Y-71257857D01*
X119143333Y-71257857D02*
X119143333Y-71400714D01*
X119143333Y-71400714D02*
X119095714Y-71495952D01*
X119095714Y-71495952D02*
X119048095Y-71543571D01*
X119048095Y-71543571D02*
X118952857Y-71591190D01*
X118952857Y-71591190D02*
X118571905Y-71591190D01*
X120095714Y-72067380D02*
X119524286Y-72067380D01*
X119810000Y-72067380D02*
X119810000Y-71067380D01*
X119810000Y-71067380D02*
X119714762Y-71210238D01*
X119714762Y-71210238D02*
X119619524Y-71305476D01*
X119619524Y-71305476D02*
X119524286Y-71353095D01*
%TO.C,H1*%
X200954285Y-151658004D02*
X200954285Y-150658004D01*
X200954285Y-150658004D02*
X201287618Y-151372290D01*
X201287618Y-151372290D02*
X201620951Y-150658004D01*
X201620951Y-150658004D02*
X201620951Y-151658004D01*
X202239999Y-151658004D02*
X202144761Y-151610385D01*
X202144761Y-151610385D02*
X202097142Y-151562766D01*
X202097142Y-151562766D02*
X202049523Y-151467528D01*
X202049523Y-151467528D02*
X202049523Y-151181814D01*
X202049523Y-151181814D02*
X202097142Y-151086576D01*
X202097142Y-151086576D02*
X202144761Y-151038957D01*
X202144761Y-151038957D02*
X202239999Y-150991338D01*
X202239999Y-150991338D02*
X202382856Y-150991338D01*
X202382856Y-150991338D02*
X202478094Y-151038957D01*
X202478094Y-151038957D02*
X202525713Y-151086576D01*
X202525713Y-151086576D02*
X202573332Y-151181814D01*
X202573332Y-151181814D02*
X202573332Y-151467528D01*
X202573332Y-151467528D02*
X202525713Y-151562766D01*
X202525713Y-151562766D02*
X202478094Y-151610385D01*
X202478094Y-151610385D02*
X202382856Y-151658004D01*
X202382856Y-151658004D02*
X202239999Y-151658004D01*
X203430475Y-150991338D02*
X203430475Y-151658004D01*
X203001904Y-150991338D02*
X203001904Y-151515147D01*
X203001904Y-151515147D02*
X203049523Y-151610385D01*
X203049523Y-151610385D02*
X203144761Y-151658004D01*
X203144761Y-151658004D02*
X203287618Y-151658004D01*
X203287618Y-151658004D02*
X203382856Y-151610385D01*
X203382856Y-151610385D02*
X203430475Y-151562766D01*
X203906666Y-150991338D02*
X203906666Y-151658004D01*
X203906666Y-151086576D02*
X203954285Y-151038957D01*
X203954285Y-151038957D02*
X204049523Y-150991338D01*
X204049523Y-150991338D02*
X204192380Y-150991338D01*
X204192380Y-150991338D02*
X204287618Y-151038957D01*
X204287618Y-151038957D02*
X204335237Y-151134195D01*
X204335237Y-151134195D02*
X204335237Y-151658004D01*
X204668571Y-150991338D02*
X205049523Y-150991338D01*
X204811428Y-150658004D02*
X204811428Y-151515147D01*
X204811428Y-151515147D02*
X204859047Y-151610385D01*
X204859047Y-151610385D02*
X204954285Y-151658004D01*
X204954285Y-151658004D02*
X205049523Y-151658004D01*
X205382857Y-151658004D02*
X205382857Y-150991338D01*
X205382857Y-150658004D02*
X205335238Y-150705624D01*
X205335238Y-150705624D02*
X205382857Y-150753243D01*
X205382857Y-150753243D02*
X205430476Y-150705624D01*
X205430476Y-150705624D02*
X205382857Y-150658004D01*
X205382857Y-150658004D02*
X205382857Y-150753243D01*
X205859047Y-150991338D02*
X205859047Y-151658004D01*
X205859047Y-151086576D02*
X205906666Y-151038957D01*
X205906666Y-151038957D02*
X206001904Y-150991338D01*
X206001904Y-150991338D02*
X206144761Y-150991338D01*
X206144761Y-150991338D02*
X206239999Y-151038957D01*
X206239999Y-151038957D02*
X206287618Y-151134195D01*
X206287618Y-151134195D02*
X206287618Y-151658004D01*
X207192380Y-150991338D02*
X207192380Y-151800862D01*
X207192380Y-151800862D02*
X207144761Y-151896100D01*
X207144761Y-151896100D02*
X207097142Y-151943719D01*
X207097142Y-151943719D02*
X207001904Y-151991338D01*
X207001904Y-151991338D02*
X206859047Y-151991338D01*
X206859047Y-151991338D02*
X206763809Y-151943719D01*
X207192380Y-151610385D02*
X207097142Y-151658004D01*
X207097142Y-151658004D02*
X206906666Y-151658004D01*
X206906666Y-151658004D02*
X206811428Y-151610385D01*
X206811428Y-151610385D02*
X206763809Y-151562766D01*
X206763809Y-151562766D02*
X206716190Y-151467528D01*
X206716190Y-151467528D02*
X206716190Y-151181814D01*
X206716190Y-151181814D02*
X206763809Y-151086576D01*
X206763809Y-151086576D02*
X206811428Y-151038957D01*
X206811428Y-151038957D02*
X206906666Y-150991338D01*
X206906666Y-150991338D02*
X207097142Y-150991338D01*
X207097142Y-150991338D02*
X207192380Y-151038957D01*
X207668571Y-151658004D02*
X207668571Y-150658004D01*
X207668571Y-151134195D02*
X208239999Y-151134195D01*
X208239999Y-151658004D02*
X208239999Y-150658004D01*
X208859047Y-151658004D02*
X208763809Y-151610385D01*
X208763809Y-151610385D02*
X208716190Y-151562766D01*
X208716190Y-151562766D02*
X208668571Y-151467528D01*
X208668571Y-151467528D02*
X208668571Y-151181814D01*
X208668571Y-151181814D02*
X208716190Y-151086576D01*
X208716190Y-151086576D02*
X208763809Y-151038957D01*
X208763809Y-151038957D02*
X208859047Y-150991338D01*
X208859047Y-150991338D02*
X209001904Y-150991338D01*
X209001904Y-150991338D02*
X209097142Y-151038957D01*
X209097142Y-151038957D02*
X209144761Y-151086576D01*
X209144761Y-151086576D02*
X209192380Y-151181814D01*
X209192380Y-151181814D02*
X209192380Y-151467528D01*
X209192380Y-151467528D02*
X209144761Y-151562766D01*
X209144761Y-151562766D02*
X209097142Y-151610385D01*
X209097142Y-151610385D02*
X209001904Y-151658004D01*
X209001904Y-151658004D02*
X208859047Y-151658004D01*
X209763809Y-151658004D02*
X209668571Y-151610385D01*
X209668571Y-151610385D02*
X209620952Y-151515147D01*
X209620952Y-151515147D02*
X209620952Y-150658004D01*
X210525714Y-151610385D02*
X210430476Y-151658004D01*
X210430476Y-151658004D02*
X210240000Y-151658004D01*
X210240000Y-151658004D02*
X210144762Y-151610385D01*
X210144762Y-151610385D02*
X210097143Y-151515147D01*
X210097143Y-151515147D02*
X210097143Y-151134195D01*
X210097143Y-151134195D02*
X210144762Y-151038957D01*
X210144762Y-151038957D02*
X210240000Y-150991338D01*
X210240000Y-150991338D02*
X210430476Y-150991338D01*
X210430476Y-150991338D02*
X210525714Y-151038957D01*
X210525714Y-151038957D02*
X210573333Y-151134195D01*
X210573333Y-151134195D02*
X210573333Y-151229433D01*
X210573333Y-151229433D02*
X210097143Y-151324671D01*
X215348694Y-147458004D02*
X215348694Y-146458004D01*
X215348694Y-146934195D02*
X215920122Y-146934195D01*
X215920122Y-147458004D02*
X215920122Y-146458004D01*
X216920122Y-147458004D02*
X216348694Y-147458004D01*
X216634408Y-147458004D02*
X216634408Y-146458004D01*
X216634408Y-146458004D02*
X216539170Y-146600862D01*
X216539170Y-146600862D02*
X216443932Y-146696100D01*
X216443932Y-146696100D02*
X216348694Y-146743719D01*
%TO.C,U4*%
X106117380Y-39095238D02*
X106117380Y-39571428D01*
X106117380Y-39571428D02*
X105117380Y-39571428D01*
X106117380Y-38761904D02*
X105117380Y-38761904D01*
X105117380Y-38761904D02*
X105117380Y-38523809D01*
X105117380Y-38523809D02*
X105165000Y-38380952D01*
X105165000Y-38380952D02*
X105260238Y-38285714D01*
X105260238Y-38285714D02*
X105355476Y-38238095D01*
X105355476Y-38238095D02*
X105545952Y-38190476D01*
X105545952Y-38190476D02*
X105688809Y-38190476D01*
X105688809Y-38190476D02*
X105879285Y-38238095D01*
X105879285Y-38238095D02*
X105974523Y-38285714D01*
X105974523Y-38285714D02*
X106069761Y-38380952D01*
X106069761Y-38380952D02*
X106117380Y-38523809D01*
X106117380Y-38523809D02*
X106117380Y-38761904D01*
X105212619Y-37809523D02*
X105165000Y-37761904D01*
X105165000Y-37761904D02*
X105117380Y-37666666D01*
X105117380Y-37666666D02*
X105117380Y-37428571D01*
X105117380Y-37428571D02*
X105165000Y-37333333D01*
X105165000Y-37333333D02*
X105212619Y-37285714D01*
X105212619Y-37285714D02*
X105307857Y-37238095D01*
X105307857Y-37238095D02*
X105403095Y-37238095D01*
X105403095Y-37238095D02*
X105545952Y-37285714D01*
X105545952Y-37285714D02*
X106117380Y-37857142D01*
X106117380Y-37857142D02*
X106117380Y-37238095D01*
X105450714Y-36380952D02*
X106117380Y-36380952D01*
X105069761Y-36619047D02*
X105784047Y-36857142D01*
X105784047Y-36857142D02*
X105784047Y-36238095D01*
X105117380Y-35380952D02*
X105117380Y-35857142D01*
X105117380Y-35857142D02*
X105593571Y-35904761D01*
X105593571Y-35904761D02*
X105545952Y-35857142D01*
X105545952Y-35857142D02*
X105498333Y-35761904D01*
X105498333Y-35761904D02*
X105498333Y-35523809D01*
X105498333Y-35523809D02*
X105545952Y-35428571D01*
X105545952Y-35428571D02*
X105593571Y-35380952D01*
X105593571Y-35380952D02*
X105688809Y-35333333D01*
X105688809Y-35333333D02*
X105926904Y-35333333D01*
X105926904Y-35333333D02*
X106022142Y-35380952D01*
X106022142Y-35380952D02*
X106069761Y-35428571D01*
X106069761Y-35428571D02*
X106117380Y-35523809D01*
X106117380Y-35523809D02*
X106117380Y-35761904D01*
X106117380Y-35761904D02*
X106069761Y-35857142D01*
X106069761Y-35857142D02*
X106022142Y-35904761D01*
X105117380Y-34714285D02*
X105117380Y-34619047D01*
X105117380Y-34619047D02*
X105165000Y-34523809D01*
X105165000Y-34523809D02*
X105212619Y-34476190D01*
X105212619Y-34476190D02*
X105307857Y-34428571D01*
X105307857Y-34428571D02*
X105498333Y-34380952D01*
X105498333Y-34380952D02*
X105736428Y-34380952D01*
X105736428Y-34380952D02*
X105926904Y-34428571D01*
X105926904Y-34428571D02*
X106022142Y-34476190D01*
X106022142Y-34476190D02*
X106069761Y-34523809D01*
X106069761Y-34523809D02*
X106117380Y-34619047D01*
X106117380Y-34619047D02*
X106117380Y-34714285D01*
X106117380Y-34714285D02*
X106069761Y-34809523D01*
X106069761Y-34809523D02*
X106022142Y-34857142D01*
X106022142Y-34857142D02*
X105926904Y-34904761D01*
X105926904Y-34904761D02*
X105736428Y-34952380D01*
X105736428Y-34952380D02*
X105498333Y-34952380D01*
X105498333Y-34952380D02*
X105307857Y-34904761D01*
X105307857Y-34904761D02*
X105212619Y-34857142D01*
X105212619Y-34857142D02*
X105165000Y-34809523D01*
X105165000Y-34809523D02*
X105117380Y-34714285D01*
D11*
%TO.C,R10*%
X119340689Y-68002003D02*
X120000689Y-68002003D01*
X120000689Y-66752003D02*
X120000689Y-69252003D01*
X120000689Y-69252003D02*
X126300689Y-69252003D01*
X126300689Y-66752003D02*
X120000689Y-66752003D01*
X126300689Y-69252003D02*
X126300689Y-66752003D01*
X126960689Y-68002003D02*
X126300689Y-68002003D01*
D13*
%TO.C,SW2*%
X154050000Y-74022124D02*
X154050000Y-68022124D01*
X157550000Y-74022124D02*
X154050000Y-74022124D01*
X154050000Y-68022124D02*
X157550000Y-68022124D01*
X157550000Y-68022124D02*
X157550000Y-74022124D01*
D14*
%TO.C,U1*%
X95353415Y-77751720D02*
X148693415Y-77751720D01*
X151233415Y-80291720D02*
X151233415Y-98071720D01*
D11*
X145992165Y-81475470D02*
X145992165Y-96875470D01*
D15*
X98814665Y-84861720D02*
X97194665Y-84861720D01*
D16*
X98814665Y-84861720D02*
X98814665Y-93501720D01*
D15*
X94864665Y-84861720D02*
X93264665Y-84861720D01*
D16*
X91464665Y-84861720D02*
X98814665Y-84861720D01*
X91464665Y-84861720D02*
X91464665Y-93501720D01*
D15*
X98814665Y-93501720D02*
X97194665Y-93501720D01*
D16*
X98814665Y-93501720D02*
X91464665Y-93501720D01*
D15*
X94864665Y-93501720D02*
X93264665Y-93501720D01*
D14*
X92813415Y-98071720D02*
X92813415Y-80291720D01*
X148693415Y-100611720D02*
X95353415Y-100611720D01*
X151233415Y-80291720D02*
G75*
G03*
X148693415Y-77751720I-2540001J-1D01*
G01*
X95353415Y-77751720D02*
G75*
G03*
X92813415Y-80291720I1J-2540001D01*
G01*
D16*
X91459665Y-93501720D02*
G75*
G03*
X91459665Y-84861720I-22992027J4320000D01*
G01*
D14*
X148693415Y-100611720D02*
G75*
G03*
X151233415Y-98071720I0J2540000D01*
G01*
X92813415Y-98071720D02*
G75*
G03*
X95353415Y-100611720I2540000J0D01*
G01*
X150344415Y-80291720D02*
G75*
G03*
X150344415Y-80291720I-1651000J0D01*
G01*
X97004415Y-80291720D02*
G75*
G03*
X97004415Y-80291720I-1651000J0D01*
G01*
X150344415Y-98071720D02*
G75*
G03*
X150344415Y-98071720I-1651000J0D01*
G01*
X97004415Y-98071720D02*
G75*
G03*
X97004415Y-98071720I-1651000J0D01*
G01*
D11*
%TO.C,R13*%
X155290000Y-100500000D02*
X155950000Y-100500000D01*
X155950000Y-99250000D02*
X155950000Y-101750000D01*
X155950000Y-101750000D02*
X162250000Y-101750000D01*
X162250000Y-99250000D02*
X155950000Y-99250000D01*
X162250000Y-101750000D02*
X162250000Y-99250000D01*
X162910000Y-100500000D02*
X162250000Y-100500000D01*
%TO.C,JP1*%
X107835000Y-107930000D02*
X108470000Y-108565000D01*
X100850000Y-107930000D02*
X107835000Y-107930000D01*
X108470000Y-108565000D02*
X108470000Y-110470000D01*
X108470000Y-110470000D02*
X100850000Y-110470000D01*
X100850000Y-110470000D02*
X100850000Y-107930000D01*
%TO.C,J9*%
X130249875Y-101530000D02*
X130884875Y-102165000D01*
X120724875Y-101530000D02*
X130249875Y-101530000D01*
X130884875Y-102165000D02*
X130884875Y-104070000D01*
X130884875Y-104070000D02*
X120724875Y-104070000D01*
X120724875Y-104070000D02*
X120724875Y-101530000D01*
%TO.C,J1*%
X150735000Y-71930000D02*
X151370000Y-72565000D01*
X136130000Y-71930000D02*
X150735000Y-71930000D01*
X151370000Y-72565000D02*
X151370000Y-74470000D01*
X151370000Y-74470000D02*
X136130000Y-74470000D01*
X136130000Y-74470000D02*
X136130000Y-71930000D01*
D13*
%TO.C,SW1*%
X160550000Y-73800000D02*
X160550000Y-67800000D01*
X164050000Y-73800000D02*
X160550000Y-73800000D01*
X160550000Y-67800000D02*
X164050000Y-67800000D01*
X164050000Y-67800000D02*
X164050000Y-73800000D01*
D11*
%TO.C,PS2*%
X186330000Y-149757500D02*
X211730000Y-149757500D01*
X211730000Y-149757500D02*
X211730000Y-104057500D01*
X197530000Y-148757500D02*
X196530000Y-149757500D01*
X197530000Y-148757500D02*
X198530000Y-149757500D01*
X186330000Y-104057500D02*
X186330000Y-149757500D01*
X186330000Y-104057500D02*
X211730000Y-104057500D01*
%TO.C,D1*%
X133570000Y-73869694D02*
X133570000Y-70930306D01*
X133570016Y-70930334D02*
G75*
G03*
X133570000Y-73869694I-2500016J-1469666D01*
G01*
X133570000Y-72400000D02*
G75*
G03*
X133570000Y-72400000I-2500000J0D01*
G01*
%TO.C,K1*%
X167300000Y-84000000D02*
X186300000Y-84000000D01*
X167300000Y-99200000D02*
X167300000Y-84000000D01*
X186300000Y-84000000D02*
X186300000Y-99200000D01*
X186300000Y-99200000D02*
X167300000Y-99200000D01*
%TO.C,J7*%
X198000000Y-83700000D02*
X198000000Y-73700000D01*
X200900000Y-83700000D02*
X200900000Y-73700000D01*
X205800000Y-83700000D02*
X205800000Y-73700000D01*
X207300000Y-83700000D02*
X198000000Y-83700000D01*
X207300000Y-83700000D02*
X207300000Y-73700000D01*
X207800000Y-83200000D02*
X207300000Y-83700000D01*
X202062000Y-80245000D02*
X204155000Y-82338000D01*
X202245000Y-80062000D02*
X204338000Y-82155000D01*
X202062000Y-75245000D02*
X204155000Y-77337000D01*
X202245000Y-75062000D02*
X204338000Y-77154000D01*
X198000000Y-73700000D02*
X207800000Y-73700000D01*
X207800000Y-73700000D02*
X207800000Y-83200000D01*
X204700000Y-81200000D02*
G75*
G03*
X204700000Y-81200000I-1500000J0D01*
G01*
X204700000Y-76200000D02*
G75*
G03*
X204700000Y-76200000I-1500000J0D01*
G01*
%TO.C,R8*%
X134620000Y-64500000D02*
X133960000Y-64500000D01*
X133960000Y-65750000D02*
X133960000Y-63250000D01*
X133960000Y-63250000D02*
X127660000Y-63250000D01*
X127660000Y-65750000D02*
X133960000Y-65750000D01*
X127660000Y-63250000D02*
X127660000Y-65750000D01*
X127000000Y-64500000D02*
X127660000Y-64500000D01*
%TO.C,R7*%
X145310000Y-64500000D02*
X144650000Y-64500000D01*
X144650000Y-65750000D02*
X144650000Y-63250000D01*
X144650000Y-63250000D02*
X138350000Y-63250000D01*
X138350000Y-65750000D02*
X144650000Y-65750000D01*
X138350000Y-63250000D02*
X138350000Y-65750000D01*
X137690000Y-64500000D02*
X138350000Y-64500000D01*
%TO.C,R9*%
X114400000Y-65000000D02*
X115060000Y-65000000D01*
X115060000Y-63750000D02*
X115060000Y-66250000D01*
X115060000Y-66250000D02*
X121360000Y-66250000D01*
X121360000Y-63750000D02*
X115060000Y-63750000D01*
X121360000Y-66250000D02*
X121360000Y-63750000D01*
X122020000Y-65000000D02*
X121360000Y-65000000D01*
%TO.C,D5*%
X167200000Y-72500000D02*
X167200000Y-73710000D01*
X168550000Y-73710000D02*
X165850000Y-73710000D01*
X165850000Y-73710000D02*
X165850000Y-78910000D01*
X168550000Y-74390000D02*
X165850000Y-74390000D01*
X168550000Y-74490000D02*
X165850000Y-74490000D01*
X168550000Y-74590000D02*
X165850000Y-74590000D01*
X168550000Y-78910000D02*
X168550000Y-73710000D01*
X165850000Y-78910000D02*
X168550000Y-78910000D01*
X167200000Y-80120000D02*
X167200000Y-78910000D01*
%TO.C,Q2*%
X164170000Y-95215000D02*
X163535000Y-95850000D01*
X164170000Y-88230000D02*
X164170000Y-95215000D01*
X163535000Y-95850000D02*
X161630000Y-95850000D01*
X161630000Y-95850000D02*
X161630000Y-88230000D01*
X161630000Y-88230000D02*
X164170000Y-88230000D01*
%TO.C,F1*%
X113500000Y-147800000D02*
X123100000Y-147800000D01*
X123100000Y-147800000D02*
X123100000Y-125300000D01*
X113500000Y-125300000D02*
X113500000Y-147800000D01*
X123100000Y-125300000D02*
X113500000Y-125300000D01*
%TO.C,J10*%
X145535000Y-101430000D02*
X146170000Y-102065000D01*
X138550000Y-101430000D02*
X145535000Y-101430000D01*
X146170000Y-102065000D02*
X146170000Y-103970000D01*
X146170000Y-103970000D02*
X138550000Y-103970000D01*
X138550000Y-103970000D02*
X138550000Y-101430000D01*
%TO.C,RV1*%
X118090000Y-103440000D02*
X111490000Y-103440000D01*
X111490000Y-103440000D02*
X111490000Y-110440000D01*
X114866000Y-106039000D02*
X114866000Y-107164000D01*
X114714000Y-106039000D02*
X114866000Y-106039000D01*
X115991000Y-107164000D02*
X115991000Y-107316000D01*
X114866000Y-107164000D02*
X115991000Y-107164000D01*
X114714000Y-107164000D02*
X114714000Y-106039000D01*
X113589000Y-107164000D02*
X114714000Y-107164000D01*
X115991000Y-107316000D02*
X114866000Y-107316000D01*
X114866000Y-107316000D02*
X114866000Y-108441000D01*
X114714000Y-107316000D02*
X113589000Y-107316000D01*
X113589000Y-107316000D02*
X113589000Y-107164000D01*
X114866000Y-108441000D02*
X114714000Y-108441000D01*
X114714000Y-108441000D02*
X114714000Y-107316000D01*
X118090000Y-110440000D02*
X118090000Y-103440000D01*
X111490000Y-110440000D02*
X118090000Y-110440000D01*
X116290000Y-107240000D02*
G75*
G03*
X116290000Y-107240000I-1500000J0D01*
G01*
%TO.C,R1*%
X116500000Y-72500000D02*
X117160000Y-72500000D01*
X117160000Y-71250000D02*
X117160000Y-73750000D01*
X117160000Y-73750000D02*
X123460000Y-73750000D01*
X123460000Y-71250000D02*
X117160000Y-71250000D01*
X123460000Y-73750000D02*
X123460000Y-71250000D01*
X124120000Y-72500000D02*
X123460000Y-72500000D01*
%TD*%
M02*
