M48
; DRILL file {KiCad (7.0.0-0)} date Sunday 26 May 2024 at 10:43:33
; FORMAT={-:-/ absolute / inch / decimal}
; #@! TF.CreationDate,2024-05-26T10:43:33+02:00
; #@! TF.GenerationSoftware,Kicad,Pcbnew,(7.0.0-0)
; #@! TF.FileFunction,Plated,1,2,PTH
FMAT,2
INCH
; #@! TA.AperFunction,Plated,PTH,ComponentDrill
T1C0.0315
; #@! TA.AperFunction,Plated,PTH,ComponentDrill
T2C0.0354
; #@! TA.AperFunction,Plated,PTH,ComponentDrill
T3C0.0394
; #@! TA.AperFunction,Plated,PTH,ViaDrill
T4C0.0433
; #@! TA.AperFunction,Plated,PTH,ComponentDrill
T5C0.0472
; #@! TA.AperFunction,Plated,PTH,ComponentDrill
T6C0.0512
; #@! TA.AperFunction,Plated,PTH,ComponentDrill
T7C0.0591
; #@! TA.AperFunction,Plated,PTH,ComponentDrill
T8C0.0630
%
G90
G05
T1
X4.4193Y-4.2126
X4.5039Y-2.5591
X4.5193Y-4.3126
X4.5866Y-2.8543
X4.6193Y-4.2126
X4.6985Y-2.6772
X4.8039Y-2.5591
X4.8866Y-2.8543
X4.9985Y-2.6772
X5.0Y-2.5394
X5.1102Y-2.8504
X5.3Y-2.5394
X5.4209Y-2.5394
X5.7209Y-2.5394
X6.1138Y-3.9567
X6.4138Y-3.9567
T2
X6.5827Y-2.8543
X6.5827Y-3.1543
T3
X4.0205Y-4.2992
X4.1205Y-4.2992
X4.2041Y-3.9111
X4.2205Y-4.2992
X4.3041Y-3.9111
X4.4041Y-3.9111
X4.5041Y-3.9111
X4.6041Y-3.1111
X4.6041Y-3.9111
X4.7041Y-3.1111
X4.7041Y-3.9111
X4.7269Y-2.3501
X4.8029Y-4.0472
X4.8041Y-3.1111
X4.8041Y-3.9111
X4.8269Y-2.3501
X4.9029Y-4.0472
X4.9041Y-3.1111
X4.9041Y-3.9111
X4.9269Y-2.3501
X5.0029Y-4.0472
X5.0041Y-3.1111
X5.0041Y-3.9111
X5.0269Y-2.3501
X5.1029Y-4.0472
X5.1041Y-3.1111
X5.1041Y-3.9111
X5.1269Y-2.3501
X5.2041Y-3.1111
X5.2041Y-3.9111
X5.2102Y-2.8504
X5.3041Y-3.1111
X5.3041Y-3.9111
X5.4041Y-3.1111
X5.4041Y-3.9111
X5.4094Y-2.8819
X5.5041Y-3.1111
X5.5041Y-3.9111
X5.5047Y-4.0433
X5.5094Y-2.8819
X5.6041Y-3.1111
X5.6041Y-3.9111
X5.6047Y-4.0433
X5.6094Y-2.8819
X5.7041Y-3.1111
X5.7041Y-3.9111
X5.7047Y-4.0433
X5.7094Y-2.8819
X5.8094Y-2.8819
X5.9094Y-2.8819
X6.1098Y-2.3498
X6.2098Y-2.3498
X6.3098Y-2.3498
X6.4098Y-2.3498
X6.4134Y-3.5236
X6.4134Y-3.6236
X6.4134Y-3.7236
X7.5667Y-2.3352
X7.6667Y-2.3352
X7.7667Y-2.3352
T4
X4.4193Y-2.3031
X4.4193Y-2.7756
X5.9331Y-4.0433
X5.9921Y-2.5669
X5.9961Y-2.9724
X6.4598Y-4.0922
X6.5039Y-2.7126
X6.5157Y-3.9882
X6.9764Y-3.6142
X6.9819Y-4.0472
T5
X6.1339Y-2.6702
X6.1339Y-2.9221
X6.3898Y-2.6614
X6.3898Y-2.9134
T6
X6.6417Y-3.6063
X6.7205Y-3.3701
X6.7205Y-3.8425
X7.2008Y-3.3701
X7.2008Y-3.8425
X8.0Y-3.0
X8.0Y-3.1969
T7
X4.3701Y-5.2421
X4.3701Y-5.5768
X7.7768Y-5.7542
X7.885Y-4.2385
X8.2Y-4.2385
X8.2Y-5.7542
T8
X4.6575Y-4.9331
X4.6575Y-5.8189
T3
G00X5.1299Y-5.7571
M15
G01X5.1063Y-5.7571
M16
G05
G00X5.3189Y-5.7571
M15
G01X5.2953Y-5.7571
M16
G05
G00X5.689Y-4.3792
M15
G01X5.6654Y-4.3792
M16
G05
G00X5.878Y-4.3792
M15
G01X5.8543Y-4.3792
M16
G05
G00X5.878Y-5.7571
M15
G01X5.8543Y-5.7571
M16
G05
T0
M30
