%TF.GenerationSoftware,KiCad,Pcbnew,(7.0.0-0)*%
%TF.CreationDate,2024-05-26T10:43:26+02:00*%
%TF.ProjectId,SwitchFoil,53776974-6368-4466-9f69-6c2e6b696361,rev?*%
%TF.SameCoordinates,Original*%
%TF.FileFunction,AssemblyDrawing,Bot*%
%FSLAX46Y46*%
G04 Gerber Fmt 4.6, Leading zero omitted, Abs format (unit mm)*
G04 Created by KiCad (PCBNEW (7.0.0-0)) date 2024-05-26 10:43:26*
%MOMM*%
%LPD*%
G01*
G04 APERTURE LIST*
%ADD10C,0.150000*%
%ADD11C,0.100000*%
G04 APERTURE END LIST*
D10*
%TO.C,J4*%
X158267380Y-50550570D02*
X157267380Y-50550570D01*
X157743571Y-50550570D02*
X157743571Y-51121998D01*
X158267380Y-51121998D02*
X157267380Y-51121998D01*
X158172142Y-52169617D02*
X158219761Y-52121998D01*
X158219761Y-52121998D02*
X158267380Y-51979141D01*
X158267380Y-51979141D02*
X158267380Y-51883903D01*
X158267380Y-51883903D02*
X158219761Y-51741046D01*
X158219761Y-51741046D02*
X158124523Y-51645808D01*
X158124523Y-51645808D02*
X158029285Y-51598189D01*
X158029285Y-51598189D02*
X157838809Y-51550570D01*
X157838809Y-51550570D02*
X157695952Y-51550570D01*
X157695952Y-51550570D02*
X157505476Y-51598189D01*
X157505476Y-51598189D02*
X157410238Y-51645808D01*
X157410238Y-51645808D02*
X157315000Y-51741046D01*
X157315000Y-51741046D02*
X157267380Y-51883903D01*
X157267380Y-51883903D02*
X157267380Y-51979141D01*
X157267380Y-51979141D02*
X157315000Y-52121998D01*
X157315000Y-52121998D02*
X157362619Y-52169617D01*
X157886428Y-52598189D02*
X157886428Y-53360094D01*
X158219761Y-53788665D02*
X158267380Y-53931522D01*
X158267380Y-53931522D02*
X158267380Y-54169617D01*
X158267380Y-54169617D02*
X158219761Y-54264855D01*
X158219761Y-54264855D02*
X158172142Y-54312474D01*
X158172142Y-54312474D02*
X158076904Y-54360093D01*
X158076904Y-54360093D02*
X157981666Y-54360093D01*
X157981666Y-54360093D02*
X157886428Y-54312474D01*
X157886428Y-54312474D02*
X157838809Y-54264855D01*
X157838809Y-54264855D02*
X157791190Y-54169617D01*
X157791190Y-54169617D02*
X157743571Y-53979141D01*
X157743571Y-53979141D02*
X157695952Y-53883903D01*
X157695952Y-53883903D02*
X157648333Y-53836284D01*
X157648333Y-53836284D02*
X157553095Y-53788665D01*
X157553095Y-53788665D02*
X157457857Y-53788665D01*
X157457857Y-53788665D02*
X157362619Y-53836284D01*
X157362619Y-53836284D02*
X157315000Y-53883903D01*
X157315000Y-53883903D02*
X157267380Y-53979141D01*
X157267380Y-53979141D02*
X157267380Y-54217236D01*
X157267380Y-54217236D02*
X157315000Y-54360093D01*
X158267380Y-55360093D02*
X157791190Y-55026760D01*
X158267380Y-54788665D02*
X157267380Y-54788665D01*
X157267380Y-54788665D02*
X157267380Y-55169617D01*
X157267380Y-55169617D02*
X157315000Y-55264855D01*
X157315000Y-55264855D02*
X157362619Y-55312474D01*
X157362619Y-55312474D02*
X157457857Y-55360093D01*
X157457857Y-55360093D02*
X157600714Y-55360093D01*
X157600714Y-55360093D02*
X157695952Y-55312474D01*
X157695952Y-55312474D02*
X157743571Y-55264855D01*
X157743571Y-55264855D02*
X157791190Y-55169617D01*
X157791190Y-55169617D02*
X157791190Y-54788665D01*
X157267380Y-55979141D02*
X157267380Y-56074379D01*
X157267380Y-56074379D02*
X157315000Y-56169617D01*
X157315000Y-56169617D02*
X157362619Y-56217236D01*
X157362619Y-56217236D02*
X157457857Y-56264855D01*
X157457857Y-56264855D02*
X157648333Y-56312474D01*
X157648333Y-56312474D02*
X157886428Y-56312474D01*
X157886428Y-56312474D02*
X158076904Y-56264855D01*
X158076904Y-56264855D02*
X158172142Y-56217236D01*
X158172142Y-56217236D02*
X158219761Y-56169617D01*
X158219761Y-56169617D02*
X158267380Y-56074379D01*
X158267380Y-56074379D02*
X158267380Y-55979141D01*
X158267380Y-55979141D02*
X158219761Y-55883903D01*
X158219761Y-55883903D02*
X158172142Y-55836284D01*
X158172142Y-55836284D02*
X158076904Y-55788665D01*
X158076904Y-55788665D02*
X157886428Y-55741046D01*
X157886428Y-55741046D02*
X157648333Y-55741046D01*
X157648333Y-55741046D02*
X157457857Y-55788665D01*
X157457857Y-55788665D02*
X157362619Y-55836284D01*
X157362619Y-55836284D02*
X157315000Y-55883903D01*
X157315000Y-55883903D02*
X157267380Y-55979141D01*
X157600714Y-57169617D02*
X158267380Y-57169617D01*
X157219761Y-56931522D02*
X157934047Y-56693427D01*
X157934047Y-56693427D02*
X157934047Y-57312474D01*
X152093333Y-53251283D02*
X152093333Y-53965569D01*
X152093333Y-53965569D02*
X152140952Y-54108426D01*
X152140952Y-54108426D02*
X152236190Y-54203664D01*
X152236190Y-54203664D02*
X152379047Y-54251283D01*
X152379047Y-54251283D02*
X152474285Y-54251283D01*
X151188571Y-53584617D02*
X151188571Y-54251283D01*
X151426666Y-53203664D02*
X151664761Y-53917950D01*
X151664761Y-53917950D02*
X151045714Y-53917950D01*
%TO.C,U4*%
X110617380Y-60238095D02*
X111426904Y-60238095D01*
X111426904Y-60238095D02*
X111522142Y-60285714D01*
X111522142Y-60285714D02*
X111569761Y-60333333D01*
X111569761Y-60333333D02*
X111617380Y-60428571D01*
X111617380Y-60428571D02*
X111617380Y-60619047D01*
X111617380Y-60619047D02*
X111569761Y-60714285D01*
X111569761Y-60714285D02*
X111522142Y-60761904D01*
X111522142Y-60761904D02*
X111426904Y-60809523D01*
X111426904Y-60809523D02*
X110617380Y-60809523D01*
X110950714Y-61714285D02*
X111617380Y-61714285D01*
X110569761Y-61476190D02*
X111284047Y-61238095D01*
X111284047Y-61238095D02*
X111284047Y-61857142D01*
X100617380Y-59416666D02*
X100141190Y-59083333D01*
X100617380Y-58845238D02*
X99617380Y-58845238D01*
X99617380Y-58845238D02*
X99617380Y-59226190D01*
X99617380Y-59226190D02*
X99665000Y-59321428D01*
X99665000Y-59321428D02*
X99712619Y-59369047D01*
X99712619Y-59369047D02*
X99807857Y-59416666D01*
X99807857Y-59416666D02*
X99950714Y-59416666D01*
X99950714Y-59416666D02*
X100045952Y-59369047D01*
X100045952Y-59369047D02*
X100093571Y-59321428D01*
X100093571Y-59321428D02*
X100141190Y-59226190D01*
X100141190Y-59226190D02*
X100141190Y-58845238D01*
X100093571Y-59845238D02*
X100093571Y-60178571D01*
X100617380Y-60321428D02*
X100617380Y-59845238D01*
X100617380Y-59845238D02*
X99617380Y-59845238D01*
X99617380Y-59845238D02*
X99617380Y-60321428D01*
X100093571Y-61083333D02*
X100093571Y-60750000D01*
X100617380Y-60750000D02*
X99617380Y-60750000D01*
X99617380Y-60750000D02*
X99617380Y-61226190D01*
X99617380Y-61750000D02*
X99855476Y-61750000D01*
X99760238Y-61511905D02*
X99855476Y-61750000D01*
X99855476Y-61750000D02*
X99760238Y-61988095D01*
X100045952Y-61607143D02*
X99855476Y-61750000D01*
X99855476Y-61750000D02*
X100045952Y-61892857D01*
X99617380Y-62511905D02*
X99855476Y-62511905D01*
X99760238Y-62273810D02*
X99855476Y-62511905D01*
X99855476Y-62511905D02*
X99760238Y-62750000D01*
X100045952Y-62369048D02*
X99855476Y-62511905D01*
X99855476Y-62511905D02*
X100045952Y-62654762D01*
%TO.C,J8*%
X118100556Y-54574085D02*
X117100556Y-54574085D01*
X117576747Y-54574085D02*
X117576747Y-55145513D01*
X118100556Y-55145513D02*
X117100556Y-55145513D01*
X118100556Y-56097894D02*
X118100556Y-55621704D01*
X118100556Y-55621704D02*
X117100556Y-55621704D01*
X118100556Y-56431228D02*
X117100556Y-56431228D01*
X118100556Y-57002656D02*
X117529128Y-56574085D01*
X117100556Y-57002656D02*
X117671985Y-56431228D01*
X117719604Y-57431228D02*
X117719604Y-58193133D01*
X118100556Y-59145513D02*
X118100556Y-58669323D01*
X118100556Y-58669323D02*
X117100556Y-58669323D01*
X118100556Y-59478847D02*
X117100556Y-59478847D01*
X117100556Y-59478847D02*
X117100556Y-59716942D01*
X117100556Y-59716942D02*
X117148176Y-59859799D01*
X117148176Y-59859799D02*
X117243414Y-59955037D01*
X117243414Y-59955037D02*
X117338652Y-60002656D01*
X117338652Y-60002656D02*
X117529128Y-60050275D01*
X117529128Y-60050275D02*
X117671985Y-60050275D01*
X117671985Y-60050275D02*
X117862461Y-60002656D01*
X117862461Y-60002656D02*
X117957699Y-59955037D01*
X117957699Y-59955037D02*
X118052937Y-59859799D01*
X118052937Y-59859799D02*
X118100556Y-59716942D01*
X118100556Y-59716942D02*
X118100556Y-59478847D01*
X117195795Y-60431228D02*
X117148176Y-60478847D01*
X117148176Y-60478847D02*
X117100556Y-60574085D01*
X117100556Y-60574085D02*
X117100556Y-60812180D01*
X117100556Y-60812180D02*
X117148176Y-60907418D01*
X117148176Y-60907418D02*
X117195795Y-60955037D01*
X117195795Y-60955037D02*
X117291033Y-61002656D01*
X117291033Y-61002656D02*
X117386271Y-61002656D01*
X117386271Y-61002656D02*
X117529128Y-60955037D01*
X117529128Y-60955037D02*
X118100556Y-60383609D01*
X118100556Y-60383609D02*
X118100556Y-61002656D01*
X117433890Y-61859799D02*
X118100556Y-61859799D01*
X117052937Y-61621704D02*
X117767223Y-61383609D01*
X117767223Y-61383609D02*
X117767223Y-62002656D01*
X118100556Y-62907418D02*
X118100556Y-62335990D01*
X118100556Y-62621704D02*
X117100556Y-62621704D01*
X117100556Y-62621704D02*
X117243414Y-62526466D01*
X117243414Y-62526466D02*
X117338652Y-62431228D01*
X117338652Y-62431228D02*
X117386271Y-62335990D01*
X117100556Y-63526466D02*
X117100556Y-63621704D01*
X117100556Y-63621704D02*
X117148176Y-63716942D01*
X117148176Y-63716942D02*
X117195795Y-63764561D01*
X117195795Y-63764561D02*
X117291033Y-63812180D01*
X117291033Y-63812180D02*
X117481509Y-63859799D01*
X117481509Y-63859799D02*
X117719604Y-63859799D01*
X117719604Y-63859799D02*
X117910080Y-63812180D01*
X117910080Y-63812180D02*
X118005318Y-63764561D01*
X118005318Y-63764561D02*
X118052937Y-63716942D01*
X118052937Y-63716942D02*
X118100556Y-63621704D01*
X118100556Y-63621704D02*
X118100556Y-63526466D01*
X118100556Y-63526466D02*
X118052937Y-63431228D01*
X118052937Y-63431228D02*
X118005318Y-63383609D01*
X118005318Y-63383609D02*
X117910080Y-63335990D01*
X117910080Y-63335990D02*
X117719604Y-63288371D01*
X117719604Y-63288371D02*
X117481509Y-63288371D01*
X117481509Y-63288371D02*
X117291033Y-63335990D01*
X117291033Y-63335990D02*
X117195795Y-63383609D01*
X117195795Y-63383609D02*
X117148176Y-63431228D01*
X117148176Y-63431228D02*
X117100556Y-63526466D01*
X118005318Y-64859799D02*
X118052937Y-64812180D01*
X118052937Y-64812180D02*
X118100556Y-64669323D01*
X118100556Y-64669323D02*
X118100556Y-64574085D01*
X118100556Y-64574085D02*
X118052937Y-64431228D01*
X118052937Y-64431228D02*
X117957699Y-64335990D01*
X117957699Y-64335990D02*
X117862461Y-64288371D01*
X117862461Y-64288371D02*
X117671985Y-64240752D01*
X117671985Y-64240752D02*
X117529128Y-64240752D01*
X117529128Y-64240752D02*
X117338652Y-64288371D01*
X117338652Y-64288371D02*
X117243414Y-64335990D01*
X117243414Y-64335990D02*
X117148176Y-64431228D01*
X117148176Y-64431228D02*
X117100556Y-64574085D01*
X117100556Y-64574085D02*
X117100556Y-64669323D01*
X117100556Y-64669323D02*
X117148176Y-64812180D01*
X117148176Y-64812180D02*
X117195795Y-64859799D01*
X125476509Y-59060513D02*
X125476509Y-59774799D01*
X125476509Y-59774799D02*
X125524128Y-59917656D01*
X125524128Y-59917656D02*
X125619366Y-60012894D01*
X125619366Y-60012894D02*
X125762223Y-60060513D01*
X125762223Y-60060513D02*
X125857461Y-60060513D01*
X124857461Y-59489085D02*
X124952699Y-59441466D01*
X124952699Y-59441466D02*
X125000318Y-59393847D01*
X125000318Y-59393847D02*
X125047937Y-59298609D01*
X125047937Y-59298609D02*
X125047937Y-59250990D01*
X125047937Y-59250990D02*
X125000318Y-59155752D01*
X125000318Y-59155752D02*
X124952699Y-59108133D01*
X124952699Y-59108133D02*
X124857461Y-59060513D01*
X124857461Y-59060513D02*
X124666985Y-59060513D01*
X124666985Y-59060513D02*
X124571747Y-59108133D01*
X124571747Y-59108133D02*
X124524128Y-59155752D01*
X124524128Y-59155752D02*
X124476509Y-59250990D01*
X124476509Y-59250990D02*
X124476509Y-59298609D01*
X124476509Y-59298609D02*
X124524128Y-59393847D01*
X124524128Y-59393847D02*
X124571747Y-59441466D01*
X124571747Y-59441466D02*
X124666985Y-59489085D01*
X124666985Y-59489085D02*
X124857461Y-59489085D01*
X124857461Y-59489085D02*
X124952699Y-59536704D01*
X124952699Y-59536704D02*
X125000318Y-59584323D01*
X125000318Y-59584323D02*
X125047937Y-59679561D01*
X125047937Y-59679561D02*
X125047937Y-59870037D01*
X125047937Y-59870037D02*
X125000318Y-59965275D01*
X125000318Y-59965275D02*
X124952699Y-60012894D01*
X124952699Y-60012894D02*
X124857461Y-60060513D01*
X124857461Y-60060513D02*
X124666985Y-60060513D01*
X124666985Y-60060513D02*
X124571747Y-60012894D01*
X124571747Y-60012894D02*
X124524128Y-59965275D01*
X124524128Y-59965275D02*
X124476509Y-59870037D01*
X124476509Y-59870037D02*
X124476509Y-59679561D01*
X124476509Y-59679561D02*
X124524128Y-59584323D01*
X124524128Y-59584323D02*
X124571747Y-59536704D01*
X124571747Y-59536704D02*
X124666985Y-59489085D01*
%TO.C,J3*%
X199972035Y-58315230D02*
X198972035Y-58315230D01*
X198972035Y-58315230D02*
X198972035Y-58696182D01*
X198972035Y-58696182D02*
X199019655Y-58791420D01*
X199019655Y-58791420D02*
X199067274Y-58839039D01*
X199067274Y-58839039D02*
X199162512Y-58886658D01*
X199162512Y-58886658D02*
X199305369Y-58886658D01*
X199305369Y-58886658D02*
X199400607Y-58839039D01*
X199400607Y-58839039D02*
X199448226Y-58791420D01*
X199448226Y-58791420D02*
X199495845Y-58696182D01*
X199495845Y-58696182D02*
X199495845Y-58315230D01*
X199972035Y-59315230D02*
X198972035Y-59315230D01*
X199972035Y-60362848D02*
X199495845Y-60029515D01*
X199972035Y-59791420D02*
X198972035Y-59791420D01*
X198972035Y-59791420D02*
X198972035Y-60172372D01*
X198972035Y-60172372D02*
X199019655Y-60267610D01*
X199019655Y-60267610D02*
X199067274Y-60315229D01*
X199067274Y-60315229D02*
X199162512Y-60362848D01*
X199162512Y-60362848D02*
X199305369Y-60362848D01*
X199305369Y-60362848D02*
X199400607Y-60315229D01*
X199400607Y-60315229D02*
X199448226Y-60267610D01*
X199448226Y-60267610D02*
X199495845Y-60172372D01*
X199495845Y-60172372D02*
X199495845Y-59791420D01*
X195067988Y-58682610D02*
X195067988Y-59396896D01*
X195067988Y-59396896D02*
X195115607Y-59539753D01*
X195115607Y-59539753D02*
X195210845Y-59634991D01*
X195210845Y-59634991D02*
X195353702Y-59682610D01*
X195353702Y-59682610D02*
X195448940Y-59682610D01*
X194687035Y-58682610D02*
X194067988Y-58682610D01*
X194067988Y-58682610D02*
X194401321Y-59063563D01*
X194401321Y-59063563D02*
X194258464Y-59063563D01*
X194258464Y-59063563D02*
X194163226Y-59111182D01*
X194163226Y-59111182D02*
X194115607Y-59158801D01*
X194115607Y-59158801D02*
X194067988Y-59254039D01*
X194067988Y-59254039D02*
X194067988Y-59492134D01*
X194067988Y-59492134D02*
X194115607Y-59587372D01*
X194115607Y-59587372D02*
X194163226Y-59634991D01*
X194163226Y-59634991D02*
X194258464Y-59682610D01*
X194258464Y-59682610D02*
X194544178Y-59682610D01*
X194544178Y-59682610D02*
X194639416Y-59634991D01*
X194639416Y-59634991D02*
X194687035Y-59587372D01*
D11*
%TO.C,J4*%
X164080000Y-58413903D02*
X154555000Y-58413903D01*
X154555000Y-58413903D02*
X153920000Y-59048903D01*
X153920000Y-59048903D02*
X153920000Y-60953903D01*
X164080000Y-60953903D02*
X164080000Y-58413903D01*
X153920000Y-60953903D02*
X164080000Y-60953903D01*
%TO.C,J8*%
X118793176Y-60963133D02*
X130858176Y-60963133D01*
X130858176Y-60963133D02*
X131493176Y-60328133D01*
X131493176Y-60328133D02*
X131493176Y-58423133D01*
X118793176Y-58423133D02*
X118793176Y-60963133D01*
X131493176Y-58423133D02*
X118793176Y-58423133D01*
%TO.C,J3*%
X198544655Y-58045230D02*
X191559655Y-58045230D01*
X191559655Y-58045230D02*
X190924655Y-58680230D01*
X190924655Y-58680230D02*
X190924655Y-60585230D01*
X198544655Y-60585230D02*
X198544655Y-58045230D01*
X190924655Y-60585230D02*
X198544655Y-60585230D01*
%TD*%
M02*
