<?xml version="1.0" encoding="UTF-8"?>
<svg xmlns="http://www.w3.org/2000/svg" version="1.1" viewBox="0 0 734.3 964.9">
  <defs>
    <style>
      .cls-1 {
        fill: #fff;
      }

      .cls-1, .cls-2, .cls-3, .cls-4, .cls-5, .cls-6, .cls-7, .cls-8, .cls-9, .cls-10, .cls-11, .cls-12 {
        stroke-miterlimit: 10;
      }

      .cls-1, .cls-2, .cls-5, .cls-6, .cls-7, .cls-8, .cls-9, .cls-10, .cls-11, .cls-12 {
        stroke: #000;
      }

      .cls-13 {
        fill: #aaa;
      }

      .cls-13, .cls-14, .cls-15 {
        stroke-width: 0px;
      }

      .cls-16 {
        font-size: 20px;
      }

      .cls-16, .cls-17 {
        font-family: MyriadPro-Regular, 'Myriad Pro';
      }

      .cls-16, .cls-15 {
        fill: #231f20;
      }

      .cls-2 {
        stroke-dasharray: 0 0 10 10;
      }

      .cls-2, .cls-3, .cls-4, .cls-5, .cls-6, .cls-7, .cls-8, .cls-9, .cls-10, .cls-11, .cls-12 {
        fill: none;
      }

      .cls-2, .cls-6, .cls-9, .cls-10, .cls-11 {
        stroke-width: 3px;
      }

      .cls-3 {
        stroke: #231f20;
      }

      .cls-4 {
        stroke: #3198ff;
      }

      .cls-5 {
        stroke-width: 4px;
      }

      .cls-14, .cls-17 {
        fill: #000;
      }

      .cls-6 {
        stroke-dasharray: 0 0 10.2 10.2;
      }

      .cls-7 {
        stroke-dasharray: 0 0 1.8 1.8;
      }

      .cls-9 {
        stroke-dasharray: 0 0 9.3 9.3;
      }

      .cls-17 {
        font-size: 21.2px;
      }

      .cls-11 {
        stroke-dasharray: 0 0 9.9 9.9;
      }

      .cls-12 {
        stroke-dasharray: 0 0 2.2 2.2;
      }
    </style>
  </defs>
  <g id="Layer_1" data-name="Layer 1">
    <text class="cls-17" transform="translate(56 43.5)"><tspan x="0" y="0">Arrangement</tspan></text>
    <text class="cls-17" transform="translate(655.2 43.5)"><tspan x="0" y="0">1:10</tspan></text>
    <rect class="cls-13" x="68" y="816.8" width="611" height="59"/>
    <line class="cls-5" x1="68" y1="816.8" x2="679" y2="816.8"/>
    <rect class="cls-8" x="310" y="187.8" width="168" height="292"/>
    <rect class="cls-8" x="377" y="722" width="34" height="48.2"/>
    <rect class="cls-1" x="388.4" y="184.3" width="11.2" height="3.5"/>
    <text class="cls-17" transform="translate(94.5 855.8)"><tspan x="0" y="0">Boden</tspan></text>
    <text class="cls-17" transform="translate(219.9 479.8)"><tspan x="0" y="0">Spiegel</tspan></text>
    <text class="cls-17" transform="translate(595 540.7) rotate(-90)"><tspan x="0" y="0">ca. max:</tspan></text>
    <text class="cls-17" transform="translate(431 751.2)"><tspan x="0" y="0">Elektrobox</tspan></text>
    <text class="cls-17" transform="translate(431 793.8)"><tspan x="0" y="0">Kaltgerätestecker</tspan></text>
    <text class="cls-17" transform="translate(415.3 639.5)"><tspan x="0" y="0">UART</tspan></text>
    <text class="cls-17" transform="translate(286 639.5)"><tspan x="0" y="0">0 / 35VDC</tspan></text>
    <text class="cls-17" transform="translate(138.4 782)"><tspan x="0" y="0">230VAC -&gt;</tspan></text>
    <text class="cls-17" transform="translate(68 920.8)"><tspan x="0" y="0">Ansicht</tspan></text>
    <g>
      <path class="cls-10" d="M68.5,793.8h290.4c11.3,0,22-5.4,28.6-14.6l6.5-9"/>
      <g>
        <line class="cls-10" x1="399.6" y1="479.8" x2="399.6" y2="474.8"/>
        <polyline class="cls-2" points="399.6 464.8 399.6 213.7 398 210"/>
        <line class="cls-10" x1="396" y1="205.4" x2="394" y2="200.8"/>
      </g>
      <g>
        <line class="cls-10" x1="389.4" y1="479.8" x2="389.4" y2="474.8"/>
        <line class="cls-6" x1="389.4" y1="464.6" x2="389.4" y2="286.9"/>
        <polyline class="cls-10" points="389.4 281.8 389.4 276.8 393 273.4"/>
        <line class="cls-9" x1="399.9" y1="267.1" x2="465.5" y2="207.3"/>
        <line class="cls-10" x1="468.9" y1="204.2" x2="472.6" y2="200.8"/>
      </g>
      <g>
        <line class="cls-10" x1="326.3" y1="200.8" x2="329.5" y2="204.6"/>
        <line class="cls-11" x1="335.8" y1="212.2" x2="383" y2="269.1"/>
        <line class="cls-10" x1="386.2" y1="272.9" x2="389.4" y2="276.8"/>
      </g>
      <line class="cls-10" x1="389.4" y1="479.8" x2="389.4" y2="722"/>
      <line class="cls-10" x1="399.6" y1="479.8" x2="399.6" y2="722"/>
    </g>
    <line class="cls-4" x1="478" y1="247.8" x2="338" y2="365.8"/>
    <line class="cls-4" x1="478" y1="290.4" x2="338" y2="408.4"/>
    <circle class="cls-1" cx="394" cy="186.1" r=".6"/>
    <g>
      <polyline class="cls-8" points="399.6 199.8 399.6 200.8 398.6 200.8"/>
      <line class="cls-7" x1="396.8" y1="200.8" x2="390.3" y2="200.8"/>
      <polyline class="cls-8" points="389.4 200.8 388.4 200.8 388.4 199.8"/>
      <line class="cls-12" x1="388.4" y1="197.6" x2="388.4" y2="189.9"/>
      <polyline class="cls-8" points="388.4 188.8 388.4 187.8 389.4 187.8"/>
      <line class="cls-7" x1="391.2" y1="187.8" x2="397.7" y2="187.8"/>
      <polyline class="cls-8" points="398.6 187.8 399.6 187.8 399.6 188.8"/>
      <line class="cls-12" x1="399.6" y1="191" x2="399.6" y2="198.7"/>
    </g>
    <g>
      <path class="cls-8" d="M417.2,792.3c-1.4.1-6.8.3-11.9-3.4-1.6-1.2-2.8-2.5-3.8-3.8"/>
      <polygon class="cls-14" points="398.6 778.8 406.7 785.9 402 785.6 399.4 789.5 398.6 778.8"/>
    </g>
  </g>
  <g id="Dimensions">
    <g id="Manual_Dimension" data-name="Manual Dimension">
      <line class="cls-3" x1="480" y1="816.8" x2="605.9" y2="816.8"/>
      <line class="cls-3" x1="480" y1="187.8" x2="605.9" y2="187.8"/>
      <text class="cls-16" transform="translate(625.1 545.8) rotate(-90)"><tspan x="0" y="0" xml:space="preserve"> 2219 mm </tspan></text>
      <g>
        <line class="cls-3" x1="601.9" y1="188" x2="601.9" y2="816.5"/>
        <rect class="cls-15" x="600.2" y="187.8" width="3.2" height=".5"/>
        <rect class="cls-15" x="600.2" y="816.3" width="3.2" height=".5"/>
      </g>
    </g>
  </g>
</svg>