<?xml version="1.0" encoding="UTF-8"?>
<svg id="Layer_1" data-name="Layer 1" xmlns="http://www.w3.org/2000/svg" version="1.1" viewBox="0 0 734.3 964.9">
  <defs>
    <style>
      .cls-1 {
        stroke-dasharray: 0 0 0 0 0 0 11.7 11.7;
      }

      .cls-1, .cls-2, .cls-3, .cls-4, .cls-5, .cls-6, .cls-7, .cls-8, .cls-9, .cls-10, .cls-11 {
        fill: none;
        stroke-miterlimit: 10;
      }

      .cls-1, .cls-2, .cls-4, .cls-5, .cls-6, .cls-7, .cls-8, .cls-9, .cls-10, .cls-11 {
        stroke: #231f20;
      }

      .cls-2 {
        stroke-dasharray: 0 0 0 0 0 0 12.2 12.2;
      }

      .cls-3 {
        stroke: #5bb200;
      }

      .cls-12 {
        fill: #ff0049;
      }

      .cls-12, .cls-13, .cls-14, .cls-15, .cls-16, .cls-17 {
        font-family: MyriadWebPro, 'Myriad Web Pro';
      }

      .cls-12, .cls-13, .cls-14, .cls-15, .cls-16, .cls-17, .cls-18 {
        isolation: isolate;
      }

      .cls-12, .cls-15, .cls-17 {
        font-size: 12px;
      }

      .cls-13 {
        font-size: 9.4px;
      }

      .cls-13, .cls-14, .cls-16 {
        fill: #000;
      }

      .cls-14 {
        font-size: 14.6px;
      }

      .cls-5 {
        stroke-dasharray: 0 0 0 0 0 0 11.1 11.1;
      }

      .cls-15, .cls-19 {
        fill: #231f20;
      }

      .cls-6 {
        stroke-dasharray: 0 0 0 0 0 0 12 12;
      }

      .cls-16 {
        font-size: 18.8px;
      }

      .cls-7 {
        stroke-dasharray: 0 0 0 0 0 0 12.1 12.1;
      }

      .cls-17 {
        fill: #ed1c24;
      }

      .cls-20 {
        fill: #bcbcbc;
      }

      .cls-20, .cls-19 {
        stroke-width: 0px;
      }

      .cls-8 {
        stroke-width: 3px;
      }

      .cls-9 {
        stroke-dasharray: 0 0 0 0 0 0 11 11;
      }

      .cls-10 {
        stroke-dasharray: 0 0 0 12;
      }

      .cls-11 {
        stroke-dasharray: 0 0 0 0 0 0 4 4;
      }
    </style>
  </defs>
  <rect class="cls-20" x="472.9" y="136.9" width="41" height="754.5"/>
  <g>
    <polyline class="cls-4" points="338.1 696 338.1 702 332.1 702"/>
    <line class="cls-1" x1="320.4" y1="702" x2="92" y2="702"/>
    <polyline class="cls-4" points="86.2 702 80.2 702 80.2 696"/>
    <line class="cls-1" x1="80.2" y1="684.3" x2="80.2" y2="338.3"/>
    <polyline class="cls-4" points="80.2 332.4 80.2 326.4 86.2 326.4"/>
    <line class="cls-1" x1="97.9" y1="326.4" x2="326.3" y2="326.4"/>
    <polyline class="cls-4" points="332.1 326.4 338.1 326.4 338.1 332.4"/>
    <line class="cls-1" x1="338.1" y1="344.1" x2="338.1" y2="690.1"/>
  </g>
  <g>
    <rect class="cls-3" x="49" y="309.4" width="320.3" height="409.6"/>
    <circle class="cls-3" cx="80.2" cy="326.4" r="4.3"/>
    <circle class="cls-3" cx="338.1" cy="326.4" r="4.3"/>
    <circle class="cls-3" cx="80.2" cy="702" r="4.3"/>
    <circle class="cls-3" cx="338.1" cy="702" r="4.3"/>
  </g>
  <rect class="cls-6" x="37.7" y="271.8" width="343" height="484.7" rx="14.3" ry="14.3"/>
  <g>
    <polyline class="cls-4" points="669.9 750.5 669.9 756.5 663.9 756.5"/>
    <line class="cls-5" x1="652.8" y1="756.5" x2="525.5" y2="756.5"/>
    <polyline class="cls-4" points="520 756.5 514 756.5 514 750.5"/>
    <line class="cls-7" x1="514" y1="738.4" x2="514" y2="283.9"/>
    <polyline class="cls-4" points="514 277.8 514 271.8 520 271.8"/>
    <line class="cls-5" x1="531" y1="271.8" x2="658.3" y2="271.8"/>
    <polyline class="cls-4" points="663.9 271.8 669.9 271.8 669.9 277.8"/>
    <line class="cls-7" x1="669.9" y1="289.9" x2="669.9" y2="744.5"/>
  </g>
  <g>
    <polyline class="cls-4" points="658.5 739.2 658.5 745.2 652.5 745.2"/>
    <line class="cls-9" x1="641.5" y1="745.2" x2="536.8" y2="745.2"/>
    <polyline class="cls-4" points="531.3 745.2 525.3 745.2 525.3 739.2"/>
    <line class="cls-2" x1="525.3" y1="727" x2="525.3" y2="295.2"/>
    <polyline class="cls-4" points="525.3 289.2 525.3 283.2 531.3 283.2"/>
    <line class="cls-9" x1="542.3" y1="283.2" x2="647" y2="283.2"/>
    <polyline class="cls-4" points="652.5 283.2 658.5 283.2 658.5 289.2"/>
    <line class="cls-2" x1="658.5" y1="301.3" x2="658.5" y2="733.1"/>
  </g>
  <g class="cls-18">
    <text class="cls-16" transform="translate(67.6 61.1)"><tspan x="0" y="0">distrelec</tspan></text>
    <text class="cls-16" transform="translate(67.6 83.7)"><tspan x="0" y="0">300-64-432</tspan></text>
    <text class="cls-16" transform="translate(67.6 106.2)"><tspan x="0" y="0">Kunststoffgehäuse 121x171x55</tspan></text>
  </g>
  <g class="cls-18">
    <text class="cls-16" transform="translate(34.9 916.8)"><tspan x="0" y="0">Aufsicht</tspan></text>
  </g>
  <g class="cls-18">
    <text class="cls-16" transform="translate(555 916.8)"><tspan x="0" y="0">Seitenansicht</tspan></text>
  </g>
  <g class="cls-18">
    <text class="cls-13" transform="translate(554.7 322.1)"><tspan x="0" y="0">schraube M3</tspan></text>
  </g>
  <g class="cls-18">
    <text class="cls-13" transform="translate(554.7 697.7)"><tspan x="0" y="0">schraube M3</tspan></text>
  </g>
  <g class="cls-18">
    <text class="cls-14" transform="translate(650.3 538.2) rotate(-90)"><tspan x="0" y="0">Deckel</tspan></text>
  </g>
  <g>
    <polyline class="cls-4" points="525.3 696 525.3 702 531.3 702"/>
    <polyline class="cls-4" points="532.1 702 538.1 702 538.1 696"/>
    <line class="cls-1" x1="538.1" y1="684.3" x2="538.1" y2="338.3"/>
    <polyline class="cls-4" points="538.1 332.4 538.1 326.4 532.1 326.4"/>
    <polyline class="cls-4" points="531.3 326.4 525.3 326.4 525.3 332.4"/>
    <line class="cls-1" x1="525.3" y1="344.1" x2="525.3" y2="690.1"/>
  </g>
  <g>
    <polyline class="cls-4" points="525.3 713 525.3 719 531.3 719"/>
    <polyline class="cls-4" points="532.1 719 538.1 719 538.1 713"/>
    <line class="cls-6" x1="538.1" y1="700.9" x2="538.1" y2="321.4"/>
    <polyline class="cls-4" points="538.1 315.4 538.1 309.4 532.1 309.4"/>
    <polyline class="cls-4" points="531.3 309.4 525.3 309.4 525.3 315.4"/>
    <line class="cls-6" x1="525.3" y1="327.4" x2="525.3" y2="707"/>
  </g>
  <g>
    <polyline class="cls-4" points="525.3 679 525.3 685 531.3 685"/>
    <polyline class="cls-4" points="532.1 685 538.1 685 538.1 679"/>
    <line class="cls-2" x1="538.1" y1="666.8" x2="538.1" y2="355.5"/>
    <polyline class="cls-4" points="538.1 349.4 538.1 343.4 532.1 343.4"/>
    <polyline class="cls-4" points="531.3 343.4 525.3 343.4 525.3 349.4"/>
    <line class="cls-2" x1="525.3" y1="361.6" x2="525.3" y2="672.9"/>
  </g>
  <g>
    <g>
      <line class="cls-11" x1="549.7" y1="326.4" x2="591.9" y2="326.4"/>
      <polygon class="cls-19" points="552.5 330.1 550.9 326.4 552.5 322.7 543.7 326.4 552.5 330.1"/>
    </g>
    <g>
      <line class="cls-11" x1="549.7" y1="702" x2="587.5" y2="702"/>
      <polygon class="cls-19" points="552.5 705.7 550.9 702 552.5 698.3 543.7 702 552.5 705.7"/>
    </g>
  </g>
  <rect class="cls-3" x="538.1" y="309.4" width="5.7" height="409.6"/>
  <line class="cls-8" x1="514" y1="891.4" x2="514" y2="136.9"/>
  <line class="cls-10" x1="627.3" y1="271.8" x2="627.3" y2="756.5"/>
  <g class="cls-18">
    <text class="cls-14" transform="translate(498.4 180.9) rotate(-90)"><tspan x="0" y="0">Wand</tspan></text>
  </g>
  <g id="Manual_Dimension" data-name="Manual Dimension">
    <line class="cls-4" x1="338.1" y1="378.5" x2="338.1" y2="382.5"/>
    <line class="cls-4" x1="80.2" y1="378.5" x2="80.2" y2="382.5"/>
    <g class="cls-18">
      <text class="cls-17" transform="translate(189.2 396.4)"><tspan x="0" y="0" xml:space="preserve"> 91 mm </tspan></text>
    </g>
    <g>
      <line class="cls-4" x1="80.4" y1="378.5" x2="337.9" y2="378.5"/>
      <rect class="cls-19" x="80.2" y="376.8" width=".5" height="3.2"/>
      <rect class="cls-19" x="337.6" y="376.8" width=".5" height="3.2"/>
    </g>
  </g>
  <g id="Manual_Dimension-2" data-name="Manual Dimension-2">
    <line class="cls-4" x1="295.1" y1="702" x2="291.1" y2="702"/>
    <line class="cls-4" x1="295.1" y1="326.4" x2="291.1" y2="326.4"/>
    <g class="cls-18">
      <text class="cls-17" transform="translate(285.1 541.6) rotate(-90)"><tspan x="0" y="0" xml:space="preserve"> 132.5 mm </tspan></text>
    </g>
    <g>
      <line class="cls-4" x1="295.1" y1="326.6" x2="295.1" y2="701.7"/>
      <rect class="cls-19" x="293.5" y="326.4" width="3.2" height=".5"/>
      <rect class="cls-19" x="293.5" y="701.5" width="3.2" height=".5"/>
    </g>
  </g>
  <g id="Manual_Dimension-3" data-name="Manual Dimension-3">
    <line class="cls-4" x1="389" y1="719" x2="439.4" y2="719"/>
    <line class="cls-4" x1="389" y1="309.4" x2="439.4" y2="309.4"/>
    <g class="cls-18">
      <text class="cls-15" transform="translate(453.2 541.6) rotate(-90)"><tspan x="0" y="0" xml:space="preserve"> 144.5 mm </tspan></text>
    </g>
    <g>
      <line class="cls-4" x1="435.4" y1="309.6" x2="435.4" y2="718.7"/>
      <rect class="cls-19" x="433.8" y="309.4" width="3.2" height=".5"/>
      <rect class="cls-19" x="433.8" y="718.5" width="3.2" height=".5"/>
    </g>
  </g>
  <g id="Manual_Dimension-4" data-name="Manual Dimension-4">
    <line class="cls-4" x1="658.5" y1="426.2" x2="658.5" y2="394.8"/>
    <line class="cls-4" x1="543.7" y1="426.2" x2="543.7" y2="394.8"/>
    <g class="cls-18">
      <text class="cls-12" transform="translate(576.8 388.8)"><tspan x="0" y="0" xml:space="preserve"> 40.5 mm </tspan></text>
    </g>
    <g>
      <line class="cls-4" x1="544" y1="398.8" x2="658.3" y2="398.8"/>
      <rect class="cls-19" x="543.7" y="397.2" width=".5" height="3.2"/>
      <rect class="cls-19" x="658" y="397.2" width=".5" height="3.2"/>
    </g>
  </g>
  <g id="Manual_Dimension-5" data-name="Manual Dimension-5">
    <line class="cls-4" x1="369.3" y1="260.3" x2="369.3" y2="240.9"/>
    <line class="cls-4" x1="49" y1="260.3" x2="49" y2="240.9"/>
    <g class="cls-18">
      <text class="cls-15" transform="translate(186.1 234.9)"><tspan x="0" y="0" xml:space="preserve"> 113 mm </tspan></text>
    </g>
    <g>
      <line class="cls-4" x1="49.2" y1="244.9" x2="369.1" y2="244.9"/>
      <rect class="cls-19" x="49" y="243.3" width=".5" height="3.2"/>
      <rect class="cls-19" x="368.8" y="243.3" width=".5" height="3.2"/>
    </g>
  </g>
  <g class="cls-18">
    <text class="cls-16" transform="translate(678.7 38.5)"><tspan x="0" y="0">1:1</tspan></text>
  </g>
</svg>