%TF.GenerationSoftware,KiCad,Pcbnew,(7.0.0-0)*%
%TF.CreationDate,2024-05-26T10:43:25+02:00*%
%TF.ProjectId,SwitchFoil,53776974-6368-4466-9f69-6c2e6b696361,rev?*%
%TF.SameCoordinates,Original*%
%TF.FileFunction,Legend,Bot*%
%TF.FilePolarity,Positive*%
%FSLAX46Y46*%
G04 Gerber Fmt 4.6, Leading zero omitted, Abs format (unit mm)*
G04 Created by KiCad (PCBNEW (7.0.0-0)) date 2024-05-26 10:43:25*
%MOMM*%
%LPD*%
G01*
G04 APERTURE LIST*
%ADD10C,0.150000*%
%ADD11C,0.100000*%
%ADD12C,0.120000*%
%ADD13C,0.254000*%
%ADD14C,0.059995*%
G04 APERTURE END LIST*
D10*
%TO.C,J4*%
X144987380Y-53550569D02*
X145701666Y-53550569D01*
X145701666Y-53550569D02*
X145844523Y-53502950D01*
X145844523Y-53502950D02*
X145939761Y-53407712D01*
X145939761Y-53407712D02*
X145987380Y-53264855D01*
X145987380Y-53264855D02*
X145987380Y-53169617D01*
X145320714Y-54455331D02*
X145987380Y-54455331D01*
X144939761Y-54217236D02*
X145654047Y-53979141D01*
X145654047Y-53979141D02*
X145654047Y-54598188D01*
D11*
X152574380Y-49185236D02*
X152574380Y-49756664D01*
X153574380Y-49470950D02*
X152574380Y-49470950D01*
X153574380Y-50089998D02*
X152907714Y-50089998D01*
X153098190Y-50089998D02*
X153002952Y-50137617D01*
X153002952Y-50137617D02*
X152955333Y-50185236D01*
X152955333Y-50185236D02*
X152907714Y-50280474D01*
X152907714Y-50280474D02*
X152907714Y-50375712D01*
X153574380Y-50709046D02*
X152907714Y-50709046D01*
X152574380Y-50709046D02*
X152622000Y-50661427D01*
X152622000Y-50661427D02*
X152669619Y-50709046D01*
X152669619Y-50709046D02*
X152622000Y-50756665D01*
X152622000Y-50756665D02*
X152574380Y-50709046D01*
X152574380Y-50709046D02*
X152669619Y-50709046D01*
X152907714Y-51613807D02*
X153717238Y-51613807D01*
X153717238Y-51613807D02*
X153812476Y-51566188D01*
X153812476Y-51566188D02*
X153860095Y-51518569D01*
X153860095Y-51518569D02*
X153907714Y-51423331D01*
X153907714Y-51423331D02*
X153907714Y-51280474D01*
X153907714Y-51280474D02*
X153860095Y-51185236D01*
X153526761Y-51613807D02*
X153574380Y-51518569D01*
X153574380Y-51518569D02*
X153574380Y-51328093D01*
X153574380Y-51328093D02*
X153526761Y-51232855D01*
X153526761Y-51232855D02*
X153479142Y-51185236D01*
X153479142Y-51185236D02*
X153383904Y-51137617D01*
X153383904Y-51137617D02*
X153098190Y-51137617D01*
X153098190Y-51137617D02*
X153002952Y-51185236D01*
X153002952Y-51185236D02*
X152955333Y-51232855D01*
X152955333Y-51232855D02*
X152907714Y-51328093D01*
X152907714Y-51328093D02*
X152907714Y-51518569D01*
X152907714Y-51518569D02*
X152955333Y-51613807D01*
X147280000Y-49598188D02*
X147232380Y-49502950D01*
X147232380Y-49502950D02*
X147232380Y-49360093D01*
X147232380Y-49360093D02*
X147280000Y-49217236D01*
X147280000Y-49217236D02*
X147375238Y-49121998D01*
X147375238Y-49121998D02*
X147470476Y-49074379D01*
X147470476Y-49074379D02*
X147660952Y-49026760D01*
X147660952Y-49026760D02*
X147803809Y-49026760D01*
X147803809Y-49026760D02*
X147994285Y-49074379D01*
X147994285Y-49074379D02*
X148089523Y-49121998D01*
X148089523Y-49121998D02*
X148184761Y-49217236D01*
X148184761Y-49217236D02*
X148232380Y-49360093D01*
X148232380Y-49360093D02*
X148232380Y-49455331D01*
X148232380Y-49455331D02*
X148184761Y-49598188D01*
X148184761Y-49598188D02*
X148137142Y-49645807D01*
X148137142Y-49645807D02*
X147803809Y-49645807D01*
X147803809Y-49645807D02*
X147803809Y-49455331D01*
X148232380Y-50074379D02*
X147232380Y-50074379D01*
X147232380Y-50074379D02*
X148232380Y-50645807D01*
X148232380Y-50645807D02*
X147232380Y-50645807D01*
X148232380Y-51121998D02*
X147232380Y-51121998D01*
X147232380Y-51121998D02*
X147232380Y-51360093D01*
X147232380Y-51360093D02*
X147280000Y-51502950D01*
X147280000Y-51502950D02*
X147375238Y-51598188D01*
X147375238Y-51598188D02*
X147470476Y-51645807D01*
X147470476Y-51645807D02*
X147660952Y-51693426D01*
X147660952Y-51693426D02*
X147803809Y-51693426D01*
X147803809Y-51693426D02*
X147994285Y-51645807D01*
X147994285Y-51645807D02*
X148089523Y-51598188D01*
X148089523Y-51598188D02*
X148184761Y-51502950D01*
X148184761Y-51502950D02*
X148232380Y-51360093D01*
X148232380Y-51360093D02*
X148232380Y-51121998D01*
X155114380Y-49089998D02*
X156114380Y-49423331D01*
X156114380Y-49423331D02*
X155114380Y-49756664D01*
X156019142Y-50661426D02*
X156066761Y-50613807D01*
X156066761Y-50613807D02*
X156114380Y-50470950D01*
X156114380Y-50470950D02*
X156114380Y-50375712D01*
X156114380Y-50375712D02*
X156066761Y-50232855D01*
X156066761Y-50232855D02*
X155971523Y-50137617D01*
X155971523Y-50137617D02*
X155876285Y-50089998D01*
X155876285Y-50089998D02*
X155685809Y-50042379D01*
X155685809Y-50042379D02*
X155542952Y-50042379D01*
X155542952Y-50042379D02*
X155352476Y-50089998D01*
X155352476Y-50089998D02*
X155257238Y-50137617D01*
X155257238Y-50137617D02*
X155162000Y-50232855D01*
X155162000Y-50232855D02*
X155114380Y-50375712D01*
X155114380Y-50375712D02*
X155114380Y-50470950D01*
X155114380Y-50470950D02*
X155162000Y-50613807D01*
X155162000Y-50613807D02*
X155209619Y-50661426D01*
X156019142Y-51661426D02*
X156066761Y-51613807D01*
X156066761Y-51613807D02*
X156114380Y-51470950D01*
X156114380Y-51470950D02*
X156114380Y-51375712D01*
X156114380Y-51375712D02*
X156066761Y-51232855D01*
X156066761Y-51232855D02*
X155971523Y-51137617D01*
X155971523Y-51137617D02*
X155876285Y-51089998D01*
X155876285Y-51089998D02*
X155685809Y-51042379D01*
X155685809Y-51042379D02*
X155542952Y-51042379D01*
X155542952Y-51042379D02*
X155352476Y-51089998D01*
X155352476Y-51089998D02*
X155257238Y-51137617D01*
X155257238Y-51137617D02*
X155162000Y-51232855D01*
X155162000Y-51232855D02*
X155114380Y-51375712D01*
X155114380Y-51375712D02*
X155114380Y-51470950D01*
X155114380Y-51470950D02*
X155162000Y-51613807D01*
X155162000Y-51613807D02*
X155209619Y-51661426D01*
X150510571Y-48518569D02*
X150510571Y-48851902D01*
X151034380Y-48994759D02*
X151034380Y-48518569D01*
X151034380Y-48518569D02*
X150034380Y-48518569D01*
X150034380Y-48518569D02*
X150034380Y-48994759D01*
X150986761Y-49851902D02*
X151034380Y-49756664D01*
X151034380Y-49756664D02*
X151034380Y-49566188D01*
X151034380Y-49566188D02*
X150986761Y-49470950D01*
X150986761Y-49470950D02*
X150939142Y-49423331D01*
X150939142Y-49423331D02*
X150843904Y-49375712D01*
X150843904Y-49375712D02*
X150558190Y-49375712D01*
X150558190Y-49375712D02*
X150462952Y-49423331D01*
X150462952Y-49423331D02*
X150415333Y-49470950D01*
X150415333Y-49470950D02*
X150367714Y-49566188D01*
X150367714Y-49566188D02*
X150367714Y-49756664D01*
X150367714Y-49756664D02*
X150415333Y-49851902D01*
X151034380Y-50280474D02*
X150034380Y-50280474D01*
X151034380Y-50709045D02*
X150510571Y-50709045D01*
X150510571Y-50709045D02*
X150415333Y-50661426D01*
X150415333Y-50661426D02*
X150367714Y-50566188D01*
X150367714Y-50566188D02*
X150367714Y-50423331D01*
X150367714Y-50423331D02*
X150415333Y-50328093D01*
X150415333Y-50328093D02*
X150462952Y-50280474D01*
X151034380Y-51328093D02*
X150986761Y-51232855D01*
X150986761Y-51232855D02*
X150939142Y-51185236D01*
X150939142Y-51185236D02*
X150843904Y-51137617D01*
X150843904Y-51137617D02*
X150558190Y-51137617D01*
X150558190Y-51137617D02*
X150462952Y-51185236D01*
X150462952Y-51185236D02*
X150415333Y-51232855D01*
X150415333Y-51232855D02*
X150367714Y-51328093D01*
X150367714Y-51328093D02*
X150367714Y-51470950D01*
X150367714Y-51470950D02*
X150415333Y-51566188D01*
X150415333Y-51566188D02*
X150462952Y-51613807D01*
X150462952Y-51613807D02*
X150558190Y-51661426D01*
X150558190Y-51661426D02*
X150843904Y-51661426D01*
X150843904Y-51661426D02*
X150939142Y-51613807D01*
X150939142Y-51613807D02*
X150986761Y-51566188D01*
X150986761Y-51566188D02*
X151034380Y-51470950D01*
X151034380Y-51470950D02*
X151034380Y-51328093D01*
%TO.C,U4*%
X99617380Y-59988095D02*
X100426904Y-59988095D01*
X100426904Y-59988095D02*
X100522142Y-60035714D01*
X100522142Y-60035714D02*
X100569761Y-60083333D01*
X100569761Y-60083333D02*
X100617380Y-60178571D01*
X100617380Y-60178571D02*
X100617380Y-60369047D01*
X100617380Y-60369047D02*
X100569761Y-60464285D01*
X100569761Y-60464285D02*
X100522142Y-60511904D01*
X100522142Y-60511904D02*
X100426904Y-60559523D01*
X100426904Y-60559523D02*
X99617380Y-60559523D01*
X99950714Y-61464285D02*
X100617380Y-61464285D01*
X99569761Y-61226190D02*
X100284047Y-60988095D01*
X100284047Y-60988095D02*
X100284047Y-61607142D01*
X106169951Y-55235913D02*
X106169951Y-54235913D01*
X106169951Y-54235913D02*
X105788999Y-54235913D01*
X105788999Y-54235913D02*
X105693761Y-54283533D01*
X105693761Y-54283533D02*
X105646142Y-54331152D01*
X105646142Y-54331152D02*
X105598523Y-54426390D01*
X105598523Y-54426390D02*
X105598523Y-54569247D01*
X105598523Y-54569247D02*
X105646142Y-54664485D01*
X105646142Y-54664485D02*
X105693761Y-54712104D01*
X105693761Y-54712104D02*
X105788999Y-54759723D01*
X105788999Y-54759723D02*
X106169951Y-54759723D01*
X105217570Y-54950199D02*
X104741380Y-54950199D01*
X105312808Y-55235913D02*
X104979475Y-54235913D01*
X104979475Y-54235913D02*
X104646142Y-55235913D01*
X104360427Y-55188294D02*
X104217570Y-55235913D01*
X104217570Y-55235913D02*
X103979475Y-55235913D01*
X103979475Y-55235913D02*
X103884237Y-55188294D01*
X103884237Y-55188294D02*
X103836618Y-55140675D01*
X103836618Y-55140675D02*
X103788999Y-55045437D01*
X103788999Y-55045437D02*
X103788999Y-54950199D01*
X103788999Y-54950199D02*
X103836618Y-54854961D01*
X103836618Y-54854961D02*
X103884237Y-54807342D01*
X103884237Y-54807342D02*
X103979475Y-54759723D01*
X103979475Y-54759723D02*
X104169951Y-54712104D01*
X104169951Y-54712104D02*
X104265189Y-54664485D01*
X104265189Y-54664485D02*
X104312808Y-54616866D01*
X104312808Y-54616866D02*
X104360427Y-54521628D01*
X104360427Y-54521628D02*
X104360427Y-54426390D01*
X104360427Y-54426390D02*
X104312808Y-54331152D01*
X104312808Y-54331152D02*
X104265189Y-54283533D01*
X104265189Y-54283533D02*
X104169951Y-54235913D01*
X104169951Y-54235913D02*
X103931856Y-54235913D01*
X103931856Y-54235913D02*
X103788999Y-54283533D01*
X103312808Y-55235913D02*
X103122332Y-55235913D01*
X103122332Y-55235913D02*
X103027094Y-55188294D01*
X103027094Y-55188294D02*
X102979475Y-55140675D01*
X102979475Y-55140675D02*
X102884237Y-54997818D01*
X102884237Y-54997818D02*
X102836618Y-54807342D01*
X102836618Y-54807342D02*
X102836618Y-54426390D01*
X102836618Y-54426390D02*
X102884237Y-54331152D01*
X102884237Y-54331152D02*
X102931856Y-54283533D01*
X102931856Y-54283533D02*
X103027094Y-54235913D01*
X103027094Y-54235913D02*
X103217570Y-54235913D01*
X103217570Y-54235913D02*
X103312808Y-54283533D01*
X103312808Y-54283533D02*
X103360427Y-54331152D01*
X103360427Y-54331152D02*
X103408046Y-54426390D01*
X103408046Y-54426390D02*
X103408046Y-54664485D01*
X103408046Y-54664485D02*
X103360427Y-54759723D01*
X103360427Y-54759723D02*
X103312808Y-54807342D01*
X103312808Y-54807342D02*
X103217570Y-54854961D01*
X103217570Y-54854961D02*
X103027094Y-54854961D01*
X103027094Y-54854961D02*
X102931856Y-54807342D01*
X102931856Y-54807342D02*
X102884237Y-54759723D01*
X102884237Y-54759723D02*
X102836618Y-54664485D01*
X107617731Y-64545468D02*
X107046303Y-64545468D01*
X107332017Y-65545468D02*
X107332017Y-64545468D01*
X106808207Y-64545468D02*
X106141541Y-65545468D01*
X106141541Y-64545468D02*
X106808207Y-65545468D01*
X102485784Y-56018021D02*
X102581022Y-55970401D01*
X102581022Y-55970401D02*
X102723879Y-55970401D01*
X102723879Y-55970401D02*
X102866736Y-56018021D01*
X102866736Y-56018021D02*
X102961974Y-56113259D01*
X102961974Y-56113259D02*
X103009593Y-56208497D01*
X103009593Y-56208497D02*
X103057212Y-56398973D01*
X103057212Y-56398973D02*
X103057212Y-56541830D01*
X103057212Y-56541830D02*
X103009593Y-56732306D01*
X103009593Y-56732306D02*
X102961974Y-56827544D01*
X102961974Y-56827544D02*
X102866736Y-56922782D01*
X102866736Y-56922782D02*
X102723879Y-56970401D01*
X102723879Y-56970401D02*
X102628641Y-56970401D01*
X102628641Y-56970401D02*
X102485784Y-56922782D01*
X102485784Y-56922782D02*
X102438165Y-56875163D01*
X102438165Y-56875163D02*
X102438165Y-56541830D01*
X102438165Y-56541830D02*
X102628641Y-56541830D01*
X102009593Y-56970401D02*
X102009593Y-55970401D01*
X102009593Y-55970401D02*
X101438165Y-56970401D01*
X101438165Y-56970401D02*
X101438165Y-55970401D01*
X100961974Y-56970401D02*
X100961974Y-55970401D01*
X100961974Y-55970401D02*
X100723879Y-55970401D01*
X100723879Y-55970401D02*
X100581022Y-56018021D01*
X100581022Y-56018021D02*
X100485784Y-56113259D01*
X100485784Y-56113259D02*
X100438165Y-56208497D01*
X100438165Y-56208497D02*
X100390546Y-56398973D01*
X100390546Y-56398973D02*
X100390546Y-56541830D01*
X100390546Y-56541830D02*
X100438165Y-56732306D01*
X100438165Y-56732306D02*
X100485784Y-56827544D01*
X100485784Y-56827544D02*
X100581022Y-56922782D01*
X100581022Y-56922782D02*
X100723879Y-56970401D01*
X100723879Y-56970401D02*
X100961974Y-56970401D01*
X102717681Y-65585444D02*
X102717681Y-64585444D01*
X102717681Y-64585444D02*
X102479586Y-64585444D01*
X102479586Y-64585444D02*
X102336729Y-64633064D01*
X102336729Y-64633064D02*
X102241491Y-64728302D01*
X102241491Y-64728302D02*
X102193872Y-64823540D01*
X102193872Y-64823540D02*
X102146253Y-65014016D01*
X102146253Y-65014016D02*
X102146253Y-65156873D01*
X102146253Y-65156873D02*
X102193872Y-65347349D01*
X102193872Y-65347349D02*
X102241491Y-65442587D01*
X102241491Y-65442587D02*
X102336729Y-65537825D01*
X102336729Y-65537825D02*
X102479586Y-65585444D01*
X102479586Y-65585444D02*
X102717681Y-65585444D01*
X101717681Y-65585444D02*
X101717681Y-64585444D01*
X101717681Y-64585444D02*
X101384348Y-65299730D01*
X101384348Y-65299730D02*
X101051015Y-64585444D01*
X101051015Y-64585444D02*
X101051015Y-65585444D01*
X109541890Y-65705374D02*
X109875223Y-65229184D01*
X110113318Y-65705374D02*
X110113318Y-64705374D01*
X110113318Y-64705374D02*
X109732366Y-64705374D01*
X109732366Y-64705374D02*
X109637128Y-64752994D01*
X109637128Y-64752994D02*
X109589509Y-64800613D01*
X109589509Y-64800613D02*
X109541890Y-64895851D01*
X109541890Y-64895851D02*
X109541890Y-65038708D01*
X109541890Y-65038708D02*
X109589509Y-65133946D01*
X109589509Y-65133946D02*
X109637128Y-65181565D01*
X109637128Y-65181565D02*
X109732366Y-65229184D01*
X109732366Y-65229184D02*
X110113318Y-65229184D01*
X109208556Y-64705374D02*
X108541890Y-65705374D01*
X108541890Y-64705374D02*
X109208556Y-65705374D01*
X105261904Y-65582380D02*
X105261904Y-64582380D01*
X105261904Y-64582380D02*
X105023809Y-64582380D01*
X105023809Y-64582380D02*
X104880952Y-64630000D01*
X104880952Y-64630000D02*
X104785714Y-64725238D01*
X104785714Y-64725238D02*
X104738095Y-64820476D01*
X104738095Y-64820476D02*
X104690476Y-65010952D01*
X104690476Y-65010952D02*
X104690476Y-65153809D01*
X104690476Y-65153809D02*
X104738095Y-65344285D01*
X104738095Y-65344285D02*
X104785714Y-65439523D01*
X104785714Y-65439523D02*
X104880952Y-65534761D01*
X104880952Y-65534761D02*
X105023809Y-65582380D01*
X105023809Y-65582380D02*
X105261904Y-65582380D01*
X104261904Y-65582380D02*
X104261904Y-64582380D01*
X104261904Y-64582380D02*
X103880952Y-64582380D01*
X103880952Y-64582380D02*
X103785714Y-64630000D01*
X103785714Y-64630000D02*
X103738095Y-64677619D01*
X103738095Y-64677619D02*
X103690476Y-64772857D01*
X103690476Y-64772857D02*
X103690476Y-64915714D01*
X103690476Y-64915714D02*
X103738095Y-65010952D01*
X103738095Y-65010952D02*
X103785714Y-65058571D01*
X103785714Y-65058571D02*
X103880952Y-65106190D01*
X103880952Y-65106190D02*
X104261904Y-65106190D01*
X109078265Y-54502758D02*
X109554455Y-54502758D01*
X109554455Y-54502758D02*
X109602074Y-54978949D01*
X109602074Y-54978949D02*
X109554455Y-54931330D01*
X109554455Y-54931330D02*
X109459217Y-54883711D01*
X109459217Y-54883711D02*
X109221122Y-54883711D01*
X109221122Y-54883711D02*
X109125884Y-54931330D01*
X109125884Y-54931330D02*
X109078265Y-54978949D01*
X109078265Y-54978949D02*
X109030646Y-55074187D01*
X109030646Y-55074187D02*
X109030646Y-55312282D01*
X109030646Y-55312282D02*
X109078265Y-55407520D01*
X109078265Y-55407520D02*
X109125884Y-55455139D01*
X109125884Y-55455139D02*
X109221122Y-55502758D01*
X109221122Y-55502758D02*
X109459217Y-55502758D01*
X109459217Y-55502758D02*
X109554455Y-55455139D01*
X109554455Y-55455139D02*
X109602074Y-55407520D01*
X108744931Y-54502758D02*
X108411598Y-55502758D01*
X108411598Y-55502758D02*
X108078265Y-54502758D01*
X108111529Y-56014875D02*
X107492482Y-56014875D01*
X107492482Y-56014875D02*
X107825815Y-56395828D01*
X107825815Y-56395828D02*
X107682958Y-56395828D01*
X107682958Y-56395828D02*
X107587720Y-56443447D01*
X107587720Y-56443447D02*
X107540101Y-56491066D01*
X107540101Y-56491066D02*
X107492482Y-56586304D01*
X107492482Y-56586304D02*
X107492482Y-56824399D01*
X107492482Y-56824399D02*
X107540101Y-56919637D01*
X107540101Y-56919637D02*
X107587720Y-56967256D01*
X107587720Y-56967256D02*
X107682958Y-57014875D01*
X107682958Y-57014875D02*
X107968672Y-57014875D01*
X107968672Y-57014875D02*
X108063910Y-56967256D01*
X108063910Y-56967256D02*
X108111529Y-56919637D01*
X107206767Y-56014875D02*
X106873434Y-57014875D01*
X106873434Y-57014875D02*
X106540101Y-56014875D01*
X106302005Y-56014875D02*
X105682958Y-56014875D01*
X105682958Y-56014875D02*
X106016291Y-56395828D01*
X106016291Y-56395828D02*
X105873434Y-56395828D01*
X105873434Y-56395828D02*
X105778196Y-56443447D01*
X105778196Y-56443447D02*
X105730577Y-56491066D01*
X105730577Y-56491066D02*
X105682958Y-56586304D01*
X105682958Y-56586304D02*
X105682958Y-56824399D01*
X105682958Y-56824399D02*
X105730577Y-56919637D01*
X105730577Y-56919637D02*
X105778196Y-56967256D01*
X105778196Y-56967256D02*
X105873434Y-57014875D01*
X105873434Y-57014875D02*
X106159148Y-57014875D01*
X106159148Y-57014875D02*
X106254386Y-56967256D01*
X106254386Y-56967256D02*
X106302005Y-56919637D01*
D10*
%TO.C,J8*%
X131920556Y-59359799D02*
X132634842Y-59359799D01*
X132634842Y-59359799D02*
X132777699Y-59312180D01*
X132777699Y-59312180D02*
X132872937Y-59216942D01*
X132872937Y-59216942D02*
X132920556Y-59074085D01*
X132920556Y-59074085D02*
X132920556Y-58978847D01*
X132349128Y-59978847D02*
X132301509Y-59883609D01*
X132301509Y-59883609D02*
X132253890Y-59835990D01*
X132253890Y-59835990D02*
X132158652Y-59788371D01*
X132158652Y-59788371D02*
X132111033Y-59788371D01*
X132111033Y-59788371D02*
X132015795Y-59835990D01*
X132015795Y-59835990D02*
X131968176Y-59883609D01*
X131968176Y-59883609D02*
X131920556Y-59978847D01*
X131920556Y-59978847D02*
X131920556Y-60169323D01*
X131920556Y-60169323D02*
X131968176Y-60264561D01*
X131968176Y-60264561D02*
X132015795Y-60312180D01*
X132015795Y-60312180D02*
X132111033Y-60359799D01*
X132111033Y-60359799D02*
X132158652Y-60359799D01*
X132158652Y-60359799D02*
X132253890Y-60312180D01*
X132253890Y-60312180D02*
X132301509Y-60264561D01*
X132301509Y-60264561D02*
X132349128Y-60169323D01*
X132349128Y-60169323D02*
X132349128Y-59978847D01*
X132349128Y-59978847D02*
X132396747Y-59883609D01*
X132396747Y-59883609D02*
X132444366Y-59835990D01*
X132444366Y-59835990D02*
X132539604Y-59788371D01*
X132539604Y-59788371D02*
X132730080Y-59788371D01*
X132730080Y-59788371D02*
X132825318Y-59835990D01*
X132825318Y-59835990D02*
X132872937Y-59883609D01*
X132872937Y-59883609D02*
X132920556Y-59978847D01*
X132920556Y-59978847D02*
X132920556Y-60169323D01*
X132920556Y-60169323D02*
X132872937Y-60264561D01*
X132872937Y-60264561D02*
X132825318Y-60312180D01*
X132825318Y-60312180D02*
X132730080Y-60359799D01*
X132730080Y-60359799D02*
X132539604Y-60359799D01*
X132539604Y-60359799D02*
X132444366Y-60312180D01*
X132444366Y-60312180D02*
X132396747Y-60264561D01*
X132396747Y-60264561D02*
X132349128Y-60169323D01*
%TO.C,J3*%
X189232035Y-58981896D02*
X189946321Y-58981896D01*
X189946321Y-58981896D02*
X190089178Y-58934277D01*
X190089178Y-58934277D02*
X190184416Y-58839039D01*
X190184416Y-58839039D02*
X190232035Y-58696182D01*
X190232035Y-58696182D02*
X190232035Y-58600944D01*
X189232035Y-59362849D02*
X189232035Y-59981896D01*
X189232035Y-59981896D02*
X189612988Y-59648563D01*
X189612988Y-59648563D02*
X189612988Y-59791420D01*
X189612988Y-59791420D02*
X189660607Y-59886658D01*
X189660607Y-59886658D02*
X189708226Y-59934277D01*
X189708226Y-59934277D02*
X189803464Y-59981896D01*
X189803464Y-59981896D02*
X190041559Y-59981896D01*
X190041559Y-59981896D02*
X190136797Y-59934277D01*
X190136797Y-59934277D02*
X190184416Y-59886658D01*
X190184416Y-59886658D02*
X190232035Y-59791420D01*
X190232035Y-59791420D02*
X190232035Y-59505706D01*
X190232035Y-59505706D02*
X190184416Y-59410468D01*
X190184416Y-59410468D02*
X190136797Y-59362849D01*
D12*
%TO.C,J4*%
X164140000Y-58353903D02*
X164140000Y-61013903D01*
X156460000Y-58353903D02*
X164140000Y-58353903D01*
X156460000Y-58353903D02*
X156460000Y-61013903D01*
X155190000Y-58353903D02*
X153860000Y-58353903D01*
X153860000Y-58353903D02*
X153860000Y-59683903D01*
X156460000Y-61013903D02*
X164140000Y-61013903D01*
D11*
X136500000Y-39953903D02*
X181500000Y-39953903D01*
X181500000Y-39953903D02*
X181500000Y-60953903D01*
X181500000Y-60953903D02*
X136500000Y-60953903D01*
X136500000Y-60953903D02*
X136500000Y-39953903D01*
X180970000Y-50158903D02*
G75*
G03*
X180970000Y-50158903I-8000000J0D01*
G01*
X153285000Y-50158903D02*
G75*
G03*
X153285000Y-50158903I-8000000J0D01*
G01*
%TO.C,U4*%
X104519525Y-55589794D02*
X104583372Y-57339180D01*
X108822760Y-55947332D02*
X108772226Y-57376058D01*
D13*
X109750000Y-58700038D02*
X109750000Y-62950025D01*
X109426149Y-58700038D02*
X109750000Y-58700038D01*
X107426149Y-58700038D02*
X108073876Y-58700038D01*
X105426149Y-58700038D02*
X106073876Y-58700038D01*
X103426149Y-58700038D02*
X104073876Y-58700038D01*
X101750000Y-58700038D02*
X102073876Y-58700038D01*
X109750000Y-62950025D02*
X109750000Y-63200038D01*
X109750000Y-63200038D02*
X109426149Y-63200038D01*
X107426149Y-63200038D02*
X108073876Y-63200038D01*
X105426149Y-63200038D02*
X106073876Y-63200038D01*
X103426149Y-63200038D02*
X104073876Y-63200038D01*
X102073876Y-63200038D02*
X101750000Y-63200038D01*
X101750000Y-63200038D02*
X101750000Y-58700038D01*
D11*
X97750000Y-22250000D02*
X112750000Y-22250000D01*
X112750000Y-22250000D02*
X112750000Y-66200000D01*
X112750000Y-66200000D02*
X97750000Y-66200000D01*
X97750000Y-66200000D02*
X97750000Y-22250000D01*
X100737177Y-24052346D02*
X109737177Y-24052346D01*
X109737177Y-24052346D02*
X109737177Y-29052346D01*
X109737177Y-29052346D02*
X100737177Y-29052346D01*
X100737177Y-29052346D02*
X100737177Y-24052346D01*
X112750000Y-65016913D02*
G75*
G03*
X111566920Y-66196027I0J-1183087D01*
G01*
D13*
X101810960Y-64000000D02*
G75*
G03*
X101810960Y-64000000I-127000J0D01*
G01*
D14*
X101713932Y-64000000D02*
G75*
G03*
X101713932Y-64000000I-29972J0D01*
G01*
D12*
%TO.C,J8*%
X118733176Y-61023133D02*
X118733176Y-58363133D01*
X128953176Y-61023133D02*
X118733176Y-61023133D01*
X128953176Y-61023133D02*
X128953176Y-58363133D01*
X130223176Y-61023133D02*
X131553176Y-61023133D01*
X131553176Y-61023133D02*
X131553176Y-59693133D01*
X128953176Y-58363133D02*
X118733176Y-58363133D01*
%TO.C,J3*%
X198604655Y-57985230D02*
X198604655Y-60645230D01*
X193464655Y-57985230D02*
X198604655Y-57985230D01*
X193464655Y-57985230D02*
X193464655Y-60645230D01*
X192194655Y-57985230D02*
X190864655Y-57985230D01*
X190864655Y-57985230D02*
X190864655Y-59315230D01*
X193464655Y-60645230D02*
X198604655Y-60645230D01*
D11*
X181734655Y-62815230D02*
X207734655Y-62815230D01*
X207734655Y-62815230D02*
X207734655Y-29815230D01*
X207734655Y-29815230D02*
X181734655Y-29815230D01*
X181734655Y-29815230D02*
X181734655Y-62815230D01*
X206234655Y-42815230D02*
G75*
G03*
X206234655Y-42815230I-11500000J0D01*
G01*
X206296208Y-59315230D02*
G75*
G03*
X206296208Y-59315230I-2061553J0D01*
G01*
X187234655Y-59315230D02*
G75*
G03*
X187234655Y-59315230I-2000000J0D01*
G01*
%TD*%
M02*
