%TF.GenerationSoftware,KiCad,Pcbnew,(7.0.0-0)*%
%TF.CreationDate,2024-05-26T10:43:25+02:00*%
%TF.ProjectId,SwitchFoil,53776974-6368-4466-9f69-6c2e6b696361,rev?*%
%TF.SameCoordinates,Original*%
%TF.FileFunction,Copper,L1,Top*%
%TF.FilePolarity,Positive*%
%FSLAX46Y46*%
G04 Gerber Fmt 4.6, Leading zero omitted, Abs format (unit mm)*
G04 Created by KiCad (PCBNEW (7.0.0-0)) date 2024-05-26 10:43:25*
%MOMM*%
%LPD*%
G01*
G04 APERTURE LIST*
%TA.AperFunction,ComponentPad*%
%ADD10O,2.500000X1.700000*%
%TD*%
%TA.AperFunction,ComponentPad*%
%ADD11O,1.600000X1.600000*%
%TD*%
%TA.AperFunction,ComponentPad*%
%ADD12O,1.700000X2.500000*%
%TD*%
%TA.AperFunction,ComponentPad*%
%ADD13C,1.600000*%
%TD*%
%TA.AperFunction,ComponentPad*%
%ADD14C,3.000000*%
%TD*%
%TA.AperFunction,ComponentPad*%
%ADD15R,3.000000X3.000000*%
%TD*%
%TA.AperFunction,ComponentPad*%
%ADD16O,3.100000X2.200000*%
%TD*%
%TA.AperFunction,ComponentPad*%
%ADD17R,1.600000X1.700000*%
%TD*%
%TA.AperFunction,ComponentPad*%
%ADD18R,2.600000X2.600000*%
%TD*%
%TA.AperFunction,ComponentPad*%
%ADD19C,2.600000*%
%TD*%
%TA.AperFunction,ComponentPad*%
%ADD20R,1.800000X1.800000*%
%TD*%
%TA.AperFunction,ComponentPad*%
%ADD21O,1.800000X1.800000*%
%TD*%
%TA.AperFunction,ComponentPad*%
%ADD22R,1.700000X1.700000*%
%TD*%
%TA.AperFunction,ComponentPad*%
%ADD23O,1.700000X1.700000*%
%TD*%
%TA.AperFunction,ComponentPad*%
%ADD24O,3.000000X4.000000*%
%TD*%
%TA.AperFunction,ComponentPad*%
%ADD25O,1.440000X2.200000*%
%TD*%
%TA.AperFunction,ComponentPad*%
%ADD26O,2.200000X1.440000*%
%TD*%
%TA.AperFunction,ComponentPad*%
%ADD27C,1.440000*%
%TD*%
%TA.AperFunction,ViaPad*%
%ADD28C,2.200000*%
%TD*%
%TA.AperFunction,ViaPad*%
%ADD29C,2.500000*%
%TD*%
%TA.AperFunction,Conductor*%
%ADD30C,0.400000*%
%TD*%
%TA.AperFunction,Conductor*%
%ADD31C,0.800000*%
%TD*%
%TA.AperFunction,Conductor*%
%ADD32C,1.000000*%
%TD*%
G04 APERTURE END LIST*
D10*
%TO.P,R10,1*%
%TO.N,RADAR_RX*%
X119340688Y-68002002D03*
D11*
%TO.P,R10,2*%
%TO.N,GND*%
X126960688Y-68002002D03*
%TD*%
D12*
%TO.P,SW2,1,1*%
%TO.N,Net-(U1-IO33)*%
X155799999Y-74222123D03*
%TO.P,SW2,2,2*%
%TO.N,GND*%
X155799999Y-67822123D03*
%TD*%
%TO.P,U1,1,IO23/SDA*%
%TO.N,SDA*%
X144883414Y-79021719D03*
%TO.P,U1,2,IO22/SCL*%
%TO.N,SCL*%
X142343414Y-79021719D03*
%TO.P,U1,3,IO14*%
%TO.N,TOF_INT*%
X139803414Y-79021719D03*
%TO.P,U1,4,IO32*%
%TO.N,TRIG*%
X137263414Y-79021719D03*
%TO.P,U1,5,IO15*%
%TO.N,ECHO*%
X134723414Y-79021719D03*
%TO.P,U1,6,IO33*%
%TO.N,Net-(U1-IO33)*%
X132183414Y-79021719D03*
%TO.P,U1,7,IO27*%
%TO.N,RADAR_RX*%
X129643414Y-79021719D03*
%TO.P,U1,8,IO12*%
%TO.N,RADAR_TX*%
X127103414Y-79021719D03*
%TO.P,U1,9,IO13*%
%TO.N,Net-(U1-IO13)*%
X124563414Y-79021719D03*
%TO.P,U1,10,V_USB*%
%TO.N,+5V*%
X122023414Y-79021719D03*
%TO.P,U1,11,EN*%
%TO.N,unconnected-(U1-EN-Pad11)*%
X119483414Y-79021719D03*
%TO.P,U1,12,V_BATT*%
%TO.N,unconnected-(U1-V_BATT-Pad12)*%
X116943414Y-79021719D03*
%TO.P,U1,13,IO21*%
%TO.N,unconnected-(U1-IO21-Pad13)*%
X144883414Y-99341719D03*
%TO.P,U1,14,TX*%
%TO.N,Net-(J10-Pin_2)*%
X142343414Y-99341719D03*
%TO.P,U1,15,RX*%
%TO.N,Net-(J10-Pin_3)*%
X139803414Y-99341719D03*
%TO.P,U1,16,IO18/MOSI*%
%TO.N,Net-(U1-IO18{slash}MOSI)*%
X137263414Y-99341719D03*
%TO.P,U1,17,IO19/MISO*%
%TO.N,DIM*%
X134723414Y-99341719D03*
%TO.P,U1,18,IO5/SCK*%
%TO.N,Z_CROSS*%
X132183414Y-99341719D03*
%TO.P,U1,19,IO4/A5*%
%TO.N,Net-(J9-Pin_1)*%
X129643414Y-99341719D03*
%TO.P,U1,20,I36/A4*%
%TO.N,Net-(J9-Pin_2)*%
X127103414Y-99341719D03*
%TO.P,U1,21,I39/A3*%
%TO.N,Net-(J9-Pin_3)*%
X124563414Y-99341719D03*
%TO.P,U1,22,I34/A2*%
%TO.N,Net-(J9-Pin_4)*%
X122023414Y-99341719D03*
%TO.P,U1,23,IO25/A1*%
%TO.N,PIR*%
X119483414Y-99341719D03*
%TO.P,U1,24,IO26/A0*%
%TO.N,Net-(U1-IO26{slash}A0)*%
X116943414Y-99341719D03*
%TO.P,U1,25,GND*%
%TO.N,GND*%
X114403414Y-99341719D03*
%TO.P,U1,26,AREF*%
%TO.N,unconnected-(U1-AREF-Pad26)*%
X111863414Y-99341719D03*
%TO.P,U1,27,3.3V*%
%TO.N,+3V3*%
X109323414Y-99341719D03*
%TO.P,U1,28,~{RESET}*%
%TO.N,unconnected-(U1-~{RESET}-Pad28)*%
X106783414Y-99341719D03*
%TD*%
D13*
%TO.P,R13,1*%
%TO.N,DIM*%
X155290000Y-100500000D03*
D11*
%TO.P,R13,2*%
%TO.N,Net-(Q2-B)*%
X162909999Y-100499999D03*
%TD*%
D14*
%TO.P,J5,1,Pin_1*%
%TO.N,N*%
X111000000Y-133150000D03*
%TO.P,J5,2,Pin_2*%
%TO.N,AC_IN_L*%
X111000000Y-141650000D03*
%TD*%
D12*
%TO.P,JP1,1,A*%
%TO.N,Net-(JP1-A)*%
X107199999Y-109199999D03*
%TO.P,JP1,2,C*%
%TO.N,+5V*%
X104659999Y-109199999D03*
%TO.P,JP1,3,B*%
%TO.N,unconnected-(JP1-B-Pad3)*%
X102119999Y-109199999D03*
%TD*%
%TO.P,J9,1,Pin_1*%
%TO.N,Net-(J9-Pin_1)*%
X129614874Y-102799999D03*
%TO.P,J9,2,Pin_2*%
%TO.N,Net-(J9-Pin_2)*%
X127074874Y-102799999D03*
%TO.P,J9,3,Pin_3*%
%TO.N,Net-(J9-Pin_3)*%
X124534874Y-102799999D03*
%TO.P,J9,4,Pin_4*%
%TO.N,Net-(J9-Pin_4)*%
X121994874Y-102799999D03*
%TD*%
%TO.P,J1,1,Pin_1*%
%TO.N,GND*%
X150099999Y-73199999D03*
%TO.P,J1,2,Pin_2*%
%TO.N,+3V3*%
X147559999Y-73199999D03*
%TO.P,J1,3,Pin_3*%
%TO.N,SDA*%
X145019999Y-73199999D03*
%TO.P,J1,4,Pin_4*%
%TO.N,SCL*%
X142479999Y-73199999D03*
%TO.P,J1,5,Pin_5*%
%TO.N,TOF_INT*%
X139939999Y-73199999D03*
%TO.P,J1,6,Pin_6*%
%TO.N,unconnected-(J1-Pin_6-Pad6)*%
X137399999Y-73199999D03*
%TD*%
%TO.P,SW1,1,1*%
%TO.N,Net-(U1-IO18{slash}MOSI)*%
X162299999Y-73999999D03*
%TO.P,SW1,2,2*%
%TO.N,GND*%
X162299999Y-67599999D03*
%TD*%
D15*
%TO.P,PS2,1,AC/N*%
%TO.N,N*%
X197529999Y-146157499D03*
D14*
%TO.P,PS2,2,AC/L*%
%TO.N,L*%
X208280000Y-146157500D03*
%TO.P,PS2,3,-Vo*%
%TO.N,GND*%
X208280000Y-107657500D03*
%TO.P,PS2,4,+Vo*%
%TO.N,Net-(JP1-A)*%
X200280000Y-107657500D03*
%TD*%
D16*
%TO.P,T1,0*%
%TO.N,unconnected-(T1-Pad0)*%
X148999999Y-146231247D03*
%TO.P,T1,1,AA*%
%TO.N,L*%
X129999999Y-146231247D03*
%TO.P,T1,2,AB*%
%TO.N,N*%
X134799999Y-146231247D03*
%TO.P,T1,6,SA*%
%TO.N,AC_N_30V*%
X148999999Y-111231247D03*
%TO.P,T1,7,SB*%
%TO.N,AC_L_30V*%
X144199999Y-111231247D03*
%TD*%
D17*
%TO.P,D1,1,K*%
%TO.N,GND*%
X132339999Y-72399999D03*
D12*
%TO.P,D1,2,A*%
%TO.N,Net-(D1-A)*%
X129799999Y-72399999D03*
%TD*%
D14*
%TO.P,K1,11*%
%TO.N,AC_L_30V*%
X168700000Y-91600000D03*
%TO.P,K1,12*%
%TO.N,unconnected-(K1-Pad12)*%
X182900000Y-85600000D03*
%TO.P,K1,14*%
%TO.N,AC_L_30V_SWITCHED*%
X182900000Y-97600000D03*
%TO.P,K1,A1*%
%TO.N,+3V3*%
X170700000Y-97600000D03*
%TO.P,K1,A2*%
%TO.N,Net-(D5-A)*%
X170700000Y-85600000D03*
%TD*%
D18*
%TO.P,J7,1,Pin_1*%
%TO.N,AC_L_30V_SWITCHED*%
X203199999Y-81199999D03*
D19*
%TO.P,J7,2,Pin_2*%
%TO.N,AC_N_30V*%
X203200000Y-76200000D03*
%TD*%
D10*
%TO.P,R8,1*%
%TO.N,ECHO*%
X134619999Y-64499999D03*
D11*
%TO.P,R8,2*%
%TO.N,GND*%
X126999999Y-64499999D03*
%TD*%
D10*
%TO.P,R7,1*%
%TO.N,Net-(J4-Pin_2)*%
X145309999Y-64499999D03*
%TO.P,R7,2*%
%TO.N,ECHO*%
X137689999Y-64499999D03*
%TD*%
%TO.P,R9,1*%
%TO.N,Net-(J8-Pin_5)*%
X114399999Y-64999999D03*
%TO.P,R9,2*%
%TO.N,RADAR_RX*%
X122019999Y-64999999D03*
%TD*%
D20*
%TO.P,D5,1,K*%
%TO.N,+3V3*%
X167199999Y-72499999D03*
D21*
%TO.P,D5,2,A*%
%TO.N,Net-(D5-A)*%
X167199999Y-80119999D03*
%TD*%
D22*
%TO.P,Q2,1,E*%
%TO.N,GND*%
X162899999Y-94579999D03*
D23*
%TO.P,Q2,2,B*%
%TO.N,Net-(Q2-B)*%
X162899999Y-92039999D03*
%TO.P,Q2,3,C*%
%TO.N,Net-(D5-A)*%
X162899999Y-89499999D03*
%TD*%
D24*
%TO.P,F1,1*%
%TO.N,AC_IN_L*%
X118299999Y-147799999D03*
%TO.P,F1,2*%
%TO.N,L*%
X118299999Y-125299999D03*
%TD*%
D22*
%TO.P,J10,1,Pin_1*%
%TO.N,GND*%
X144899999Y-102699999D03*
D12*
%TO.P,J10,2,Pin_2*%
%TO.N,Net-(J10-Pin_2)*%
X142359999Y-102699999D03*
%TO.P,J10,3,Pin_3*%
%TO.N,Net-(J10-Pin_3)*%
X139819999Y-102699999D03*
%TD*%
D25*
%TO.P,RV1,1,1*%
%TO.N,+3V3*%
X112249999Y-106599999D03*
D26*
%TO.P,RV1,2,2*%
%TO.N,Net-(U1-IO26{slash}A0)*%
X115189999Y-109539999D03*
D27*
%TO.P,RV1,3,3*%
%TO.N,GND*%
X117330000Y-107000000D03*
%TD*%
D10*
%TO.P,R1,1*%
%TO.N,Net-(U1-IO13)*%
X116499999Y-72499999D03*
%TO.P,R1,2*%
%TO.N,Net-(D1-A)*%
X124119999Y-72499999D03*
%TD*%
D12*
%TO.P,J4,1,Pin_1*%
%TO.N,GND*%
X155189999Y-59683902D03*
%TO.P,J4,2,Pin_2*%
%TO.N,Net-(J4-Pin_2)*%
X157729999Y-59683902D03*
%TO.P,J4,3,Pin_3*%
%TO.N,TRIG*%
X160269999Y-59683902D03*
%TO.P,J4,4,Pin_4*%
%TO.N,+5V*%
X162809999Y-59683902D03*
%TD*%
%TO.P,J8,1,Pin_1*%
%TO.N,+5V*%
X130223175Y-59693132D03*
%TO.P,J8,2,Pin_2*%
%TO.N,GND*%
X127683175Y-59693132D03*
%TO.P,J8,3,Pin_3*%
%TO.N,unconnected-(J8-Pin_3-Pad3)*%
X125143175Y-59693132D03*
%TO.P,J8,4,Pin_4*%
%TO.N,RADAR_TX*%
X122603175Y-59693132D03*
%TO.P,J8,5,Pin_5*%
%TO.N,Net-(J8-Pin_5)*%
X120063175Y-59693132D03*
%TD*%
%TO.P,J3,1,Pin_1*%
%TO.N,GND*%
X192194654Y-59315229D03*
%TO.P,J3,2,Pin_2*%
%TO.N,+3V3*%
X194734654Y-59315229D03*
%TO.P,J3,3,Pin_3*%
%TO.N,PIR*%
X197274654Y-59315229D03*
%TD*%
D28*
%TO.N,GND*%
X150699992Y-102700000D03*
X152300000Y-75500002D03*
X164077701Y-103941416D03*
X152199996Y-65200000D03*
%TO.N,+3V3*%
X165200000Y-68900000D03*
X165500000Y-101300000D03*
%TO.N,+5V*%
X112250000Y-70500000D03*
X112249994Y-58500000D03*
D29*
%TO.N,AC_L_30V*%
X177200000Y-91800000D03*
X177339551Y-102800000D03*
%TD*%
D30*
%TO.N,GND*%
X152300000Y-65300004D02*
X152199996Y-65200000D01*
X162836285Y-102700000D02*
X164077701Y-103941416D01*
X152300000Y-75500002D02*
X152300000Y-65300004D01*
X150699992Y-102700000D02*
X162836285Y-102700000D01*
D31*
%TO.N,+3V3*%
X165300000Y-69000000D02*
X165200000Y-68900000D01*
X165500000Y-101300000D02*
X165300000Y-101100000D01*
X165300000Y-101100000D02*
X165300000Y-69000000D01*
D30*
%TO.N,+5V*%
X112150000Y-65766295D02*
X112250000Y-65866295D01*
X112249994Y-58500000D02*
X112150000Y-58599994D01*
X112150000Y-58599994D02*
X112150000Y-65766295D01*
X112250000Y-65866295D02*
X112250000Y-70500000D01*
D32*
%TO.N,AC_L_30V*%
X177200000Y-91800000D02*
X177200000Y-102660449D01*
X177200000Y-102660449D02*
X177339551Y-102800000D01*
%TD*%
M02*
