%TF.GenerationSoftware,KiCad,Pcbnew,(7.0.0-0)*%
%TF.CreationDate,2024-05-26T10:43:26+02:00*%
%TF.ProjectId,SwitchFoil,53776974-6368-4466-9f69-6c2e6b696361,rev?*%
%TF.SameCoordinates,Original*%
%TF.FileFunction,Other,User*%
%FSLAX46Y46*%
G04 Gerber Fmt 4.6, Leading zero omitted, Abs format (unit mm)*
G04 Created by KiCad (PCBNEW (7.0.0-0)) date 2024-05-26 10:43:26*
%MOMM*%
%LPD*%
G01*
G04 APERTURE LIST*
%ADD10C,0.050000*%
G04 APERTURE END LIST*
D10*
%TO.C,R10*%
X118290689Y-66502003D02*
X118290689Y-69502003D01*
X118290689Y-69502003D02*
X128010689Y-69502003D01*
X128010689Y-66502003D02*
X118290689Y-66502003D01*
X128010689Y-69502003D02*
X128010689Y-66502003D01*
%TO.C,R13*%
X154240000Y-99000000D02*
X154240000Y-102000000D01*
X154240000Y-102000000D02*
X163960000Y-102000000D01*
X163960000Y-99000000D02*
X154240000Y-99000000D01*
X163960000Y-102000000D02*
X163960000Y-99000000D01*
%TO.C,JP1*%
X109000000Y-107400000D02*
X100350000Y-107400000D01*
X100350000Y-107400000D02*
X100350000Y-111000000D01*
X109000000Y-111000000D02*
X109000000Y-107400000D01*
X100350000Y-111000000D02*
X109000000Y-111000000D01*
%TO.C,H2*%
X219560599Y-56092000D02*
G75*
G03*
X219560599Y-56092000I-3450000J0D01*
G01*
%TO.C,J9*%
X131414875Y-101000000D02*
X120214875Y-101000000D01*
X120214875Y-101000000D02*
X120214875Y-104600000D01*
X131414875Y-104600000D02*
X131414875Y-101000000D01*
X120214875Y-104600000D02*
X131414875Y-104600000D01*
%TO.C,J1*%
X151900000Y-71400000D02*
X135600000Y-71400000D01*
X135600000Y-71400000D02*
X135600000Y-75000000D01*
X151900000Y-75000000D02*
X151900000Y-71400000D01*
X135600000Y-75000000D02*
X151900000Y-75000000D01*
%TO.C,PS2*%
X186080000Y-150007500D02*
X211980000Y-150007500D01*
X186080000Y-150007500D02*
X186080000Y-103807500D01*
X211980000Y-150007500D02*
X211980000Y-103807500D01*
X186080000Y-103807500D02*
X211980000Y-103807500D01*
%TO.C,H4*%
X87058000Y-147090624D02*
G75*
G03*
X87058000Y-147090624I-3450000J0D01*
G01*
%TO.C,T1*%
X123520898Y-149768752D02*
X156200000Y-149768752D01*
X156200000Y-149768752D02*
X156200000Y-106231248D01*
X156200000Y-106231248D02*
X123520898Y-106231248D01*
X123520898Y-106231248D02*
X123520898Y-149768752D01*
%TO.C,D1*%
X134290000Y-75650000D02*
X134290000Y-69150000D01*
X134290000Y-69150000D02*
X127840000Y-69150000D01*
X127840000Y-75650000D02*
X134290000Y-75650000D01*
X127840000Y-69150000D02*
X127840000Y-75650000D01*
%TO.C,K1*%
X166950000Y-99450000D02*
X166950000Y-83750000D01*
X166950000Y-99450000D02*
X186550000Y-99450000D01*
X186550000Y-83750000D02*
X166950000Y-83750000D01*
X186550000Y-83750000D02*
X186550000Y-99450000D01*
%TO.C,J7*%
X197490000Y-84200000D02*
X208300000Y-84200000D01*
X208300000Y-84200000D02*
X208300000Y-73200000D01*
X197490000Y-73200000D02*
X197490000Y-84200000D01*
X208300000Y-73200000D02*
X197490000Y-73200000D01*
%TO.C,R8*%
X135670000Y-66000000D02*
X135670000Y-63000000D01*
X135670000Y-63000000D02*
X125950000Y-63000000D01*
X125950000Y-66000000D02*
X135670000Y-66000000D01*
X125950000Y-63000000D02*
X125950000Y-66000000D01*
%TO.C,R7*%
X146360000Y-66000000D02*
X146360000Y-63000000D01*
X146360000Y-63000000D02*
X136640000Y-63000000D01*
X136640000Y-66000000D02*
X146360000Y-66000000D01*
X136640000Y-63000000D02*
X136640000Y-66000000D01*
%TO.C,R9*%
X113350000Y-63500000D02*
X113350000Y-66500000D01*
X113350000Y-66500000D02*
X123070000Y-66500000D01*
X123070000Y-63500000D02*
X113350000Y-63500000D01*
X123070000Y-66500000D02*
X123070000Y-63500000D01*
%TO.C,D5*%
X168800000Y-71350000D02*
X165600000Y-71350000D01*
X165600000Y-71350000D02*
X165600000Y-81270000D01*
X168800000Y-81270000D02*
X168800000Y-71350000D01*
X165600000Y-81270000D02*
X168800000Y-81270000D01*
%TO.C,H3*%
X87058000Y-56092000D02*
G75*
G03*
X87058000Y-56092000I-3450000J0D01*
G01*
%TO.C,Q2*%
X164700000Y-96380000D02*
X164700000Y-87730000D01*
X164700000Y-87730000D02*
X161100000Y-87730000D01*
X161100000Y-96380000D02*
X164700000Y-96380000D01*
X161100000Y-87730000D02*
X161100000Y-96380000D01*
%TO.C,F1*%
X113250000Y-149550000D02*
X113250000Y-123550000D01*
X123350000Y-149550000D02*
X113250000Y-149550000D01*
X113250000Y-123550000D02*
X123350000Y-123550000D01*
X123350000Y-123550000D02*
X123350000Y-149550000D01*
%TO.C,J10*%
X146700000Y-100900000D02*
X138050000Y-100900000D01*
X138050000Y-100900000D02*
X138050000Y-104500000D01*
X146700000Y-104500000D02*
X146700000Y-100900000D01*
X138050000Y-104500000D02*
X146700000Y-104500000D01*
%TO.C,RV1*%
X118350000Y-103150000D02*
X111200000Y-103150000D01*
X111200000Y-103150000D02*
X111200000Y-110700000D01*
X118350000Y-110700000D02*
X118350000Y-103150000D01*
X111200000Y-110700000D02*
X118350000Y-110700000D01*
%TO.C,R1*%
X115450000Y-71000000D02*
X115450000Y-74000000D01*
X115450000Y-74000000D02*
X125170000Y-74000000D01*
X125170000Y-71000000D02*
X115450000Y-71000000D01*
X125170000Y-74000000D02*
X125170000Y-71000000D01*
%TO.C,H1*%
X219560599Y-147090624D02*
G75*
G03*
X219560599Y-147090624I-3450000J0D01*
G01*
%TD*%
M02*
